<?xml version="1.0" encoding="UTF-8"?>
<svg viewBox="0 0 640 480" xmlns="http://www.w3.org/2000/svg">
 <path d="m394.59 223.22c0-51.059-16.932-92.45-37.82-92.45-20.887 0-37.82 41.391-37.82 92.45" fill="#440c43"/>
 <path d="m450.56 223.22c0-48.628-16.932-88.048-37.82-88.048-20.887 0-37.82 39.42-37.82 88.048" fill="#738973"/>
 <path d="m505.02 223.22c0-51.869-16.932-93.918-37.82-93.918-20.887 0-37.82 42.048-37.82 93.918" fill="#72705c"/>
 <path d="m557.97 234.22c0-53.082-16.932-96.113-37.82-96.113-20.887 0-37.82 43.031-37.82 96.113" fill="#577a1c"/>
 <path d="m610.92 265.22c0-72.634-16.932-131.52-37.82-131.52-20.887 0-37.82 58.881-37.82 131.52" fill="#4f2a54"/>
 <g fill="#a35b18">
  <path d="m376.44 114.63c0 16.209-11.853 29.349-26.474 29.349s-26.474-13.14-26.474-29.349 11.853-29.349 26.474-29.349c11.982 0 22.47 8.9221 25.572 21.753"/>
  <path d="m430.9 119.76c0 14.183-10.159 25.681-22.692 25.681-12.532 0-22.692-11.498-22.692-25.681s10.16-25.681 22.692-25.681c10.27 0 19.26 7.8068 21.919 19.034"/>
  <path d="m494.65 113.22c-4.2393 15.26-17.485 25.066-29.586 21.902-12.101-3.1632-18.474-18.098-14.234-33.357 4.2392-15.26 17.485-25.066 29.586-21.902 9.9166 2.5923 16.264 13.261 15.474 26.011"/>
  <path d="m554.71 118.11c2.3115 15.644-5.8713 29.724-18.277 31.449-12.406 1.7248-24.336-9.559-26.648-25.203-2.3115-15.644 5.8713-29.724 18.277-31.449 10.166-1.4135 20.338 5.9603 24.799 17.978"/>
 </g>
 <path d="m605.39 125.93c-7.4766 14.042-22.564 20.902-33.699 15.323-11.135-5.5789-14.1-21.484-6.6238-35.526 7.4765-14.042 22.564-20.902 33.699-15.323 9.1251 4.5719 12.997 16.303 9.4406 28.601" fill="#b25d0e"/>
 <path d="m271.82 235.68c0-62.369 17.676-112.93 39.482-112.93 21.805 0 39.482 50.56 39.482 112.93" fill="#ff4300"/>
 <path d="m213.38 219.68c0-50.983 17.676-92.312 39.482-92.312 21.805 0 39.482 41.33 39.482 92.312" fill="#fff5aa"/>
 <path d="m156.53 219.68c0-54.382 17.676-98.467 39.482-98.467 21.805 0 39.482 44.085 39.482 98.467" fill="#174c41"/>
 <path d="m101.26 219.68c0-49.283 17.677-89.235 39.482-89.235s39.482 39.952 39.482 89.235" fill="#577a1c"/>
 <path d="m45.981 227.68c0-56.251 17.676-101.85 39.482-101.85 21.805 0 39.482 45.6 39.482 101.85" fill="#a9b5c9"/>
 <g fill="#a35b18">
  <path d="m290.77 105.83c0 16.994 12.374 30.771 27.637 30.771 15.264 0 27.637-13.777 27.637-30.771s-12.374-30.771-27.637-30.771c-12.509 0-23.458 9.3542-26.695 22.807"/>
  <path d="m233.91 111.21c0 14.87 10.606 26.924 23.689 26.924s23.689-12.054 23.689-26.924-10.606-26.924-23.689-26.924c-10.722 0-20.107 8.185-22.882 19.956"/>
  <path d="m168.4 106.45c4.4255 15.999 18.254 26.28 30.886 22.963 12.632-3.3164 19.285-18.974 14.86-34.973-4.4255-15.999-18.254-26.28-30.886-22.963-10.352 2.7179-16.978 13.903-16.154 27.271" stroke-width="0"/>
  <path d="m104.65 109.48c-2.4131 16.402 6.1293 31.164 19.08 32.972 12.951 1.8084 25.406-10.022 27.819-26.424 2.4131-16.402-6.1293-31.164-19.08-32.972-10.613-1.482-21.232 6.249-25.889 18.849"/>
  <path d="m45.981 108.14c0 16.569 10.606 30.002 23.689 30.002s23.689-13.432 23.689-30.002c0-16.569-10.606-30.002-23.689-30.002-10.722 0-20.107 9.1204-22.882 22.237"/>
  <path d="m48.623 118.73c7.805 14.722 23.556 21.914 35.18 16.065 11.624-5.8491 14.72-22.525 6.9149-37.247-7.805-14.722-23.556-21.914-35.18-16.065-9.5261 4.7934-13.568 17.092-9.8555 29.987"/>
 </g>
 <path d="m479.24 302.68c0-60.712 17.676-109.93 39.482-109.93 21.805 0 39.482 49.217 39.482 109.93" fill="#a9b5c9"/>
 <g fill="#577a1c">
  <path d="m420.8 321.68c0-68.656 17.676-124.31 39.482-124.31 21.805 0 39.482 55.656 39.482 124.31"/>
  <path d="m363.95 289.68c0-54.382 17.677-98.467 39.482-98.467s39.482 44.085 39.482 98.467"/>
 </g>
 <g fill="#f70">
  <path d="m308.68 289.68c0-49.283 17.676-89.235 39.482-89.235 21.805 0 39.482 39.952 39.482 89.235"/>
  <path d="m291.4 300.68c0-51.832 17.676-93.851 39.482-93.851 21.805 0 39.482 42.019 39.482 93.851"/>
 </g>
 <g fill="#a35b18">
  <path d="m498.19 175.83c0 16.994 12.374 30.771 27.637 30.771 15.264 0 27.637-13.777 27.637-30.771s-12.374-30.771-27.637-30.771c-12.509 0-23.458 9.3542-26.695 22.807"/>
  <path d="m441.33 181.21c0 14.87 10.606 26.924 23.689 26.924s23.689-12.054 23.689-26.924-10.606-26.924-23.689-26.924c-10.722 0-20.107 8.185-22.882 19.956"/>
  <path d="m375.82 176.45c4.4255 15.999 18.254 26.28 30.886 22.963 12.632-3.3164 19.285-18.974 14.86-34.973-4.4255-15.999-18.254-26.28-30.886-22.963-10.352 2.7179-16.978 13.903-16.154 27.271"/>
  <path d="m312.07 179.48c-2.4131 16.402 6.1293 31.164 19.08 32.972 12.951 1.8084 25.406-10.022 27.819-26.424 2.4131-16.402-6.1293-31.164-19.08-32.972-10.613-1.482-21.232 6.249-25.889 18.849"/>
  <path d="m253.4 178.14c0 16.569 10.606 30.002 23.689 30.002s23.689-13.432 23.689-30.002c0-16.569-10.606-30.002-23.689-30.002-10.722 0-20.107 9.1204-22.882 22.237"/>
  <path d="m256.04 188.73c7.805 14.722 23.556 21.914 35.18 16.065 11.624-5.8491 14.72-22.525 6.915-37.247-7.8051-14.722-23.556-21.914-35.18-16.065-9.5261 4.7934-13.568 17.092-9.8555 29.987"/>
 </g>
 <path d="m77.054 323.3c0-76.728-17.423-138.93-38.916-138.93s-38.916 62.201-38.916 138.93" fill="#148972"/>
 <path d="m135.65 290.3c0-55.953-17.423-101.31-38.916-101.31s-38.916 45.359-38.916 101.31" fill="#fff5aa"/>
 <path d="m191.69 281.3c0-54.382-17.423-98.467-38.916-98.467s-38.916 44.085-38.916 98.467" fill="#738973"/>
 <path d="m246.17 281.3c0-49.283-17.423-89.235-38.916-89.235s-38.916 39.952-38.916 89.235" fill="#434144" stroke="#444"/>
 <path d="m314.65 293.3c0-51.832-17.423-93.851-38.916-93.851s-38.916 42.019-38.916 93.851" fill="#a9b5c9"/>
 <g fill="#a35b18">
  <path d="m59.375 167.45c0 16.994-12.196 30.771-27.241 30.771s-27.241-13.777-27.241-30.771 12.196-30.771 27.241-30.771c12.33 0 23.122 9.3542 26.313 22.807"/>
  <path d="m115.41 172.83c0 14.87-10.454 26.924-23.35 26.924s-23.35-12.054-23.35-26.924 10.454-26.924 23.35-26.924c10.568 0 19.819 8.185 22.554 19.956"/>
  <path d="m179.99 168.07c-4.3621 15.999-17.992 26.28-30.444 22.963-12.451-3.3164-19.009-18.974-14.647-34.973 4.3621-15.999 17.992-26.28 30.444-22.963 10.204 2.7179 16.735 13.903 15.923 27.271"/>
  <path d="m242.82 171.09c2.3785 16.402-6.0415 31.164-18.807 32.972-12.765 1.8084-25.042-10.022-27.42-26.424-2.3785-16.402 6.0416-31.164 18.807-32.972 10.461-1.482 20.927 6.249 25.518 18.849"/>
 </g>
 <path d="m267 316.61c0-53.532-17.423-96.928-38.916-96.928s-38.916 43.396-38.916 96.928" fill="#d35d5d"/>
 <path d="m324.6 316.61c0-50.983-17.423-92.312-38.916-92.312s-38.916 41.33-38.916 92.312" fill="#5f7561"/>
 <path d="m380.64 316.61c0-54.382-17.423-98.467-38.916-98.467s-38.916 44.085-38.916 98.467" fill="#577a1c"/>
 <path d="m435.12 316.61c0-49.283-17.423-89.235-38.916-89.235s-38.916 39.952-38.916 89.235" fill="#ff4300"/>
 <path d="m489.6 316.61c0-51.832-17.423-93.851-38.916-93.851s-38.916 42.019-38.916 93.851" fill="#4c0327"/>
 <g fill="#a35b18">
  <path d="m248.32 202.76c0 16.994-12.196 30.771-27.241 30.771s-27.241-13.777-27.241-30.771 12.196-30.771 27.241-30.771c12.33 0 23.122 9.3542 26.313 22.807"/>
  <path d="m304.36 208.14c0 14.87-10.454 26.924-23.35 26.924s-23.35-12.054-23.35-26.924 10.454-26.924 23.35-26.924c10.568 0 19.819 8.185 22.554 19.956"/>
  <path d="m368.94 203.38c-4.3621 15.999-17.992 26.28-30.444 22.963-12.451-3.3165-19.009-18.974-14.647-34.973 4.3621-15.999 17.992-26.28 30.444-22.963 10.204 2.7179 16.735 13.903 15.923 27.271"/>
  <path d="m431.77 206.41c2.3785 16.402-6.0416 31.164-18.807 32.972-12.765 1.8084-25.042-10.022-27.42-26.424-2.3785-16.402 6.0415-31.164 18.807-32.972 10.461-1.482 20.928 6.249 25.518 18.849"/>
 </g>
 <path d="m483 216.66c-7.6933 14.722-23.218 21.914-34.676 16.065-11.458-5.8491-14.509-22.525-6.8159-37.247 7.6932-14.722 23.218-21.914 34.676-16.065 9.3896 4.7934 13.374 17.092 9.7143 29.987" fill="#b25d0e"/>
 <path d="m581.27 330.15c0-54.382-17.423-98.467-38.916-98.467s-38.916 44.085-38.916 98.467" fill="#174c41"/>
 <path d="m637.75 348.15c0-59.224-17.871-107.24-39.916-107.24s-39.916 48.011-39.916 107.24" fill="#a9b5c9"/>
 <g fill="#a35b18">
  <path d="m569.57 216.92c-4.3621 15.999-17.992 26.28-30.444 22.963-12.451-3.3165-19.009-18.974-14.647-34.973 4.3621-15.999 17.992-26.28 30.444-22.963 10.204 2.7179 16.735 13.903 15.923 27.271"/>
  <path d="m632.4 219.95c2.3785 16.402-6.0416 31.164-18.807 32.972-12.765 1.8084-25.042-10.022-27.42-26.424-2.3785-16.402 6.0415-31.164 18.807-32.972 10.461-1.482 20.928 6.249 25.518 18.849"/>
 </g>
 <path d="m98.553 347.69c0-53.532 24.811-96.928 55.416-96.928s55.416 43.396 55.416 96.928" fill="#2d3e4f"/>
 <path d="m40.956 347.69c0-50.983 17.423-92.312 38.916-92.312s38.916 41.33 38.916 92.312" fill="#331e30"/>
 <path d="m-2.0826 372.69c0-68.741 16.304-124.47 36.416-124.47s36.416 55.726 36.416 124.47" fill="#577a1c"/>
 <g fill="#a35b18">
  <path d="m117.23 233.83c0 16.994 12.196 30.771 27.241 30.771s27.241-13.777 27.241-30.771-12.196-30.771-27.241-30.771c-12.33 0-23.122 9.3542-26.313 22.807"/>
  <path d="m61.193 239.22c0 14.87 10.454 26.924 23.35 26.924s23.35-12.054 23.35-26.924-10.454-26.924-23.35-26.924c-10.568 0-19.819 8.185-22.554 19.956"/>
  <path d="m13.618 241.45c4.3621 15.999 17.992 26.28 30.444 22.963 12.451-3.3165 19.009-18.974 14.647-34.973-4.3621-15.999-17.992-26.28-30.444-22.963-10.204 2.7179-16.735 13.903-15.923 27.271"/>
 </g>
 <path d="m558.12 431.56c0-75.921 18.542-137.47 41.416-137.47s41.416 61.546 41.416 137.47" fill="#002154"/>
 <path d="m503.64 392.56c0-49.283 17.423-89.235 38.916-89.235s38.916 39.952 38.916 89.235" fill="#808080"/>
 <path d="m499.16 391.56c0-55.698 17.423-100.85 38.916-100.85s38.916 45.153 38.916 100.85" fill="#f70"/>
 <path d="m569.82 279.33c4.3621 15.999 17.992 26.28 30.444 22.963 12.451-3.3165 19.009-18.974 14.647-34.973-4.3621-15.999-17.992-26.28-30.444-22.963-10.204 2.7179-16.735 13.903-15.923 27.271" fill="#a35b18"/>
 <path d="m512.99 275.36c-2.3785 16.402 6.0415 31.164 18.807 32.972 12.765 1.8084 25.042-10.022 27.42-26.424 2.3785-16.402-6.0416-31.164-18.807-32.972-10.461-1.482-20.928 6.2489-25.518 18.849" fill="#b25d0e"/>
 <path d="m297.38 377.38c0-53.532-15.144-96.928-33.826-96.928-18.681 0-33.826 43.396-33.826 96.928" fill="#a9b5c9"/>
 <path d="m347.44 377.38c0-50.983-15.144-92.312-33.826-92.312-18.681 0-33.826 41.33-33.826 92.312" fill="#72705c"/>
 <path d="m396.15 377.38c0-54.382-15.144-98.467-33.826-98.467-18.681 0-33.826 44.085-33.826 98.467" fill="#4f2a54"/>
 <path d="m443.51 377.38c0-49.283-15.144-89.235-33.826-89.235-18.681 0-33.826 39.952-33.826 89.235" fill="#fff5aa"/>
 <path d="m490.86 377.38c0-51.832-15.144-93.851-33.826-93.851-18.681 0-33.826 42.019-33.826 93.851" fill="#577a1c"/>
 <g fill="#a35b18">
  <path d="m281.14 263.53c0 16.994-10.601 30.771-23.678 30.771s-23.678-13.777-23.678-30.771 10.601-30.771 23.678-30.771c10.717 0 20.097 9.3542 22.871 22.807"/>
  <path d="m329.85 268.92c0 14.87-9.0866 26.924-20.295 26.924-11.209 0-20.295-12.054-20.295-26.924s9.0866-26.924 20.295-26.924c9.1858 0 17.226 8.185 19.604 19.956"/>
  <path d="m385.98 264.15c-3.7916 15.999-15.639 26.28-26.462 22.963-10.823-3.3164-16.523-18.974-12.731-34.973 3.7916-15.999 15.639-26.28 26.462-22.963 8.8694 2.7179 14.546 13.903 13.84 27.271"/>
  <path d="m440.59 267.18c2.0674 16.402-5.2513 31.164-16.347 32.972-11.096 1.8084-21.766-10.022-23.833-26.424-2.0674-16.402 5.2513-31.164 16.347-32.972 9.0929-1.482 18.19 6.249 22.18 18.849"/>
  <path d="m491.6 279.43c-6.687 14.722-20.181 21.914-30.14 16.065-9.9589-5.8491-12.611-22.525-5.9243-37.247 6.687-14.722 20.181-21.914 30.14-16.065 8.1614 4.7934 11.625 17.092 8.4437 29.987"/>
 </g>
 <path d="m72.127 449c0-72.862-15.592-131.93-34.826-131.93s-34.826 59.066-34.826 131.93" fill="#088985"/>
 <path d="m122.19 414c0-50.983-15.144-92.312-33.826-92.312-18.681 0-33.826 41.33-33.826 92.312" fill="#577a1c"/>
 <g fill="#b3b3b3">
  <path d="m170.9 414c0-54.382-15.144-98.467-33.826-98.467-18.681 0-33.826 44.085-33.826 98.467"/>
  <path d="m218.25 414c0-49.283-15.144-89.235-33.826-89.235-18.681 0-33.826 39.952-33.826 89.235"/>
  <path d="m265.61 414c0-51.832-15.144-93.851-33.826-93.851-18.681 0-33.826 42.019-33.826 93.851"/>
 </g>
 <g fill="#a35b18">
  <path d="m55.891 300.15c0 16.994-10.601 30.771-23.678 30.771s-23.678-13.777-23.678-30.771 10.601-30.771 23.678-30.771c10.717 0 20.097 9.3542 22.871 22.807"/>
  <path d="m104.6 305.53c0 14.87-9.0866 26.924-20.295 26.924-11.209 0-20.295-12.054-20.295-26.924s9.0866-26.924 20.295-26.924c9.1858 0 17.226 8.185 19.604 19.956"/>
  <path d="m160.73 300.77c-3.7915 15.999-15.639 26.28-26.462 22.963-10.823-3.3165-16.523-18.974-12.731-34.973 3.7915-15.999 15.639-26.28 26.462-22.963 8.8694 2.7179 14.546 13.903 13.84 27.271"/>
  <path d="m215.34 303.8c2.0674 16.402-5.2512 31.164-16.347 32.972-11.096 1.8084-21.766-10.022-23.834-26.424-2.0674-16.402 5.2513-31.164 16.347-32.972 9.0929-1.482 18.19 6.249 22.18 18.849"/>
  <path d="m259.35 315.05c-6.687 14.722-20.181 21.914-30.14 16.065-9.9589-5.8491-12.611-22.525-5.9244-37.247 6.687-14.722 20.181-21.914 30.14-16.065 8.1614 4.7934 11.625 17.092 8.4436 29.987"/>
 </g>
 <path d="m382.86 430.58c0-53.532-15.144-96.928-33.826-96.928-18.681 0-33.826 43.396-33.826 96.928" fill="#088985"/>
 <g fill="#333">
  <path d="m432.93 430.58c0-50.983-15.144-92.312-33.826-92.312-18.681 0-33.826 41.33-33.826 92.312"/>
  <path d="m481.64 430.58c0-54.382-15.144-98.467-33.826-98.467-18.681 0-33.826 44.085-33.826 98.467"/>
  <path d="m528.99 430.58c0-49.283-15.144-89.235-33.826-89.235-18.681 0-33.826 39.952-33.826 89.235"/>
  <path d="m576.35 430.58c0-51.832-15.144-93.851-33.826-93.851-18.681 0-33.826 42.019-33.826 93.851"/>
 </g>
 <g fill="#a35b18">
  <path d="m370.63 313.73c0 16.994-10.601 30.771-23.678 30.771s-23.678-13.777-23.678-30.771 10.601-30.771 23.678-30.771c10.717 0 20.098 9.3542 22.871 22.807"/>
  <path d="m415.34 322.12c0 14.87-9.0866 26.924-20.295 26.924-11.209 0-20.295-12.054-20.295-26.924s9.0866-26.924 20.295-26.924c9.1858 0 17.226 8.185 19.604 19.956"/>
  <path d="m471.46 317.35c-3.7915 15.999-15.639 26.28-26.462 22.963-10.823-3.3165-16.523-18.974-12.731-34.973 3.7916-15.999 15.639-26.28 26.462-22.963 8.8694 2.7179 14.546 13.903 13.84 27.271"/>
  <path d="m526.08 320.38c2.0674 16.402-5.2513 31.164-16.347 32.972-11.096 1.8084-21.766-10.022-23.833-26.424-2.0674-16.402 5.2513-31.164 16.347-32.972 9.0928-1.482 18.19 6.2489 22.18 18.849"/>
  <path d="m570.08 322.63c-6.687 14.722-20.181 21.914-30.14 16.065-9.9589-5.8491-12.611-22.525-5.9244-37.247 6.687-14.722 20.181-21.914 30.14-16.065 8.1614 4.7934 11.625 17.092 8.4436 29.987"/>
 </g>
 <path d="m157.91 435.31c0-53.532-15.144-96.928-33.826-96.928-18.681 0-33.826 43.396-33.826 96.928" fill="#ddd177"/>
 <path d="m207.97 435.31c0-50.983-15.144-92.312-33.826-92.312-18.681 0-33.826 41.33-33.826 92.312" fill="#cecea3"/>
 <path d="m256.68 435.31c0-54.382-15.144-98.467-33.826-98.467-18.681 0-33.826 44.085-33.826 98.467" fill="#d89797"/>
 <path d="m304.03 435.31c0-49.283-15.144-89.235-33.826-89.235-18.681 0-33.826 39.952-33.826 89.235" fill="#031044"/>
 <path d="m351.39 435.31c0-51.832-15.144-93.851-33.826-93.851-18.681 0-33.826 42.019-33.826 93.851" fill="#775073"/>
 <g fill="#a35b18">
  <path d="m141.67 321.46c0 16.994-10.601 30.771-23.678 30.771s-23.678-13.777-23.678-30.771 10.601-30.771 23.678-30.771c10.717 0 20.097 9.3542 22.871 22.807"/>
  <path d="m190.38 326.84c0 14.87-9.0866 26.924-20.295 26.924-11.209 0-20.295-12.054-20.295-26.924s9.0866-26.924 20.295-26.924c9.1858 0 17.226 8.185 19.604 19.956"/>
  <path d="m246.51 322.08c-3.7915 15.999-15.639 26.28-26.461 22.963-10.823-3.3165-16.523-18.974-12.731-34.973 3.7915-15.999 15.639-26.28 26.462-22.963 8.8694 2.7179 14.546 13.903 13.84 27.271"/>
  <path d="m301.12 325.11c2.0674 16.402-5.2513 31.164-16.347 32.972-11.096 1.8084-21.766-10.022-23.833-26.424-2.0674-16.402 5.2513-31.164 16.347-32.972 9.0929-1.482 18.19 6.249 22.18 18.849"/>
  <path d="m350.12 338.36c-6.687 14.722-20.181 21.914-30.14 16.065-9.9589-5.8491-12.611-22.525-5.9244-37.247 6.687-14.722 20.181-21.914 30.14-16.065 8.1614 4.7934 11.625 17.092 8.4437 29.987"/>
 </g>
 <path d="m574.15 461c0-53.532 15.144-96.928 33.826-96.928 18.681 0 33.826 43.396 33.826 96.928" fill="#577a1c"/>
 <path d="m524.09 461c0-50.983 15.144-92.312 33.826-92.312 18.681 0 33.826 41.33 33.826 92.312" fill="#d35d5d"/>
 <path d="m475.38 461c0-54.382 15.144-98.467 33.826-98.467 18.681 0 33.826 44.085 33.826 98.467" fill="#87b500"/>
 <path d="m428.02 461c0-49.283 15.144-89.235 33.826-89.235 18.681 0 33.826 39.952 33.826 89.235" fill="#331e30"/>
 <path d="m380.67 461c0-51.832 15.144-93.851 33.826-93.851 18.681 0 33.826 42.019 33.826 93.851" fill="#738973"/>
 <g fill="#a35b18">
  <path d="m590.39 347.15c0 16.994 10.601 30.771 23.678 30.771s23.678-13.777 23.678-30.771-10.601-30.771-23.678-30.771c-10.717 0-20.097 9.3542-22.871 22.807"/>
  <path d="m541.68 352.54c0 14.87 9.0866 26.924 20.295 26.924 11.209 0 20.295-12.054 20.295-26.924s-9.0866-26.924-20.295-26.924c-9.1858 0-17.226 8.185-19.604 19.956"/>
  <path d="m485.55 347.77c3.7915 15.999 15.639 26.28 26.462 22.963 10.823-3.3165 16.523-18.974 12.731-34.973-3.7916-15.999-15.639-26.28-26.462-22.963-8.8694 2.7179-14.546 13.903-13.84 27.271"/>
  <path d="m430.93 350.8c-2.0674 16.402 5.2513 31.164 16.347 32.972 11.095 1.8084 21.766-10.022 23.833-26.424 2.0674-16.402-5.2512-31.164-16.347-32.972-9.0929-1.482-18.19 6.2489-22.18 18.849"/>
  <path d="m382.67 344.46c0 16.569 9.0866 30.002 20.295 30.002 11.209 0 20.295-13.432 20.295-30.002 0-16.569-9.0866-30.002-20.295-30.002-9.1858 0-17.226 9.1204-19.604 22.237"/>
 </g>
 <path d="m193.31 480.85c0-52.427 18.502-94.928 41.326-94.928s41.326 42.501 41.326 94.928" fill="#aff"/>
 <path d="m143.24 480.85c0-49.878 15.144-90.312 33.826-90.312 18.681 0 33.826 40.434 33.826 90.312" fill="#577a1c"/>
 <path d="m94.535 481.85c0-53.829 15.144-97.467 33.826-97.467 18.681 0 33.826 43.637 33.826 97.467" fill="#8e5163"/>
 <path d="m47.179 480.85c0-48.179 15.144-87.235 33.826-87.235 18.681 0 33.826 39.056 33.826 87.235" fill="#dbb448"/>
 <path d="m-2.1767 481.85c0-50.83 6.9553-83.767 27.167-84.895 20.212-1.1277 35.484 34.064 35.484 84.895" fill="#ff4300"/>
 <g fill="#a35b18">
  <path d="m209.54 369c0 16.994 10.601 30.771 23.678 30.771s23.678-13.776 23.678-30.771c0-16.994-10.601-30.771-23.678-30.771-10.717 0-20.097 9.3542-22.871 22.807"/>
  <path d="m160.83 374.38c0 14.87 9.0866 26.924 20.295 26.924 11.209 0 20.295-12.054 20.295-26.924s-9.0866-26.924-20.295-26.924c-9.1858 0-17.226 8.185-19.604 19.956"/>
  <path d="m104.71 369.62c3.7916 15.999 15.639 26.28 26.462 22.963 10.823-3.3165 16.523-18.974 12.731-34.973-3.7916-15.999-15.639-26.28-26.462-22.963-8.8694 2.7179-14.546 13.903-13.84 27.271"/>
  <path d="m50.091 372.65c-2.0674 16.402 5.2513 31.164 16.347 32.972 11.095 1.8084 21.766-10.022 23.833-26.424 2.0674-16.402-5.2513-31.164-16.347-32.972-9.0929-1.482-18.19 6.249-22.18 18.849"/>
  <path d="m7.0865 385.9c6.687 14.722 20.181 21.914 30.14 16.065 9.9589-5.8491 12.611-22.525 5.9244-37.247-6.687-14.722-20.181-21.914-30.14-16.065-8.1614 4.7934-11.625 17.093-8.4437 29.987"/>
 </g>
 <path d="m452.63 479.91c0-52.427 15.144-94.928 33.826-94.928 18.681 0 33.826 42.501 33.826 94.928" fill="#1c3304"/>
 <path d="m402.57 479.91c0-49.878 15.144-90.312 33.826-90.312 18.681 0 33.826 40.434 33.826 90.312" fill="#0b5c82"/>
 <path d="m353.86 479.91c0-53.277 15.144-96.467 33.826-96.467 18.681 0 33.826 43.19 33.826 96.467" fill="#dbb448"/>
 <path d="m306.5 479.91c0-48.179 15.144-87.235 33.826-87.235 18.681 0 33.826 39.057 33.826 87.235" fill="#5e3af2"/>
 <path d="m259.15 480.91c0-51.28 15.144-92.851 33.826-92.851 18.681 0 33.826 41.571 33.826 92.851" fill="#577a1c"/>
 <g fill="#a35b18">
  <path d="m468.87 368.06c0 16.994 10.601 30.771 23.678 30.771s23.678-13.776 23.678-30.771c0-16.994-10.601-30.771-23.678-30.771-10.717 0-20.097 9.3542-22.871 22.807"/>
  <path d="m420.16 373.45c0 14.87 9.0866 26.924 20.295 26.924 11.209 0 20.295-12.054 20.295-26.924s-9.0866-26.924-20.295-26.924c-9.1858 0-17.226 8.185-19.604 19.956"/>
  <path d="m364.03 368.68c3.7916 15.999 15.639 26.28 26.462 22.963 10.823-3.3165 16.523-18.974 12.731-34.973-3.7916-15.999-15.639-26.28-26.462-22.963-8.8694 2.7179-14.546 13.903-13.84 27.271"/>
  <path d="m309.41 371.71c-2.0674 16.402 5.2513 31.164 16.347 32.972 11.095 1.8084 21.766-10.022 23.833-26.424 2.0674-16.402-5.2513-31.164-16.347-32.972-9.0929-1.482-18.19 6.249-22.18 18.849"/>
  <path d="m267.41 385.96c6.687 14.722 20.181 21.914 30.14 16.065 9.9589-5.8491 12.611-22.525 5.9244-37.247-6.687-14.722-20.181-21.914-30.14-16.065-8.1614 4.7934-11.625 17.093-8.4437 29.987"/>
 </g>
 <path d="m576.85 479.91c0-54.382 15.144-98.467 33.826-98.467 18.681 0 33.826 44.085 33.826 98.467" fill="#8db8bc"/>
 <path d="m514.5 479.91c0-49.283 18.502-89.235 41.326-89.235 22.823 0 41.326 39.952 41.326 89.235" fill="#7c3860"/>
 <g fill="#a35b18">
  <path d="m587.02 366.68c3.7916 15.999 15.639 26.28 26.462 22.963 10.823-3.3165 16.523-18.974 12.731-34.973-3.7916-15.999-15.639-26.28-26.462-22.963-8.8694 2.7179-14.546 13.903-13.84 27.271"/>
  <path d="m532.41 369.71c-2.0674 16.402 5.2513 31.164 16.347 32.972 11.095 1.8084 21.766-10.022 23.833-26.424 2.0674-16.402-5.2513-31.164-16.347-32.972-9.0929-1.482-18.19 6.249-22.18 18.849"/>
 </g>
</svg>
