<?xml version="1.0" encoding="utf-8"?>
<!-- Generator: Adobe Illustrator 27.5.0, SVG Export Plug-In . SVG Version: 6.00 Build 0)  -->
<svg version="1.1" id="Capa_1" xmlns="http://www.w3.org/2000/svg" xmlns:xlink="http://www.w3.org/1999/xlink" x="0px" y="0px"
	 viewBox="0 0 1833 2456" style="enable-background:new 0 0 1833 2456;" xml:space="preserve">
<path style="fill:#1E110E;" d="M839.643,416.1c-1.998,0.327-4.68,0.326-7.429-0.983c-1.091-0.52-2.423-2.475-3.852-5.254h-0.009
	c2.205,25.14,17.667,32.231,25.004,34.194c-3.171-4.301-5.853-8.32-7.669-11.649C843.084,427.633,841.137,422.041,839.643,416.1z"/>
<path style="fill:#1E110E;" d="M984.905,424.301c-0.05,0.174-0.099,0.354-0.148,0.522l-0.078,0.277
	c-0.001,0.003-0.001,0.006-0.003,0.009c-0.193,0.65-0.385,1.247-0.576,1.801c-0.027,0.08-0.055,0.18-0.082,0.258
	c-2.434,6.896-9.354,16.848-17.273,26.586c0.003-0.001,0.006-0.001,0.007-0.002c16.818-3.857,23.635-18.917,26.418-30.246
	C989.996,425.012,986.945,424.769,984.905,424.301z"/>
<path style="fill:#212F42;" d="M1200.74,838.549c0,0-3.091-0.688-7.807-1.324c0.515,4.343,1.292,10.963,2.225,19.085
	c8.15-6.606,5.075-11.981,5.584-17.76H1200.74L1200.74,838.549z"/>
<path style="fill:#AB593D;" d="M1196.582,868.833c-6.809-0.482-15.38-0.652-19.802,0.992c-8.026,2.984-23.911,70.615-19.406,99.273
	c4.504,28.658,5.679,50.438,5.092,59.608c-0.497,7.742-24.542,50.942-32.022,64.213c0.037,2.672,0.057,5.398,0.055,8.165
	c14.854-13.763,30.683-29.27,41.121-39.709c21.207-21.207,23.499-34.723,28.084-46.186c4.585-11.463,3.439-10.317,6.806-24.072
	C1208.772,981.872,1201.559,913.025,1196.582,868.833z"/>
<path style="fill:#9E4B33;" d="M1196.147,864.972c-0.02-0.166-0.038-0.326-0.057-0.49c-0.106-0.939-0.206-1.81-0.307-2.692
	c0-0.001-0.001-0.001-0.001-0.001c0.02,0.167,0.038,0.326,0.058,0.5c-8.373-6.524-19.463-13.598-24.792-10.211
	c-9.171,5.828-43.187,42.579-42.801,47.703c0.387,5.124,13.633,108.579,16.18,112.447c1.566,2.378-13.354,20.735-25.094,34.54
	c2.305,2.638,4.488,5.153,6.453,7.2c3.032,3.158,4.384,19.453,4.657,38.95c7.479-13.271,31.525-56.471,32.022-64.213
	c0.588-9.17-0.588-30.95-5.092-59.608c-4.505-28.657,11.38-96.289,19.406-99.273c4.422-1.644,12.993-1.474,19.802-0.992
	c0.001,0,0.001,0,0.001,0c-0.069-0.606-0.133-1.191-0.202-1.788C1196.303,866.352,1196.224,865.65,1196.147,864.972z"/>
<path style="fill:#512423;" d="M1128.248,899.781c-0.386-5.125,33.63-41.875,42.801-47.703c5.329-3.387,16.419,3.686,24.792,10.211
	c-1.015-8.917-1.897-16.479-2.534-21.885c-0.019-0.154-0.037-0.311-0.054-0.461c-0.106-0.889-0.195-1.645-0.285-2.405
	c-0.012-0.099-0.025-0.216-0.037-0.313c-4.415-0.595-10.245-1.145-16.489-1.039c-0.234,0.004-0.474,0.025-0.708,0.03
	c-2.218,0.055-4.468,0.208-6.716,0.46c-2.642,0.296-5.25,0.762-7.786,1.41c-4.893,1.25-9.458,3.193-13.082,6.231
	c-1.285,1.077-2.676,2.181-4.11,3.292c-1.722,1.334-3.535,2.679-5.413,4.02c-2.058,1.469-4.179,2.919-6.344,4.339
	c-4.857,3.186-9.868,6.184-14.567,8.632c-4.284,2.231-8.262,3.972-11.652,5.05c1.542,7.4,3.292,15.613,5.175,24.307
	c1.027,4.747,2.092,9.626,3.175,14.567c1.084,4.941,2.188,9.945,3.295,14.944c9.41,42.49,19.082,84.604,19.082,84.604
	c-1.42,1.74-2.868,3.557-4.323,5.399c-0.052,0.066-0.101,0.126-0.154,0.192c-0.272,0.345-0.543,0.69-0.816,1.037
	c-1.424,1.815-2.858,3.661-4.295,5.537c-0.213,0.277-0.423,0.555-0.636,0.832c-1.368,1.792-2.737,3.6-4.099,5.416
	c-0.199,0.266-0.398,0.528-0.598,0.795c-1.484,1.984-2.958,3.973-4.412,5.952c-0.169,0.229-0.337,0.457-0.505,0.686
	c-0.043,0.058-0.084,0.114-0.126,0.172c-1.351,1.842-2.683,3.671-3.99,5.475c2.22,2.334,4.408,4.815,6.495,7.204
	c11.74-13.806,26.66-32.163,25.094-34.54C1141.881,1008.36,1128.635,904.905,1128.248,899.781z"/>
<path style="fill:#6381B8;" d="M1121.115,666.502c-0.496,20.054-17.062,95.573-15.2,125.262c1.861,29.689-4.983,64.815-4.983,64.815
	s16.19-41.506,22.559-66.743c6.367-25.237,8.144-96.105,9.708-103.534c1.005-4.768,28.22,47.358,47.48,85.739
	c-2.524-17.847-3.74-40.222-5.654-57.667c-2.713-24.736-1.035-53.832-6.359-71.135c-10.881-6.228-24.795-14.486-26.872-17.15
	C1138.322,621.632,1121.612,646.447,1121.115,666.502z"/>
<path style="fill:#48699C;" d="M1109.755,589.347c-0.258,10.148-19.739,117.338-28.195,154.078c0.189,2.498,0.322,3.985,0.322,3.985
	l37.198-99.476c0,0-16.029,71.915-18.257,97.399c-1.541,17.614-5.562,73.389-7.898,106.168c-0.161-1.321-0.319-2.693-0.474-4.092
	c0.166,1.506,0.336,2.988,0.51,4.404c1.082,8.815,2.276,15.632,3.505,17.539c0.547,0.847,1.505,1.309,2.795,1.441
	c0.939,0.096,2.104-0.035,3.365-0.266c1.055-0.193,2.199-0.483,3.44-0.878l0,0c3.39-1.078,7.368-2.819,11.652-5.05
	c4.698-2.448,9.71-5.446,14.567-8.632c2.165-1.42,4.285-2.87,6.344-4.339c1.878-1.341,3.692-2.685,5.413-4.02
	c1.434-1.111,2.826-2.215,4.11-3.292c3.623-3.038,8.189-4.981,13.082-6.231c2.535-0.648,5.143-1.115,7.786-1.41
	c2.248-0.252,4.498-0.405,6.716-0.46c0.234-0.006,0.474-0.026,0.708-0.03c6.244-0.106,12.074,0.444,16.489,1.039h0.002
	c4.716,0.637,7.807,1.324,7.807,1.324v-0.001c-0.002-0.003-6.599-27.084-14.014-41.995c-0.009-0.015-0.015-0.037-0.021-0.053
	c-0.598-1.209-1.144-2.627-1.665-4.142c-0.134-0.39-0.265-0.791-0.395-1.199c-0.482-1.518-0.942-3.122-1.362-4.876
	c-0.02-0.081-0.043-0.151-0.062-0.233c-0.462-1.954-0.888-4.058-1.289-6.253c-0.058-0.313-0.113-0.633-0.168-0.95
	c-0.385-2.182-0.749-4.441-1.083-6.804c0,0-0.001-0.001-0.001-0.002c-19.261-38.381-46.475-90.508-47.48-85.739
	c-1.564,7.429-3.341,78.297-9.708,103.534c-6.369,25.237-22.559,66.743-22.559,66.743s6.844-35.126,4.983-64.815
	c-1.862-29.689,14.704-105.208,15.2-125.262c0.496-20.055,17.207-44.87,20.679-40.413c2.077,2.664,15.991,10.922,26.872,17.15
	c0,0,0.002,0,0.002,0c-0.002-0.007-0.005-0.012-0.008-0.019c-0.586-1.907-1.238-3.709-2.01-5.306
	c-0.006-0.01-0.009-0.024-0.013-0.034c-1.465-3.015-3.965-6.553-7.135-10.33c-3.17-3.776-7.009-7.79-11.15-11.755
	c-2.6-2.489-5.323-4.951-8.069-7.331c-0.407-0.351-0.81-0.695-1.216-1.042c-2.69-2.296-5.395-4.507-8.028-6.545
	c-1.433-1.108-2.844-2.168-4.222-3.169c-2.757-2.003-5.375-3.772-7.749-5.221c-3.56-2.174-6.569-3.63-8.66-4.082
	c-0.21-0.045-0.457,0.038-0.677,0.025C1109.738,588.739,1109.763,589.009,1109.755,589.347z"/>
<path style="fill:#2D415E;" d="M1076.84,767.094c0.088,0.393,0.173,0.756,0.26,1.135c0.794,3.456,1.526,6.358,2.137,8.643
	c0.071,0.263,0.146,0.55,0.212,0.797c0.159,0.584,0.299,1.085,0.437,1.573c0.094,0.33,0.178,0.636,0.26,0.921
	c0.109,0.374,0.211,0.728,0.297,1.022c0.089,0.299,0.152,0.512,0.215,0.725c0.045,0.149,0.103,0.339,0.136,0.445
	c0.078,0.254,0.125,0.403,0.125,0.403l7.25,10.954c0,0,0.784,13.77,2.043,29.599l0,0c0.374,4.702,0.789,9.584,1.238,14.343
	c0,0.002,0.001,0.005,0.001,0.007c0.007,0.075,0.015,0.15,0.021,0.225c0,0.002,0,0.003,0,0.005c0.292,3.073,0.598,6.086,0.914,8.967
	c0,0.001,0,0.003,0,0.004c0.021,0.183,0.041,0.363,0.061,0.545c0.001,0.002,0,0.003,0.001,0.005
	c0.155,1.399,0.313,2.771,0.474,4.092c2.336-32.779,6.358-88.555,7.898-106.168c2.228-25.484,18.257-97.399,18.257-97.399
	l-37.198,99.476c0,0-0.133-1.487-0.322-3.985c-1.522,6.615-2.691,10.976-3.323,12.043c-0.615,1.038-1.418,3.618-2.345,7.256
	c0.064,0.301,0.124,0.587,0.188,0.883C1076.337,764.817,1076.59,765.986,1076.84,767.094z"/>
<path style="fill:#212F42;" d="M653.003,819.917c0.488,5.548,3.56,8.738,11.647,14.612c0.806-6.994,1.477-12.689,1.937-16.568
	C658.709,818.641,653.003,819.917,653.003,819.917z"/>
<path style="fill:#AB593D;" d="M712.22,1042.92c-7.715-14.616-14.904-29.227-15.173-33.423c-0.588-9.17,0.588-30.95,5.093-59.608
	c4.504-28.657-11.382-96.289-19.407-99.272c-4.422-1.645-12.992-1.475-19.804-0.992c-4.976,44.191-12.19,113.04-9.926,122.284
	c3.366,13.755,2.219,12.609,6.805,24.072c4.586,11.463,6.878,24.979,28.084,46.186c6.514,6.515,15.141,15.015,24.311,23.826
	c-0.195-9.527-0.279-16.407-0.279-18.518C711.924,1045.766,712.042,1044.299,712.22,1042.92z"/>
<path style="fill:#9E4B33;" d="M715.085,993.019c2.548-3.867,15.792-107.323,16.18-112.447c0.388-5.124-33.63-41.874-42.801-47.703
	c-5.328-3.388-16.419,3.686-24.792,10.21c0.028-0.254,0.055-0.484,0.083-0.724c-0.001,0.001-0.003,0.001-0.003,0.002
	c-0.084,0.747-0.167,1.474-0.255,2.247c-0.046,0.412-0.091,0.815-0.139,1.232c-0.073,0.649-0.15,1.317-0.225,1.979
	c-0.069,0.604-0.135,1.195-0.204,1.809c6.812-0.483,15.382-0.653,19.804,0.992c8.025,2.983,23.911,70.615,19.407,99.272
	c-4.505,28.658-5.681,50.438-5.093,59.608c0.269,4.196,7.458,18.807,15.173,33.423c0.836-6.433,3.744-9.896,10.27-15.698
	c2.617-2.326,8.319-3.1,14.766-3.114C726.118,1010.872,713.647,995.203,715.085,993.019z"/>
<path style="fill:#512423;" d="M742.528,1014.668c-0.159-0.216-0.316-0.43-0.475-0.646c-1.448-1.97-2.915-3.949-4.393-5.925
	c-0.217-0.291-0.433-0.576-0.65-0.867c-1.349-1.799-2.706-3.59-4.062-5.366c-0.213-0.279-0.424-0.559-0.638-0.837
	c-1.442-1.881-2.879-3.733-4.309-5.553c-0.254-0.323-0.506-0.644-0.758-0.964c-0.065-0.082-0.127-0.157-0.191-0.238
	c-1.459-1.846-2.909-3.666-4.332-5.409c0,0,8.567-37.305,17.421-77.118c2.766-12.441,5.561-25.128,8.131-36.997
	c1.113-5.135,2.176-10.095,3.183-14.838c0.065-2.614,0.115-5.255,0.158-7.922c-0.095-0.014-0.198-0.039-0.292-0.055
	c-1.915-0.33-4.164-1.015-6.665-1.995c-0.928-0.364-1.882-0.764-2.871-1.203c-3.035-1.349-6.298-2.993-9.682-4.894
	c-1.324-0.744-2.663-1.522-4.007-2.327c-2.157-1.292-4.318-2.663-6.456-4.062c-3.187-2.087-6.317-4.25-9.236-6.415
	c-2.438-1.809-4.735-3.612-6.812-5.353c-10.018-8.4-27.038-8.756-39.003-7.723c-0.636,5.371-1.676,14.217-2.916,25.119
	c8.372-6.524,19.464-13.598,24.792-10.21c9.171,5.828,43.189,42.579,42.801,47.703c-0.388,5.124-13.632,108.58-16.18,112.447
	c-1.438,2.183,11.033,17.852,22.171,31.089c4.112-0.01,8.501,0.287,12.628,0.712c-2.313-3.226-4.712-6.547-7.201-9.939
	C742.631,1014.809,742.58,1014.74,742.528,1014.668z"/>
<path style="fill:#6381B8;" d="M720.543,667.67c1.563,7.429,3.342,78.297,9.709,103.533c5.151,20.412,16.721,51.449,20.958,62.577
	c-0.144-1.879-0.304-3.748-0.543-5.566c-0.651-4.958-1.232-11.187-1.758-18.169c-0.66-6.677-1.178-14.017-1.338-21.473
	c-0.047-0.884-0.093-1.765-0.138-2.656c-0.306-6.038-0.584-12.221-0.835-18.35c-0.189-4.597-0.363-9.161-0.526-13.61
	c-0.162-4.449-0.312-8.781-0.45-12.912c-0.042-1.314-0.085-2.604-0.127-3.874c-4.247-33.728-12.519-75.203-12.869-89.302
	c-0.497-20.055-17.205-44.87-20.679-40.412c-2.077,2.664-15.99,10.922-26.872,17.149c-5.323,17.304-3.647,46.399-6.359,71.135
	c-1.913,17.446-3.129,39.822-5.654,57.669C692.323,715.03,719.539,662.902,720.543,667.67z"/>
<path style="fill:#48699C;" d="M732.627,647.87c0.349,14.099,8.622,55.573,12.869,89.302c-0.003-0.061-0.004-0.125-0.006-0.187
	c-0.087-2.658-0.169-5.214-0.247-7.643c-0.039-1.215-0.076-2.397-0.113-3.545c-0.183-5.739-0.34-10.602-0.475-14.197
	c-0.054-1.438-0.104-2.673-0.152-3.681c0-0.008-0.002-0.019-0.002-0.027c-0.025-0.546-0.062-1.215-0.103-1.941
	c-0.021-0.392-0.048-0.836-0.073-1.276c-0.02-0.351-0.041-0.705-0.063-1.086c-0.032-0.546-0.069-1.126-0.106-1.73
	c-0.031-0.477-0.062-0.973-0.095-1.484c-0.032-0.509-0.065-1.017-0.1-1.559c-0.072-1.115-0.147-2.269-0.23-3.513l0,0v0.002
	c-2.091-31.48-7.445-102.529-8.203-107.954c-0.733-5.229-1.574-11.123,0.821-14.453c-12.906,7.389-34.761,25.964-45.041,39.709
	c-1.79,2.391-3.225,4.634-4.202,6.643c-0.78,1.605-1.434,3.421-2.025,5.34c-0.001,0.007-0.004,0.012-0.007,0.018
	c0,0,0.002,0,0.002-0.001c10.882-6.227,24.795-14.486,26.872-17.149C715.422,603,732.131,627.815,732.627,647.87z"/>
<path style="fill:#48699C;" d="M666.588,817.961L666.588,817.961c11.965-1.033,28.985-0.677,39.003,7.723
	c2.077,1.741,4.374,3.544,6.812,5.353c2.919,2.166,6.049,4.329,9.236,6.415c2.139,1.399,4.299,2.77,6.456,4.062
	c1.344,0.804,2.683,1.582,4.007,2.327c3.384,1.901,6.647,3.546,9.682,4.894c0.989,0.439,1.943,0.839,2.871,1.203
	c2.501,0.981,4.75,1.666,6.665,1.995c0.094,0.016,0.197,0.04,0.292,0.055c0.089-5.744,0.08-11.543-0.297-17.14
	c-0.024-0.362-0.077-0.707-0.104-1.067c-4.237-11.128-15.807-42.164-20.958-62.577c-6.367-25.236-8.146-96.104-9.709-103.533
	c-1.004-4.768-28.22,47.36-47.481,85.741l0,0c-0.333,2.354-0.695,4.603-1.079,6.777c-0.058,0.33-0.115,0.663-0.175,0.988
	c-0.399,2.192-0.823,4.292-1.287,6.243c-0.018,0.08-0.041,0.149-0.061,0.229c-0.423,1.761-0.884,3.373-1.368,4.896
	c-0.127,0.397-0.253,0.787-0.383,1.166c-0.53,1.541-1.084,2.986-1.693,4.21c-5.884,11.832-11.241,31.282-13.208,38.83
	c-0.512,1.964-0.806,3.166-0.806,3.166s5.706-1.276,13.584-1.956C666.586,817.961,666.586,817.961,666.588,817.961z"/>
<path style="fill:#6381B8;" d="M939.992,592.387c1.83,6.862-12.903,22.798-15.288,25.32c0.09,0.343,0.178,0.677,0.274,1.052
	c0.218,0.841,0.458,1.77,0.71,2.757c0.121,0.475,0.241,0.945,0.37,1.451c0.282,1.108,0.581,2.288,0.892,3.538
	c0.117,0.464,0.232,0.926,0.351,1.407c0.353,1.418,0.719,2.902,1.1,4.464c0.096,0.398,0.193,0.803,0.293,1.211
	c0.406,1.681,0.823,3.416,1.252,5.229c0.086,0.365,0.172,0.737,0.259,1.107c0.455,1.932,0.915,3.912,1.382,5.959
	c0.049,0.214,0.099,0.433,0.147,0.647c0.466,2.049,0.933,4.145,1.402,6.28c0.051,0.229,0.101,0.451,0.151,0.681
	c0.481,2.197,0.958,4.436,1.428,6.694c0.068,0.328,0.137,0.649,0.206,0.978c0.457,2.208,0.905,4.435,1.345,6.67
	c0.076,0.385,0.152,0.767,0.227,1.153c0.43,2.208,0.844,4.418,1.246,6.623c0.074,0.414,0.151,0.824,0.224,1.237
	c0.395,2.206,0.773,4.398,1.13,6.571c0.062,0.382,0.124,0.76,0.184,1.141c0.353,2.183,0.682,4.34,0.983,6.459
	c0.05,0.349,0.096,0.693,0.146,1.041c0.296,2.141,0.567,4.244,0.8,6.29c0.031,0.272,0.058,0.537,0.088,0.807
	c0.233,2.096,0.434,4.142,0.588,6.103c0.013,0.155,0.02,0.301,0.031,0.456c0.155,2.047,0.27,4.025,0.325,5.888
	c0,0.001,0,0.001,0,0.002c0.175,6.003,0.789,19.487,1.678,37.521c-0.202-1.028-0.402-2.122-0.602-3.177
	c1.007,31.495,2.485,76.782,3.767,115.943c12.876,9.177,26.991,19.033,30.649,19.399c3.018,0.302,6.492,0.055,9.193-1.428
	c2.52-1.384,52.059-47.613,65.268-59.997c-7.469,5.519-35.051,11.29-43.202,11.042c-8.851-0.269-37.395-14.418-39.236-20.706
	c-0.99-3.381-0.88-24.376-0.567-43.074v-0.001c0.01-0.553,0.018-1.098,0.028-1.646c0.007-0.383,0.014-0.769,0.021-1.149
	c0.036-2.057,0.076-4.073,0.115-6.02c0.003-0.125,0.004-0.243,0.007-0.367c0.038-1.877,0.077-3.685,0.117-5.404
	c0.004-0.221,0.008-0.428,0.014-0.646c0.014-0.619,0.028-1.232,0.042-1.825c0.007-0.333,0.014-0.651,0.023-0.975
	c0.012-0.5,0.024-0.996,0.035-1.473c0.015-0.594,0.028-1.153,0.041-1.709c0.002-0.022,0.002-0.044,0.003-0.066
	c0.013-0.544,0.025-1.069,0.039-1.573c0.008-0.293,0.014-0.575,0.021-0.854c0.024-0.972,0.048-1.856,0.069-2.641
	c0.068-2.587,0.113-4.113,0.113-4.113c-0.786-5.543,2.434-10.167,2.434-10.167s92.677,3.526,95.81,4.835
	c3.132,1.308-0.381,26.99-0.571,30.473c-0.035,0.631-1.197,1.503-3.041,2.504c-0.088,0.585-0.18,1.204-0.278,1.857
	c-0.056,0.364-0.106,0.705-0.164,1.089c-0.176,1.164-0.362,2.399-0.565,3.717c-0.02,0.122-0.039,0.25-0.059,0.374
	c-0.13,0.84-0.259,1.689-0.399,2.578c-0.002,0.001-0.002,0.001-0.003,0.002c-2.585,16.509-6.72,40.697-9.343,44.528
	c5.651-5.309,11.998-19.532,17.724-35.242c-0.025,0.128-0.052,0.263-0.078,0.392c1.659-8.336,3.231-15.698,4.55-20.875
	c0.926-3.637,1.73-6.217,2.345-7.256c0.632-1.067,1.801-5.428,3.323-12.043c8.456-36.741,27.937-143.93,28.195-154.078
	c0.008-0.338-0.017-0.608-0.024-0.916c-0.221-10.623-9.123-4.255-13.688-13.211c-4.254-8.341-92.522-46.432-109.223-53.581
	c-9.042,11.558-39.588,49.5-49.289,60.626C938.436,585.835,939.245,589.587,939.992,592.387z"/>
<path style="fill:#6381B8;" d="M735.529,587.35c0.758,5.425,6.112,76.474,8.203,107.954c0.006,0.042,12.332,102.219,19.292,152.05
	c15.393,11.731,58.473,44.544,64.635,49.043c0.865,0.632,2.238,0.323,2.95-0.381c7.976-7.868,31.439-24.949,53.387-37.069
	c3.019-85.37,7.38-206.805,8.02-214.5c0.56-6.716,3.323-15.949,5.546-23.097c0.247-0.794,0.486-1.563,0.717-2.3
	c0.423-1.356,0.804-2.586,1.133-3.685c-3.047-2.302-6.063-5.017-8.113-7.681c-3.025-3.932-3.851-15.427-4.038-23.849
	c-8.246-9.094-45.528-55.46-52.179-64.131c-36.306,19.353-93.248,49.682-96.623,51.33c-0.916,0.448-1.568,1.112-2.108,1.864
	C733.955,576.227,734.795,582.121,735.529,587.35z"/>
<path style="fill:#0C1115;" d="M1078.006,2267.933c-34.836-4.696-65.361-52.756-65.361-52.756s14.089,38.667,22.308,46.885
	c8.217,8.219,19.591,22.307,19.591,22.307s-14.895-1.174-26.637-11.741c-11.741-10.567-21.658-54.008-29.613-64.574
	c-7.957-10.567-16.176-32.22-5.609-37.831c10.567-5.611,44.615,0,44.615,0s2.384-8.659,7.036-15.771l-8.618-12.905
	c-2.665-0.255-5.346-0.417-7.945-0.417c-6.878,0-19.589,3.77-31.478,7.903l-32.275,34.361c-0.67,38.092,2.246,100.974,2.246,100.974
	l20.549,4.697v-17.611l11.479,16.437l23.743,23.481c0,0,46.963,5.87,55.969,4.697c9.005-1.174,50.872-8.218,64.961-11.741
	c14.089-3.522,1.175-19.96,0-30.526s-9.392-15.263-9.392-15.263c-0.006-0.005-0.011-0.009-0.017-0.013
	c0.005,0.004,0.011,0.009,0.017,0.013C1133.576,2258.541,1112.842,2272.63,1078.006,2267.933z"/>
<path style="fill:#141C2A;" d="M1055.51,2171.185l-11.173-16.731c-4.651,7.111-7.036,15.771-7.036,15.771s-34.049-5.611-44.615,0
	c-10.567,5.61-2.348,27.264,5.609,37.831c7.955,10.567,17.871,54.008,29.613,64.574c11.741,10.567,26.637,11.741,26.637,11.741
	s-11.374-14.089-19.591-22.307c-8.219-8.218-22.308-46.885-22.308-46.885s30.525,48.06,65.361,52.756
	c34.835,4.697,55.569-9.393,55.569-9.393c-0.006-0.004-0.011-0.009-0.017-0.013c-2.701-1.902-5.354-3.917-7.977-5.99
	c-0.31-0.246-0.624-0.482-0.933-0.73c-2.482-1.986-4.919-4.05-7.323-6.161c-0.415-0.364-0.829-0.724-1.241-1.091
	c-2.343-2.088-4.647-4.226-6.909-6.406c-0.416-0.4-0.826-0.801-1.238-1.204c-2.259-2.206-4.484-4.443-6.655-6.712
	c-0.331-0.346-0.653-0.694-0.981-1.041c-2.242-2.365-4.446-4.749-6.584-7.151c-0.107-0.121-0.209-0.241-0.316-0.362
	c-2.104-2.37-4.149-4.75-6.145-7.128c-0.262-0.313-0.53-0.624-0.791-0.937c-1.939-2.323-3.813-4.64-5.643-6.944
	c-0.354-0.446-0.709-0.889-1.059-1.333c-1.77-2.25-3.486-4.48-5.147-6.683c-0.333-0.442-0.658-0.877-0.987-1.316
	c-1.647-2.202-3.244-4.377-4.773-6.504c-0.272-0.379-0.531-0.746-0.799-1.122c-1.554-2.175-3.061-4.317-4.481-6.383
	c-0.125-0.182-0.24-0.352-0.364-0.532c-1.388-2.026-2.707-3.987-3.962-5.879c-0.159-0.24-0.325-0.485-0.482-0.723
	c-1.155-1.75-2.225-3.406-3.257-5.017L1055.51,2171.185z"/>
<path style="fill:#2A384C;" d="M1017.341,2183.399l-9.392,9.393c0,0,51.819,55.489,70.058,65.749
	c18.238,10.26,35.609-5.87,35.609-5.87s-24.255,1.174-35.609-5.871C1066.652,2239.756,1017.341,2183.399,1017.341,2183.399z"/>
<path style="fill:#2F3D4D;" d="M1012.399,1989.676c-13.004-51.073-52.734-119.757-52.734-119.757l39.322,220.14l-28.66,29.939
	c0,0,31.363,25.598,25.972,29.032l-0.004,0.004c11.889-4.133,24.6-7.903,31.478-7.903c2.599,0,5.28,0.162,7.945,0.417l8.618,12.905
	l11.173,16.731l0.001-0.006c0.018-0.07,6.672-26.731,8.295-33.074c0.002-0.008-0.003-0.013-0.001-0.02
	c2.078-7.456,4.746-19.279,5.555-32.913c-19.153-4.066-52.187-9.827-52.187-9.827S1025.403,2040.748,1012.399,1989.676z"/>
<path style="fill:#2F3D4D;" d="M1072.954,1485.995c-10.568,35.223-65.162,188.142-65.162,188.142s0-142.352,7.926-149.396
	c7.924-7.045,81.925-238.339,81.925-238.339s-6.356-14.686-13.97-30.717c-36.217,12.386-154.475,53.244-151.546,57.721
	c3.458,5.283,117.968-18.712,117.968-18.712l19.319,20.472l-137.286,7.045c0,0,104.037,26.417,107.462,31.7s0,22.895,0,22.895
	s-44.872-29.939-53.304-28.178c-8.432,1.761,10.512,28.178-0.722,24.656c-11.232-3.522-53.436-14.089-53.436-14.089l-8.282,83.034
	c6.389,90.506,12.42,192.42,8.282,205.79c-0.316,1.021-0.497,2.157-0.773,3.212c14.034,37.791,39.32,107.028,38.972,114.37
	c-0.481,10.154,23.376,102.558,23.376,95.514c0-7.044,14.089-95.514,14.089-95.514s52.834-149.282,53.395-154.565
	c0.254-2.376,5.149-9.384,9.983-17.495c-0.058,0.397-0.109,0.748-0.164,1.127c1.557-10.719,4.154-28.338,7.369-49.098
	c-0.056,0.369-0.115,0.747-0.172,1.114C1077.637,1514.854,1081.212,1458.464,1072.954,1485.995z"/>
<path style="fill:#2F3D4D;" d="M799.541,1866.397c-15.411,19.372-40.261,42.267-40.261,42.267s49.505-10.567,58.311-21.133
	c8.805-10.567,47.961-56.356,47.961-56.356c0.357-3.73,0.24-9.465-0.193-16.23C849.184,1825.642,811.523,1851.337,799.541,1866.397z
	"/>
<path style="fill:#2F3D4D;" d="M782.186,1732.552c5.465,3.522,24.564,63.401,24.564,63.401s-27.656-139.129-28.661-147.935
	c-1.002-8.806,24.09-24.656,46.766-45.789c22.676-21.133,33.149-52.833,33.149-52.833l37.853-166.261l-2.967-52.945
	c0,0-94.795,6.218-100.016,0c-5.223-6.218,41.667-23.83,41.667-23.83l44.689,8.806l-76.219-45.789l-10.136-19.372l86.356,45.789
	l-82.331-63.4l-53.808,24.545c0.866-2.983,1.719-5.928,2.562-8.838l0,0c-4.973,17.16-10.51,36.224-14.388,49.455
	c-4.799,16.377-5.991,101.788-8.371,185.608c4.974,20.761,11.876,45.73,20.838,69.755
	C764.757,1609.273,776.72,1729.03,782.186,1732.552z"/>
<path style="fill:#2F3D4D;" d="M907.816,1286.401l-28.586-46.964v-50.49c-7.42,0.24-14.955,0.564-22.326,0.964l-28.643,38.959
	L907.816,1286.401z"/>
<path style="fill:#2F3D4D;" d="M892.889,1242.96c9.235,14.089,25.886,43.441,25.886,43.441s46.584-39.919,50.189-45.202
	c2.212-3.243,16.323-15.076,26.903-23.742c-3.033-7.867-7.998-20.081-10.305-22.046c-3.443-2.933-28.257-6.459-53.473-6.997
	c-8.028-0.172-21.02-0.176-35.803,0.102C893.985,1196.423,884.747,1230.537,892.889,1242.96z"/>
<path style="fill:#2F3D4D;" d="M1063.41,1218.399l15.513,17.051l1.076-0.493c-7.803-9.794-14.873-17.502-18.811-19
	C1061.846,1216.511,1062.598,1217.355,1063.41,1218.399z"/>
<path style="fill:#2F3D4D;" d="M743.732,2084.776c0,0,0.11-234.229,0-276.496c-0.109-42.267-21.391-117.995-22.198-123.278
	c-0.388-2.543-6.074-15.283-11.87-27.816c-12.34,52.876-16.646,72.499-8.309,84.172c7.683,10.754,17.312,36.238,19.647,42.573
	c-0.141-0.384-0.3-0.816-0.494-1.331c0.64,1.16,1.024,2.122,1.025,2.786c0,0,0.206,4.052,0.541,11.083
	c-0.151-3.145-0.277-5.76-0.368-7.601C723.762,1822.992,743.732,2084.776,743.732,2084.776z"/>
<path style="fill:#2F3D4D;" d="M932.092,1302.838l142.55-65.423c-4.196-8.082-8.203-15.127-11.232-19.016l-2.222-2.442v-0.001
	c-8.245-3.135-23.991,12.541-33.569,23.327l-8.035,9.548c0,0-58.511,20.546-66.851,25.83
	C944.391,1279.943,932.092,1302.838,932.092,1302.838z"/>
<path style="fill:#1D2533;" d="M1061.187,1611.035c-0.561,5.283-53.395,154.565-53.395,154.565s-14.089,88.469-14.089,95.514
	c0,7.044-23.857-85.36-23.376-95.514c0.348-7.342-24.939-76.579-38.972-114.37c-0.02-0.052-0.041-0.109-0.061-0.161
	c-0.229,0.866-0.351,1.82-0.555,2.708c-0.442,1.945-0.882,3.894-1.211,5.93c-0.2,1.24-0.34,2.519-0.501,3.788
	c-0.273,2.156-0.545,4.313-0.714,6.536c-0.093,1.238-0.131,2.499-0.196,3.753c-0.117,2.313-0.237,4.626-0.262,6.977
	c-0.013,1.224,0.023,2.453,0.031,3.684c0.018,2.405,0.034,4.81,0.127,7.222c0.048,1.219,0.136,2.423,0.201,3.64
	c0.127,2.411,0.25,4.825,0.436,7.209c0.098,1.261,0.227,2.481,0.338,3.73c0.204,2.301,0.402,4.615,0.643,6.859
	c0.147,1.382,0.316,2.686,0.474,4.04c0.237,2.035,0.467,4.103,0.719,6.062c0.162,1.264,0.329,2.419,0.493,3.646
	c0.26,1.92,0.516,3.886,0.774,5.7c1.965,13.869,4.869,38.883,7.869,71.279c0.665,7.2,1.337,14.764,2.005,22.65
	c1.667,19.718,3.306,41.457,4.774,64.572c0.44,6.934,0.909,14.411,1.391,22.282c0.321,5.247,0.649,10.671,0.975,16.226
	c0.494,8.333,0.99,16.963,1.476,25.745c0.325,5.855,0.643,11.776,0.954,17.721c0.308,5.945,0.61,11.913,0.898,17.863
	c0.288,5.949,0.561,11.878,0.818,17.744c0.256,5.866,0.495,11.669,0.712,17.365c0.217,5.696,0.41,11.285,0.579,16.725
	c0.505,16.318,0.773,31.286,0.688,43.731c-0.043,6.222-0.174,11.814-0.408,16.628c-0.389,8.024-1.064,13.889-2.092,16.915
	c-0.392,1.155-0.685,2.409-0.913,3.724c-3.588,20.752,12.198,59.676,12.198,59.676l0.003-0.003l32.275-34.361l0.004-0.004
	c5.39-3.434-25.972-29.032-25.972-29.032l28.66-29.939l-39.322-220.14c0,0,39.73,68.684,52.734,119.757
	c13.004,51.072,4.774,105.667,4.774,105.667s33.033,5.761,52.187,9.827c0.004,0.001,0.009,0.002,0.013,0.003
	c0.014-0.245,0.011-0.505,0.024-0.751c0.102-1.857,0.161-3.747,0.185-5.66c0.007-0.572,0.016-1.14,0.016-1.716
	c-0.003-2.302-0.047-4.628-0.183-6.987c0.053,0.918,0.039,1.809,0.071,2.719c-10.486-5.238-25.7-12.812-30.482-15.046
	c-7.533-3.522,5.772-28.177,11.093-68.684c5.32-40.506-14.125-146.174-16.46-162.024c-2.336-15.85,14.663-75.728,28.664-112.712
	c7.41-19.572,11.931-51.466,14.549-77.166c0.44,3.904,0.856,7.887,1.234,11.894c-3.05-32.43-8.667-63.29-8.667-63.29
	s0.633-4.492,1.757-12.211C1066.337,1601.651,1061.441,1608.659,1061.187,1611.035z"/>
<path style="fill:#1D2533;" d="M1116.708,1286.401c0,0-20.032-30.507-36.709-51.445l-1.076,0.493l-15.513-17.051
	c3.029,3.889,7.036,10.934,11.232,19.016l-142.55,65.423c0,0,12.299-22.895,20.64-28.178c8.34-5.284,66.851-25.83,66.851-25.83
	l-21.184-24.656c0,0-1.033-2.839-2.531-6.718c-10.579,8.666-24.691,20.499-26.903,23.742c-3.606,5.283-50.189,45.202-50.189,45.202
	s-16.651-29.352-25.886-43.441c-8.143-12.422,1.096-46.536,3.398-54.444c-5.496,0.103-11.225,0.243-17.058,0.432v50.49
	l28.586,46.964l-79.555-57.53l28.643-38.959c-20.206,1.097-39.008,2.834-49.518,5.5c-25.469,6.459-26.191,34.634-29.296,38.156
	c-2.647,3.001-25.665,11.944-32.437,14.533c-0.843,2.91-1.696,5.855-2.562,8.838l53.808-24.545l82.331,63.4l-86.356-45.789
	l10.136,19.372l76.219,45.789l-44.689-8.806c0,0-46.89,17.611-41.667,23.83c5.221,6.218,100.016,0,100.016,0l2.967,52.945
	l-37.853,166.261c0,0-10.474,31.7-33.149,52.833c-22.675,21.134-47.768,36.984-46.766,45.789
	c1.005,8.806,28.661,147.935,28.661,147.935s-19.099-59.879-24.564-63.401c-5.465-3.522-17.429-123.278-38.454-179.634
	c-8.962-24.025-15.864-48.994-20.838-69.755c-0.002,0-0.002-0.002-0.002-0.002c-0.241,8.507-0.496,16.994-0.767,25.393
	c-0.01,0.28-0.018,0.559-0.027,0.839c-0.13,4.005-0.264,7.988-0.404,11.943c-0.011,0.328-0.023,0.654-0.034,0.981
	c-0.139,3.906-0.28,7.783-0.426,11.622c-0.015,0.386-0.031,0.768-0.045,1.153c-0.307,7.929-0.634,15.699-0.988,23.237
	c-0.007,0.157-0.014,0.317-0.021,0.473c-0.172,3.64-0.352,7.216-0.535,10.739c-0.021,0.392-0.041,0.788-0.062,1.178
	c-0.179,3.381-0.364,6.697-0.557,9.954c-0.03,0.491-0.058,0.981-0.088,1.469c-0.192,3.192-0.389,6.321-0.593,9.378
	c-0.033,0.474-0.065,0.939-0.098,1.409c-0.213,3.103-0.43,6.144-0.657,9.09c-0.018,0.234-0.038,0.458-0.055,0.691
	c-0.237,3.023-0.479,5.965-0.733,8.804c-0.009,0.098-0.017,0.202-0.025,0.3c-0.25,2.788-0.51,5.459-0.779,8.052
	c-0.036,0.355-0.072,0.717-0.109,1.068c-0.258,2.456-0.527,4.806-0.804,7.069c-0.048,0.396-0.097,0.792-0.145,1.182
	c-0.279,2.22-0.565,4.343-0.863,6.356c-0.048,0.326-0.096,0.642-0.146,0.962c-0.306,2.02-0.619,3.946-0.946,5.736
	c-0.036,0.206-0.076,0.394-0.113,0.597c-0.345,1.852-0.699,3.601-1.069,5.182c-0.74,3.171-1.449,6.209-2.14,9.167c0,0,0,0,0,0.001
	c5.795,12.533,11.482,25.273,11.87,27.816c0.806,5.283,22.089,81.011,22.198,123.278c0.11,42.267,0,276.496,0,276.496
	s-19.97-261.785-22.024-295.909c0.091,1.842,0.217,4.457,0.368,7.601c0.008,0.155,0.014,0.311,0.021,0.469
	c0.261,5.492,0.598,12.721,0.977,21.273c0.021,0.452,0.039,0.877,0.061,1.336c0.199,4.484,0.408,9.297,0.625,14.393
	c0,0.012,0,0.024,0,0.035c0.107,2.519,0.215,5.109,0.324,7.753c0.02,0.464,0.039,0.945,0.058,1.413
	c0.086,2.073,0.171,4.165,0.256,6.306c0.038,0.939,0.076,1.902,0.114,2.853c0.076,1.911,0.153,3.832,0.229,5.787
	c0.036,0.938,0.073,1.889,0.109,2.836c0.069,1.797,0.138,3.6,0.207,5.427c0.045,1.206,0.09,2.423,0.135,3.642
	c0.065,1.76,0.13,3.528,0.195,5.311c0.042,1.161,0.084,2.325,0.125,3.494c0.065,1.826,0.13,3.659,0.193,5.502
	c0.043,1.243,0.087,2.486,0.129,3.736c0.058,1.728,0.115,3.461,0.172,5.198c0.045,1.334,0.089,2.667,0.133,4.005
	c0.061,1.885,0.118,3.772,0.177,5.662c0.034,1.125,0.07,2.248,0.104,3.374c0.062,2.083,0.122,4.164,0.183,6.247
	c0.028,1.027,0.06,2.054,0.089,3.079c0.083,2.938,0.162,5.869,0.237,8.79c0.003,0.101,0.006,0.203,0.009,0.304
	c0.077,3.037,0.152,6.058,0.221,9.062c0.023,1.007,0.042,1.999,0.065,3.001c0.045,2.006,0.088,4.012,0.129,5.995
	c0.021,1.076,0.039,2.133,0.06,3.201c0.036,1.88,0.07,3.757,0.101,5.611c0.02,1.138,0.035,2.257,0.052,3.383
	c0.027,1.729,0.052,3.452,0.075,5.151c0.014,1.194,0.028,2.371,0.041,3.548c0.017,1.562,0.034,3.114,0.047,4.645
	c0.011,1.244,0.02,2.472,0.027,3.694c0.01,1.467,0.016,2.914,0.021,4.347c0.004,1.161,0.007,2.314,0.008,3.451
	c0,1.45-0.001,2.87-0.006,4.278c-0.002,1.084-0.005,2.167-0.011,3.225c-0.009,1.391-0.021,2.74-0.034,4.084
	c-0.01,0.993-0.02,1.995-0.032,2.962c-0.018,1.383-0.044,2.708-0.069,4.033c-0.016,0.858-0.03,1.739-0.048,2.571
	c-0.033,1.409-0.073,2.741-0.114,4.072c-0.021,0.67-0.038,1.379-0.061,2.029c-0.068,1.935-0.144,3.79-0.232,5.533
	c-0.55,10.896-1.291,20.493-2.154,29.034c-3.74,37.007-9.735,54.179-12.034,71.349c-2.3,17.171,11.201,32.017,16.344,36.98
	c1.187,1.145,1.929,1.764,1.929,1.764s29.538-31.7,42.082-22.894c12.544,8.805,33.403,49.311,33.403,49.311l3.045,22.894
	c0,0,0.494-0.388,1.33-1.073c4.866-3.978,21.777-18.311,26.477-29.097c0.096-0.219,0.136-0.421,0.222-0.637
	c-4.863-4.492-9.819-10.065-13.792-16.767c-12.051-20.335-47.271-61.461-47.271-61.461s19.698-38.899,30.625-60.033
	c10.928-21.134,27.817-93.34,32.757-125.04c3.097-19.875,14.558-40.439,22.68-53.017c1.219-9.837,2.115-17.163,2.524-20.789
	c0.094-0.837,0.163-1.482,0.206-1.923c0,0-39.156,45.789-47.961,56.356c-8.806,10.566-58.311,21.133-58.311,21.133
	s24.85-22.895,40.261-42.267c11.982-15.061,49.642-40.755,65.818-51.452c0.001,0,0.003-0.002,0.004-0.003
	c-0.011-0.182-0.031-0.39-0.044-0.573c-0.131-1.985-0.289-4.058-0.472-6.196c-0.028-0.341-0.054-0.672-0.085-1.016
	c-0.208-2.374-0.443-4.817-0.703-7.309c-0.029-0.276-0.061-0.554-0.09-0.831c-0.236-2.227-0.493-4.486-0.762-6.757
	c-0.059-0.493-0.116-0.978-0.175-1.472c-0.303-2.495-0.62-4.997-0.953-7.48c-0.041-0.306-0.083-0.604-0.125-0.909
	c-0.294-2.176-0.601-4.327-0.913-6.448c-0.086-0.593-0.172-1.177-0.26-1.763c-0.353-2.355-0.712-4.672-1.076-6.894
	c-0.032-0.198-0.066-0.38-0.098-0.578c-0.336-2.026-0.672-3.964-1.01-5.831c-0.096-0.533-0.192-1.054-0.288-1.573
	c-0.367-1.983-0.735-3.898-1.094-5.626c-2.203-10.567-0.896-31.26,1.349-54.375c0.563-5.779,1.182-11.709,1.82-17.67
	c0.319-2.981,0.643-5.969,0.967-8.95c1.617-14.905,3.226-29.626,4.199-42.284c1.166-15.19,2.392-29.884,3.837-44.362
	c2.411-24.129,5.439-47.657,9.841-71.872c0.196-1.079,0.412-2.3,0.637-3.587c0.072-0.411,0.147-0.844,0.222-1.275
	c0.165-0.949,0.337-1.946,0.515-2.99c0.086-0.51,0.17-1.003,0.26-1.536c0.25-1.476,0.509-3.024,0.78-4.66
	c0.076-0.462,0.159-0.962,0.237-1.436c0.21-1.264,0.423-2.56,0.643-3.907c0.12-0.732,0.243-1.477,0.365-2.232
	c0.216-1.326,0.437-2.691,0.663-4.086c0.109-0.668,0.213-1.313,0.323-1.995c0.304-1.889,0.616-3.834,0.935-5.831
	c0.17-1.063,0.345-2.161,0.519-3.253c0.172-1.081,0.344-2.167,0.52-3.274c0.192-1.212,0.386-2.433,0.581-3.674
	c0.169-1.063,0.34-2.147,0.51-3.23c0.401-2.547,0.81-5.144,1.224-7.792c0.115-0.735,0.228-1.459,0.345-2.201
	c0.247-1.575,0.495-3.172,0.746-4.777c0.118-0.767,0.239-1.535,0.36-2.308c2.36-15.16,4.869-31.456,7.331-47.568v0
	c0.031-0.207,0.062-0.412,0.094-0.619c0.411-2.68,0.817-5.352,1.223-8.015c0.121-0.797,0.243-1.59,0.364-2.385
	c0.434-2.842,0.863-5.666,1.29-8.469c0.08-0.532,0.159-1.054,0.24-1.584c0.337-2.211,0.669-4.406,1-6.583
	c0.177-1.165,0.352-2.325,0.528-3.478c0.174-1.149,0.345-2.28,0.518-3.416c0.34-2.246,0.677-4.47,1.008-6.66
	c0.286-1.887,0.567-3.748,0.844-5.587c0.158-1.037,0.31-2.053,0.466-3.074c0.214-1.43,0.426-2.825,0.637-4.22
	c0.215-1.421,0.426-2.832,0.635-4.214c0.319-2.11,0.629-4.167,0.93-6.176c0.051-0.334,0.101-0.662,0.15-0.993
	c0.358-2.369,0.708-4.69,1.039-6.898v0v0c2.959-19.676,4.891-32.636,4.891-32.636v0.006c0.011,0.133,5.304,64.122,10.534,137.495
	c0.003,0.04,0.006,0.08,0.009,0.12c0.166,2.34,0.334,4.689,0.501,7.047c0,0.003,0,0.007,0,0.01l8.282-83.038
	c0,0,42.204,10.567,53.436,14.089c11.234,3.522-7.71-22.895,0.722-24.656c8.432-1.761,53.304,28.178,53.304,28.178
	s3.425-17.611,0-22.895s-107.462-31.7-107.462-31.7l137.286-7.045l-19.319-20.472c0,0-114.51,23.994-117.968,18.712
	c-2.929-4.477,115.328-45.335,151.546-57.721c7.614,16.031,13.97,30.717,13.97,30.717s-74.001,231.294-81.925,238.339
	c-7.926,7.044-7.926,149.396-7.926,149.396s54.594-152.919,65.162-188.142c8.258-27.53,4.683,28.86,5.249,60.689
	c0.057-0.367,0.116-0.745,0.172-1.114c0.04-0.255,0.082-0.515,0.121-0.771c0.416-2.687,0.84-5.417,1.276-8.197
	c0.007-0.04,0.013-0.08,0.02-0.121c0.438-2.797,0.886-5.64,1.342-8.514c0.061-0.377,0.12-0.757,0.181-1.135
	c0.898-5.657,1.827-11.435,2.781-17.284c0.082-0.506,0.164-1.011,0.247-1.517c0.467-2.847,0.934-5.705,1.411-8.572
	c0.062-0.378,0.126-0.757,0.189-1.135c0.451-2.71,0.904-5.422,1.362-8.136c0.058-0.344,0.115-0.687,0.173-1.031
	c0.488-2.889,0.98-5.772,1.475-8.65c0.086-0.498,0.172-0.995,0.258-1.493c1.004-5.818,2.019-11.587,3.038-17.255
	c0.093-0.521,0.188-1.041,0.281-1.56c0.505-2.792,1.01-5.561,1.514-8.291c0.044-0.236,0.087-0.468,0.131-0.704
	c0.477-2.567,0.952-5.097,1.428-7.595c0.082-0.438,0.166-0.88,0.25-1.316c0.494-2.582,0.986-5.119,1.476-7.611
	c0.094-0.468,0.185-0.929,0.277-1.394c0.461-2.322,0.919-4.604,1.376-6.832c0.052-0.254,0.104-0.515,0.155-0.766
	c0.488-2.369,0.97-4.663,1.453-6.909c0.102-0.474,0.203-0.944,0.303-1.412c0.482-2.23,0.961-4.413,1.434-6.503
	c0.036-0.159,0.072-0.308,0.108-0.467c0.443-1.946,0.881-3.812,1.316-5.621c0.099-0.412,0.197-0.828,0.294-1.231
	c0.453-1.862,0.9-3.648,1.341-5.343c0.078-0.303,0.156-0.589,0.235-0.886c0.402-1.522,0.798-2.973,1.189-4.344
	c0.066-0.236,0.136-0.488,0.202-0.719c0.424-1.472,0.842-2.83,1.252-4.104c0.091-0.281,0.18-0.549,0.269-0.819
	c0.418-1.258,0.828-2.447,1.227-3.481c0.434-1.127,0.847-2.374,1.242-3.718c0.141-0.477,0.266-1.028,0.402-1.53
	c0.247-0.916,0.496-1.819,0.727-2.818c0.15-0.647,0.285-1.363,0.429-2.043c0.199-0.946,0.4-1.876,0.588-2.884
	c0.142-0.765,0.272-1.591,0.407-2.39c0.172-1.015,0.347-2.018,0.508-3.085c0.13-0.855,0.248-1.757,0.371-2.645
	c0.15-1.088,0.3-2.17,0.441-3.303c0.118-0.953,0.227-1.945,0.339-2.928c0.128-1.138,0.257-2.273,0.377-3.449
	c0.106-1.036,0.204-2.102,0.303-3.167c0.11-1.189,0.22-2.38,0.323-3.603c0.093-1.116,0.182-2.254,0.268-3.395
	c0.093-1.225,0.185-2.455,0.271-3.708c0.08-1.179,0.158-2.373,0.233-3.575c0.079-1.273,0.155-2.553,0.227-3.849
	c0.069-1.222,0.134-2.452,0.196-3.691c0.066-1.322,0.13-2.65,0.189-3.991c0.055-1.252,0.11-2.508,0.159-3.775
	c0.055-1.351,0.103-2.709,0.151-4.076c0.047-1.298,0.09-2.599,0.131-3.909c0.041-1.336,0.078-2.679,0.114-4.025
	c0.035-1.364,0.07-2.727,0.103-4.098c0.03-1.343,0.057-2.688,0.082-4.036c0.026-1.357,0.052-2.713,0.073-4.073
	c0.022-1.384,0.038-2.768,0.056-4.154c0.016-1.353,0.034-2.706,0.047-4.058c0.013-1.349,0.02-2.693,0.029-4.04
	c0.009-1.385,0.018-2.772,0.024-4.154c0.001-0.216,0.003-0.433,0.004-0.648l-0.003-0.003l-0.038-0.042
	C1117.435,1283.596,1116.708,1286.401,1116.708,1286.401z"/>
<path style="fill:#843732;" d="M956.246,472.754c-4.192,3.144-16.013,19.387-27.918,24.103c-11.904,4.716-33.386,5.239-33.386,5.239
	s14.307,28.56,17.894,27.379c2.666-0.877,17.994-9.065,25.706-13.22l22.003-29.902c-0.308-4.397-0.739-9.524-1.156-14.207
	C958.338,471.886,957.26,471.994,956.246,472.754z"/>
<path style="fill:#6B2928;" d="M895.988,531.377c0,0-0.176,3.181-0.507,7.934c13.497,6.669,26.016,4.452,32.609,2.339
	c-0.441-6.039-0.676-10.273-0.676-10.273l11.128-15.122c-7.711,4.155-23.04,12.344-25.706,13.22
	c-3.587,1.181-17.894-27.379-17.894-27.379s21.483-0.524,33.386-5.239c11.904-4.716,23.726-20.959,27.918-24.103
	c1.014-0.76,2.091-0.868,3.143-0.609l0,0c-0.006-0.065-0.011-0.124-0.017-0.188c-0.289-3.254-0.568-6.24-0.794-8.618
	c-6.268,7.04-12.45,13.332-16.997,17.371c-2.885,2.562-5.114,4.226-6.293,4.619c-0.502,0.167-1.15,0.321-1.862,0.467
	c-0.114,0.023-0.236,0.046-0.355,0.068c-0.716,0.138-1.509,0.266-2.387,0.383c-0.006,0.001-0.01,0.002-0.016,0.002l0,0
	c-8.659,1.15-24.395,1.242-33.359-0.409l0,0l0,0c-0.849-0.156-1.653-0.323-2.366-0.511c-0.622-0.164-1.324-0.449-2.094-0.843
	c-1.541-0.788-3.357-2.015-5.369-3.585c-1.005-0.785-2.06-1.656-3.155-2.602c-5.939-5.135-13.007-12.47-19.611-20.111h-0.017
	l0.85,31.821L895.988,531.377z"/>
<path style="fill:#BAB1B1;" d="M931.1,571.281c-1.38-9.272-2.397-21.222-3.01-29.631c-6.593,2.113-19.112,4.33-32.609-2.339
	c-0.616,8.844-1.785,23.21-3.429,33.531c2.43-0.679,5.216-1.399,6.902-1.64C902.207,570.737,925.244,571.575,931.1,571.281z"/>
<path style="fill:#48699C;" d="M840.143,952.375c0,0-55.133,6.164-62.177,9.686s-22.896,11.447-6.165,14.97
	c16.731,3.522,93.751,3.522,93.751,3.522s-18.902,5.283-39.156,13.208c-20.253,7.925-38.745,29.939-38.745,34.342
	c0,4.403,21.134,13.209,32.581,16.731c11.447,3.522,66.923,9.135,66.923,9.135s0.125,0.013,0.199,0.021
	c2.715-0.073,5.452-0.139,8.2-0.195V955.84l-14.482-13.689c0,0,1.258-36.122,2.923-83.205
	c-21.948,12.121-45.411,29.201-53.387,37.069c-0.712,0.704-2.086,1.013-2.95,0.381c-6.162-4.498-49.241-37.312-64.635-49.043
	c2.127,15.224,3.758,25.62,4.375,26.65C770.04,878.408,840.143,952.375,840.143,952.375z"/>
<path style="fill:#48699C;" d="M917.386,976.475l-16.959-16.03v93.261c10.402-0.173,20.617-0.238,29.228-0.256v-89.998
	L917.386,976.475z"/>
<path style="fill:#48699C;" d="M934.525,958.281v95.163c0.89,0,1.753,0,2.593,0c2.662-3.95,5.386-6.829,5.386-6.829l39.373-1.673
	c3.961-4.203,8.088-7.693,11.826-8.033c9.685-0.881,65.161-24.656,65.161-28.179c0-3.522,1.763-20.253-5.281-17.611
	c-7.046,2.642-75.729,2.642-81.013,0c-5.283-2.642,5.418-17.612,13.716-18.492c8.298-0.881,58.302-4.403,57.955-10.567
	c-0.345-6.164,8.273-16.73,0-14.969c-8.271,1.761-92.805,17.611-92.805,17.611s20.254-15.851,40.507-29.94
	c20.252-14.089,40.505-21.133,47.55-29.939c7.044-8.806,3.334-29.939,4.749-34.342c1.416-4.402-18.838-18.492-18.838-18.492
	l37.154-20.935c-0.079,0.445-0.154,0.864-0.231,1.3c0.74-4.159,1.552-8.714,2.411-13.479c0.017-0.098,0.034-0.196,0.053-0.294
	c0.591-3.281,1.202-6.654,1.826-10.055c0.002-0.01,0.005-0.021,0.006-0.031c0.297-1.624,0.598-3.254,0.9-4.883
	c0.032-0.18,0.066-0.359,0.1-0.539c0.293-1.591,0.591-3.18,0.887-4.761c0.013-0.071,0.027-0.142,0.041-0.213
	c0.631-3.365,1.266-6.69,1.892-9.914c0.026-0.125,0.049-0.248,0.073-0.374c0.279-1.428,0.554-2.833,0.829-4.215
	c0.026-0.128,0.053-0.264,0.078-0.392c-5.726,15.71-12.073,29.934-17.724,35.242c-0.318,0.466-0.864,0.937-1.504,1.411
	c-13.209,12.384-62.748,58.613-65.268,59.997c-2.702,1.484-6.176,1.73-9.193,1.428c-3.659-0.366-17.773-10.222-30.649-19.399
	c1.443,44.018,2.638,80.263,2.638,80.263L934.525,958.281z"/>
<path style="fill:#374E72;" d="M895.554,955.84v97.954c1.625-0.032,3.25-0.061,4.872-0.088v-93.261L895.554,955.84z"/>
<path style="fill:#374E72;" d="M929.654,963.452v89.998c1.695-0.004,3.312-0.005,4.871-0.006v-95.163L929.654,963.452z"/>
<path style="fill:#2D415E;" d="M836.974,1066.069c0.912,0.024,1.865,0.04,2.792,0.061c0.217-4.333,0.385-6.912,0.385-6.912
	c0.174-3.121,22.488-4.566,47.203-5.229c-0.073-0.007-0.199-0.021-0.199-0.021s-55.475-5.613-66.923-9.135
	c-11.447-3.522-32.581-12.328-32.581-16.731c0-4.403,18.492-26.417,38.745-34.342c20.254-7.925,39.156-13.208,39.156-13.208
	s-77.02,0-93.751-3.522c-16.731-3.522-0.88-11.447,6.165-14.97s62.177-9.686,62.177-9.686s-70.103-73.967-72.744-78.37
	c-0.617-1.03-2.249-11.427-4.375-26.65c-6.959-49.831-19.286-152.008-19.292-152.05v-0.002l0,0c0.083,1.244,0.158,2.397,0.23,3.513
	c0.036,0.546,0.068,1.047,0.1,1.559c0.032,0.512,0.064,1.007,0.095,1.484c0.036,0.607,0.072,1.183,0.106,1.73
	c0.022,0.381,0.044,0.735,0.063,1.086c0.025,0.437,0.052,0.889,0.073,1.276c0.041,0.726,0.077,1.395,0.103,1.941
	c0,0.008,0.002,0.02,0.002,0.027c0.048,1.007,0.098,2.243,0.152,3.681c0.136,3.595,0.292,8.459,0.475,14.197
	c0.036,1.148,0.073,2.33,0.113,3.545c0.078,2.429,0.159,4.985,0.247,7.643c0.002,0.062,0.003,0.126,0.006,0.187
	c0.042,1.271,0.085,2.56,0.127,3.874c0.138,4.131,0.288,8.463,0.45,12.912c0.162,4.448,0.337,9.013,0.526,13.61
	c0.251,6.128,0.529,12.312,0.835,18.35c0.045,0.891,0.091,1.772,0.138,2.656c0.397,7.579,0.842,14.866,1.338,21.473
	c0.526,6.982,1.107,13.211,1.758,18.169c0.239,1.817,0.399,3.687,0.543,5.566c0.027,0.36,0.08,0.706,0.104,1.067
	c0.378,5.597,0.386,11.396,0.297,17.14c-0.042,2.667-0.093,5.308-0.158,7.922c-0.184,7.601-0.357,14.881,0.094,21.139
	c0.602,8.385,4.429,33.805,7.503,59.362c0.622,5.163,1.204,10.316,1.732,15.351c0.052,0.504,0.113,1.021,0.163,1.521
	c0.054,0.517,0.096,1.008,0.147,1.522c0.17,1.686,0.33,3.352,0.482,4.996c0.049,0.522,0.107,1.069,0.154,1.586
	c0.018,0.201,0.03,0.384,0.048,0.583c0.182,2.063,0.345,4.07,0.494,6.037c0.052,0.694,0.1,1.376,0.148,2.056
	c0.135,1.937,0.255,3.828,0.348,5.636c0.012,0.206,0.027,0.427,0.037,0.631c0.097,1.967,0.155,3.813,0.193,5.594
	c0.012,0.478,0.018,0.946,0.024,1.409c0.021,1.769,0.024,3.472-0.025,5.005c-0.013,0.382-0.066,1.063-0.152,1.963
	c-0.002,0.023-0.003,0.038-0.006,0.062c-0.483,5.052-2.015,17.493-3.811,31.608c4.45,0.664,7.491,1.25,7.491,1.25
	c11.101,1.761,31.259,36.022,31.259,36.022c7.615,1.281,18.647,2.095,31.568,2.579c1.804,0.068,3.651,0.128,5.525,0.182
	C835.573,1066.026,836.261,1066.05,836.974,1066.069z"/>
<path style="fill:#2D415E;" d="M1072.868,1006.306c-0.591-1.747-1.24-3.742-1.927-5.964c-0.345-1.111-0.699-2.279-1.062-3.502
	c-0.725-2.445-1.48-5.107-2.252-7.964c-0.771-2.858-1.559-5.911-2.345-9.139c-1.177-4.843-2.352-10.079-3.467-15.637
	c-2.602-12.97-4.878-27.696-6.114-43.276c-0.176-2.226-0.332-4.469-0.464-6.727c-0.264-4.516-0.434-9.092-0.497-13.705
	c-0.211-16.146,0.923-32.761,4.123-48.941c0.062-0.313,0.135-0.696,0.208-1.077c0.031-0.169,0.061-0.316,0.095-0.498
	c0.07-0.374,0.151-0.8,0.23-1.226c0.057-0.309,0.116-0.624,0.177-0.96c0.078-0.424,0.158-0.866,0.243-1.331
	c0.091-0.492,0.187-1.02,0.284-1.556c0.055-0.302,0.107-0.592,0.163-0.907c0.168-0.929,0.343-1.903,0.527-2.938
	c0.065-0.358,0.133-0.737,0.199-1.107c0.155-0.875,0.316-1.772,0.482-2.709c0.052-0.292,0.107-0.597,0.16-0.895
	c0.223-1.252,0.453-2.547,0.693-3.89c0.077-0.436,0.152-0.855,0.231-1.3l-37.154,20.935c0,0,20.253,14.089,18.838,18.492
	c-1.414,4.403,2.296,25.536-4.749,34.342c-7.045,8.806-27.298,15.85-47.55,29.939c-20.253,14.089-40.507,29.94-40.507,29.94
	s84.534-15.851,92.805-17.611c8.273-1.761-0.345,8.806,0,14.969c0.347,6.164-49.657,9.686-57.955,10.567
	c-8.298,0.88-19,15.85-13.716,18.492c5.284,2.642,73.967,2.642,81.013,0c7.044-2.642,5.281,14.089,5.281,17.611
	c0,3.522-55.475,27.298-65.161,28.179c-3.738,0.339-7.865,3.83-11.826,8.033l23.273-0.989l11.682-2.42
	c17.845-4.07,44.272-8.484,62.172-10.854c-0.616-6.727-1.574-13.579-3.03-16.262
	C1075.468,1013.486,1074.346,1010.672,1072.868,1006.306z"/>
<path style="fill:#5170A1;" d="M854.76,773.254c-3.088,1.839-49.94,21.76-56.424,19.41c-5.063-1.835-25.29-13.003-34.407-18.598
	c2.584,16.509,6.721,40.698,9.344,44.529c4.035,5.895,35.855,12.722,44.706,12.453c8.851-0.27,37.396-14.418,39.238-20.706
	c1.404-4.797,0.595-45.044,0.131-63.875c0.137,5.56,0.303,12.971,0.434,20.8C856.712,770.369,855.65,772.724,854.76,773.254z"/>
<path style="fill:#38547A;" d="M849.232,766.717c-5.896,3.144-54.172,9.735-54.99,9.584c-0.67-0.124-23.438-7.33-31.78-11.851
	c0.068,0.456,0.139,0.922,0.211,1.418c0.089,0.591,0.178,1.188,0.277,1.832c0.132,0.88,0.275,1.81,0.423,2.777
	c0.092,0.598,0.189,1.227,0.286,1.853c0.09,0.577,0.176,1.136,0.269,1.734c0,0.001,0.002,0.001,0.002,0.001
	c9.117,5.595,29.344,16.762,34.407,18.598c6.485,2.35,53.336-17.571,56.424-19.41c0.889-0.53,1.952-2.885,3.022-5.987
	c-0.131-7.829-0.297-15.24-0.434-20.8c-0.009-0.338-0.017-0.664-0.024-0.988c-0.008-0.29-0.014-0.573-0.022-0.851
	c-0.009-0.36-0.017-0.713-0.025-1.052c-0.025-0.977-0.049-1.868-0.07-2.656c-0.017-0.62-0.031-1.188-0.045-1.677
	c-0.013-0.48-0.024-0.874-0.034-1.218c-0.021-0.772-0.033-1.219-0.033-1.219C856.305,742.349,855.126,763.572,849.232,766.717z"/>
<path style="fill:#81A1D3;" d="M758.849,731.474c-3.131,1.308,0.382,26.99,0.571,30.473c0.035,0.631,1.197,1.504,3.041,2.504
	c8.342,4.52,31.11,11.726,31.78,11.851c0.818,0.151,49.095-6.44,54.99-9.584c5.895-3.145,7.074-24.367,7.861-29.911
	c0.785-5.543-2.433-10.166-2.433-10.166S761.982,730.166,758.849,731.474z"/>
<path style="fill:#5170A1;" d="M1053.696,818.451c2.623-3.831,6.758-28.019,9.343-44.528c-9.119,5.594-29.344,16.762-34.407,18.597
	c-6.485,2.35-53.336-17.57-56.423-19.409c-0.891-0.531-1.953-2.884-3.023-5.987c-0.313,18.698-0.423,39.693,0.567,43.074
	c1.841,6.288,30.385,20.437,39.236,20.706c8.151,0.248,35.733-5.523,43.202-11.042
	C1052.832,819.388,1053.378,818.916,1053.696,818.451z"/>
<path style="fill:#38547A;" d="M1028.632,792.519c5.063-1.835,25.288-13.003,34.407-18.597c0.001-0.001,0.001-0.001,0.003-0.002
	c0.14-0.889,0.269-1.738,0.399-2.578c0.02-0.122,0.039-0.253,0.059-0.374c0.203-1.318,0.389-2.553,0.565-3.717
	c0.058-0.378,0.11-0.73,0.164-1.089c0.098-0.653,0.19-1.272,0.278-1.857c-8.34,4.52-31.109,11.726-31.78,11.85
	c-0.818,0.151-49.095-6.44-54.99-9.584c-5.896-3.144-7.074-24.367-7.861-29.911c0,0-0.045,1.526-0.113,4.113
	c-0.021,0.784-0.045,1.67-0.069,2.641c-0.007,0.278-0.014,0.561-0.021,0.854c-0.014,0.509-0.027,1.024-0.039,1.573
	c-0.001,0.022-0.001,0.044-0.003,0.066c-0.013,0.547-0.026,1.125-0.041,1.709c-0.011,0.477-0.024,0.973-0.035,1.473
	c-0.007,0.324-0.016,0.642-0.023,0.975c-0.014,0.593-0.028,1.206-0.042,1.825c-0.006,0.216-0.01,0.426-0.014,0.646
	c-0.04,1.719-0.079,3.527-0.117,5.404c-0.003,0.124-0.006,0.242-0.007,0.367c-0.04,1.946-0.079,3.963-0.115,6.02
	c-0.008,0.38-0.015,0.766-0.021,1.149c-0.01,0.549-0.018,1.093-0.028,1.646v0.001c1.07,3.103,2.132,5.456,3.023,5.987
	C975.296,774.949,1022.148,794.869,1028.632,792.519z"/>
<path style="fill:#81A1D3;" d="M977.737,766.572c5.895,3.144,54.172,9.735,54.99,9.584c0.671-0.124,23.44-7.33,31.78-11.85
	c1.844-1,3.006-1.873,3.041-2.504c0.19-3.484,3.703-29.165,0.571-30.473c-3.133-1.308-95.81-4.835-95.81-4.835
	s-3.219,4.624-2.434,10.167C970.662,742.205,971.841,763.428,977.737,766.572z"/>
<path style="fill:#C5C2BE;" d="M773.347,708.752c0,0-1.761,12.516,0,12.516c1.761,0,67.627,0.986,66.796-2.536
	c-0.832-3.522,0-12.328,0-12.328L773.347,708.752z"/>
<path style="fill:#0C1115;" d="M1087.964,1183.98c-3.369,0.729-6.854,1.444-10.412,2.139c-7.115,1.388-14.513,2.693-21.825,3.861
	c-5.484,0.876-10.918,1.675-16.145,2.375c-3.484,0.467-6.878,0.889-10.132,1.261c-4.881,0.558-9.451,1.001-13.552,1.307
	c-1.368,0.102-2.682,0.19-3.939,0.26c-6.283,0.355-11.119,0.309-13.777-0.241c-1.063-0.22-2.04-0.521-2.937-0.892
	c-1.795-0.742-3.27-1.762-4.478-2.974c-1.21-1.212-2.152-2.615-2.882-4.122c-4.017-8.291-1.599-19.723-1.599-19.723l-8.432-9.687
	c-3.071,0.333-6.218,0.605-9.393,0.851c0,0.003,0,0.009-0.002,0.013c-0.183,0.014-0.381,0.015-0.565,0.029
	c-4.224,0.32-8.522,0.574-12.889,0.755c-0.606,2.831-1.35,4.762-2.273,5.397c-8.27,5.691-85.83,2.642-102.56,0
	c-3.154-0.498-5.473-4.561-7.164-10.816c-0.507-0.057-1.008-0.114-1.507-0.172c-0.285-0.033-0.554-0.065-0.837-0.098
	c-2.136-0.247-4.205-0.493-6.216-0.737c-0.285-0.034-0.599-0.069-0.881-0.104c0-0.001,0-0.002,0-0.003
	c-20.768-2.538-34.372-4.802-34.372-4.802l-4.98,25.536c0,0-0.158,0.151-0.454,0.425c-2.079,1.914-10.978,9.811-20.414,13.664
	c-6.405,2.616-21.883-0.682-34.703-5.076c1.678,4.262,3.591,9.141,5.089,13.003c3.414,8.804,9.918,19.371,9.918,19.371
	s-9.174,33.767-7.998,33.318l0,0c6.772-2.589,29.791-11.532,32.437-14.533c3.105-3.522,3.827-31.697,29.296-38.156
	c10.51-2.665,29.312-4.403,49.518-5.5c7.371-0.4,14.906-0.724,22.326-0.964c5.833-0.188,11.562-0.329,17.058-0.432
	c14.783-0.278,27.774-0.273,35.803-0.102c25.216,0.538,50.03,4.064,53.473,6.997c2.307,1.965,7.271,14.179,10.305,22.046
	c1.497,3.879,2.531,6.718,2.531,6.718l21.184,24.656c0,0,3.267-4.177,8.035-9.548c9.578-10.786,25.324-26.462,33.569-23.327v0.001
	l0,0c3.938,1.497,11.008,9.205,18.811,19c16.677,20.938,36.709,51.445,36.709,51.445s0.728-2.805,1.827-7.413
	c0.013-0.053,0.025-0.107,0.038-0.161c4.449-18.659,14.928-66.652,9.35-83.416c-2.314-6.954-4.189-14.573-5.674-21.67
	C1116.219,1177.029,1103.333,1180.651,1087.964,1183.98z"/>
<path style="fill:#0C1115;" d="M981.878,1044.942l-39.373,1.673c0,0-2.724,2.878-5.386,6.829c8.92,0.004,14.948,0.043,15.613,0.009
	c0.597-0.031,1.289,4.267,1.945,11.125c0.572-0.021,1.15-0.042,1.712-0.062c1.049-0.039,2.081-0.076,3.09-0.114
	c0.855-0.031,1.692-0.063,2.516-0.095c0.959-0.036,1.909-0.073,2.825-0.109c0.801-0.031,1.574-0.061,2.338-0.092
	c0.874-0.035,1.748-0.069,2.575-0.103c10.85-0.438,17.525-0.76,17.525-0.76s3.804-9.604,10.849-15.769
	c0.322-0.281,0.852-0.58,1.477-0.889c0.098-0.049,0.19-0.095,0.296-0.144c0.68-0.317,1.486-0.645,2.445-0.985
	c0.001-0.001,0.003-0.001,0.003-0.001l0,0c3.399-1.206,8.459-2.545,14.506-3.924l-11.682,2.42L981.878,1044.942z"/>
<path style="fill:#211F28;" d="M718.527,1145.217c2.643,7.045,2.203,17.171,6.605,18.052c4.404,0.88,37.424,5.126,44.469,4.544
	c7.044-0.581,22.772-27.439,23.274-31.402c0.502-3.963,0.061-32.223,4.024-30.2c3.962,2.023,2.297,41.647,2.297,41.647
	s13.603,2.264,34.372,4.802c-0.559-14.905,1.098-78.667,0.314-81.411c-0.397-1.394-2.87-3.507-5.62-5.462
	c0.351,0.014,0.731,0.022,1.084,0.035c-12.921-0.484-23.953-1.298-31.568-2.579c0,0-20.158-34.261-31.259-36.022
	c0,0-3.041-0.587-7.491-1.25c-0.107-0.016-0.208-0.032-0.319-0.048c-2.579-0.38-5.595-0.773-8.814-1.104
	c-0.003-0.001-0.006-0.001-0.01-0.001c-4.127-0.425-8.516-0.721-12.628-0.712c-6.446,0.014-12.148,0.788-14.766,3.114
	c-6.527,5.801-9.434,9.264-10.27,15.698c-0.178,1.379-0.296,2.846-0.296,4.555c0,2.111,0.085,8.99,0.279,18.518
	c0.138,6.82,0.334,14.996,0.598,23.758c1.574-3.255,4.876-5.518,8.733-5.518c4.494,0,8.24,3.063,9.357,7.205
	c0.977,1.517,1.559,3.313,1.559,5.251c0,5.374-4.355,9.73-9.729,9.73c-4.494,0-8.24-3.063-9.357-7.205
	c-0.104-0.162-0.181-0.341-0.276-0.509c0.351,10.315,0.792,21.028,1.341,31.045c0.013,0.002,42.41,8.129,41.673,4.02
	c-0.737-4.109-1.79-93.188,1.552-100.344c3.34-7.156,9.779-3.622,15.908,0.229c4.427,2.78,12.508,16.471,16.671,23.885
	c1.616,0.513,2.641,0.859,2.641,0.859l4.024,34.01c0,0-25.217,14.768-34.349,20.247c-0.452,14.748-1.677,27.032-4.995,28.158
	c-8.646,2.934-43.112-11.06-43.125-11.065c0.205,3.745,0.424,7.377,0.66,10.861C715.759,1140.389,716.922,1140.938,718.527,1145.217
	z"/>
<path style="fill:#211F28;" d="M1007.909,1043.752c-2.143,0.589-4.052,1.161-5.583,1.705c1.943,6.289,3.298,13.982,3.706,18.209
	c0.88,9.145,0,98.283,0,104.148c0,5.865,5.283,9.984,11.142,10.865c5.857,0.881,5.589-100.384,2.749-108.309
	C1017.953,1064.873,1011.61,1051.459,1007.909,1043.752z"/>
<path style="fill:#211F28;" d="M1028.926,1069.489c0.881,5.283-6.164,105.668-5.283,111.832c0.88,6.164,39.625-3.522,45.772-6.163
	c6.146-2.642-2.624-108.31-4.034-111.491c-0.98-2.212-11.016-18.524-17.047-28.27c-10.578,1.818-21.108,3.828-29.861,5.78
	C1023.153,1051.384,1028.373,1066.17,1028.926,1069.489z"/>
<path style="fill:#211F28;" d="M1130.444,1092.918c-0.273-19.497-1.625-35.792-4.657-38.95c-1.965-2.047-4.148-4.563-6.453-7.2
	c-2.087-2.389-4.275-4.869-6.495-7.204c0,0,0-0.001-0.001-0.001c-5.209-5.481-10.585-10.116-15.229-10.581
	c-2.226-0.223-9.251,0.458-18.605,1.696c-5.978,0.791-12.938,1.824-20.182,2.982c4.776,8.933,13.729,25.909,15.011,30.004
	c1.761,5.623,0,107.969,6.165,111.491c6.163,3.522,20.252-0.881,36.103-7.344c6.268-2.556,9.804-6.069,11.822-9.388
	c1.489-13.909,2.564-36.583,2.576-57.342C1130.5,1098.316,1130.481,1095.591,1130.444,1092.918z"/>
<path style="fill:#211F28;" d="M970.327,1063.981c-1.588,1.041-3.052,2.945-3.831,6.389c-2.003,8.848,4.941,71.48,1.964,88.027
	c3.175-0.246,6.322-0.518,9.393-0.851l8.432,9.687l0.971-103.988c0,0-6.675,0.322-17.525,0.76
	C969.924,1063.996,970.138,1063.988,970.327,1063.981z"/>
<path style="fill:#100F13;" d="M966.496,1070.37c0.779-3.444,2.243-5.348,3.831-6.389c-0.189,0.007-0.403,0.016-0.595,0.023
	c-0.826,0.033-1.7,0.068-2.575,0.103c-0.767,0.031-1.534,0.061-2.338,0.092c-0.917,0.036-1.867,0.072-2.825,0.109
	c-0.826,0.032-1.659,0.063-2.516,0.095c-1.01,0.038-2.042,0.075-3.09,0.114c-0.573,0.021-1.128,0.042-1.712,0.062
	c2.239,23.383,4.062,76.96,0.349,94.521c4.329-0.181,8.678-0.343,12.868-0.661c0.185-0.014,0.382-0.015,0.565-0.029
	c0.002-0.004,0.002-0.009,0.002-0.013C971.437,1141.85,964.492,1079.218,966.496,1070.37z"/>
<path style="fill:#100F13;" d="M839.766,1066.13c-0.926-0.021-1.88-0.037-2.792-0.061c-0.714-0.019-1.402-0.042-2.105-0.063
	c-1.874-0.055-3.721-0.115-5.525-0.182c-0.353-0.013-0.733-0.021-1.084-0.035c2.75,1.956,5.223,4.068,5.62,5.462
	c0.784,2.744-0.873,66.506-0.314,81.411c0,0.001,0,0.002,0,0.003c0.282,0.035,0.597,0.07,0.881,0.104
	c2.01,0.244,4.079,0.49,6.216,0.737c0.283,0.033,0.553,0.065,0.837,0.098c0.488,0.056,1.014,0.112,1.506,0.167
	C837.152,1132.093,838.873,1084.039,839.766,1066.13z"/>
<path style="fill:#343135;" d="M954.676,1064.578C954.676,1064.577,954.676,1064.577,954.676,1064.578
	c-0.656-6.859-1.348-11.156-1.945-11.126c-0.665,0.034-6.693-0.005-15.613-0.009c-0.84,0-1.703,0-2.593,0
	c-1.559,0.001-3.176,0.002-4.871,0.006c-8.611,0.019-18.826,0.083-29.228,0.256c-1.622,0.027-3.247,0.056-4.872,0.088
	c-2.748,0.055-5.485,0.121-8.2,0.195c-24.715,0.662-47.029,2.108-47.203,5.229c0,0-0.167,2.579-0.385,6.912
	c-0.893,17.909-2.615,65.964,3.24,87.641c0,0.002,0.002,0.003,0.002,0.004c1.69,6.255,4.01,10.317,7.164,10.816
	c16.73,2.642,94.29,5.691,102.56,0c0.922-0.635,1.667-2.566,2.273-5.397c0.008-0.032,0.014-0.062,0.021-0.094
	C958.738,1141.538,956.915,1087.961,954.676,1064.578z"/>
<path style="fill:#68636C;" d="M853.694,1076.534c10.567-5.283,86.295-7.925,86.295-7.925l11.446,85.414
	c0,0-0.604-81.503-4.695-90.779c-4.093-9.275-93.208-2.896-100.09,0c-6.884,2.897-4.705,84.046-1.182,90.21
	C845.468,1153.453,843.128,1081.817,853.694,1076.534z"/>
<path style="fill:#100F13;" d="M1116.101,1167.813c-15.851,6.463-29.94,10.865-36.103,7.344
	c-6.165-3.522-4.403-105.868-6.165-111.491c-1.281-4.096-10.239-21.079-15.015-30.011c-3.45,0.552-6.964,1.134-10.488,1.739
	c6.032,9.746,16.068,26.06,17.048,28.272c1.41,3.182,10.18,108.85,4.034,111.491c-6.146,2.641-44.892,12.328-45.772,6.163
	c-0.88-6.163,6.165-106.548,5.283-111.832c-0.553-3.32-5.777-18.119-10.46-28.326c-3.965,0.883-7.524,1.751-10.559,2.584
	c3.701,7.706,10.046,21.125,12.016,26.623c2.84,7.925,3.108,109.19-2.749,108.309c-5.859-0.881-11.142-5-11.142-10.865
	c0-5.865,0.88-95.003,0-104.148c-0.408-4.226-1.763-11.92-3.706-18.209l0,0c0,0-0.002,0-0.003,0.001
	c-0.957,0.34-1.76,0.668-2.445,0.985c-0.106,0.048-0.198,0.095-0.296,0.144c-0.631,0.308-1.155,0.608-1.477,0.889
	c-7.044,6.165-10.849,15.769-10.849,15.769l-0.971,103.988c0,0-2.418,11.432,1.599,19.723c0.73,1.507,1.672,2.911,2.882,4.122
	c1.208,1.212,2.683,2.232,4.478,2.974c0.897,0.37,1.874,0.671,2.937,0.892c2.658,0.55,7.494,0.596,13.777,0.241
	c1.258-0.071,2.572-0.158,3.939-0.26c4.101-0.307,8.671-0.75,13.552-1.307c3.254-0.371,6.648-0.794,10.132-1.261
	c5.227-0.7,10.661-1.499,16.145-2.375c7.312-1.168,14.71-2.474,21.825-3.861c3.558-0.695,7.043-1.41,10.412-2.139
	c15.369-3.328,28.255-6.951,34.285-10.239c1.898-1.036,3.143-2.039,3.537-2.988c0.172-0.412,0.343-0.999,0.51-1.67
	c0.041-0.163,0.08-0.342,0.121-0.519c0.148-0.642,0.293-1.357,0.436-2.177c0.02-0.109,0.039-0.203,0.058-0.314
	c0.351-2.072,0.688-4.643,1.008-7.62c0-0.01,0.002-0.018,0.003-0.028l0,0C1125.906,1161.745,1122.369,1165.258,1116.101,1167.813z"
	/>
<path style="fill:#8C8985;" d="M1116.343,1099.152c-1.696,2.634-4.639,4.389-8.005,4.389c-5.265,0-9.533-4.268-9.533-9.533
	c0-0.862,0.151-1.681,0.365-2.474c-0.958,1.486-1.527,3.245-1.527,5.144c0,5.265,4.267,9.533,9.532,9.533
	C1111.578,1106.212,1115.247,1103.21,1116.343,1099.152z"/>
<path style="fill:#C5C2BE;" d="M1108.338,1103.542c3.366,0,6.308-1.755,8.005-4.389c0.958-1.486,1.527-3.245,1.527-5.144
	c0-5.265-4.268-9.532-9.532-9.532c-4.403,0-8.073,3.001-9.168,7.058c-0.214,0.794-0.365,1.613-0.365,2.474
	C1098.805,1099.274,1103.073,1103.542,1108.338,1103.542z"/>
<path style="fill:#8C8985;" d="M1050.095,1111.487c-6.126,0-11.093-4.967-11.093-11.093c0-1.003,0.177-1.956,0.426-2.879
	c-1.114,1.729-1.778,3.776-1.778,5.986c0,6.126,4.966,11.093,11.093,11.093c5.124,0,9.393-3.493,10.668-8.214
	C1057.437,1109.446,1054.012,1111.487,1050.095,1111.487z"/>
<path style="fill:#C5C2BE;" d="M1039.002,1100.395c0,6.126,4.966,11.093,11.093,11.093c3.917,0,7.342-2.042,9.316-5.106
	c1.113-1.729,1.776-3.777,1.776-5.986c0-6.127-4.966-11.093-11.092-11.093c-5.124,0-9.394,3.492-10.667,8.214
	C1039.179,1098.439,1039.002,1099.392,1039.002,1100.395z"/>
<path style="fill:#8C8985;" d="M721.534,1103.692c-3.435,0-6.44-1.79-8.17-4.479c1.117,4.141,4.863,7.205,9.357,7.205
	c5.373,0,9.729-4.357,9.729-9.73c0-1.938-0.582-3.734-1.559-5.251c0.22,0.81,0.374,1.646,0.374,2.526
	C731.265,1099.337,726.908,1103.692,721.534,1103.692z"/>
<path style="fill:#C5C2BE;" d="M721.534,1103.692c5.373,0,9.73-4.356,9.73-9.73c0-0.88-0.154-1.715-0.374-2.526
	c-1.116-4.142-4.863-7.205-9.357-7.205c-3.858,0-7.16,2.263-8.733,5.518c-0.619,1.279-0.996,2.696-0.996,4.212
	c0,1.731,0.491,3.334,1.283,4.742c0.095,0.168,0.172,0.347,0.276,0.509C715.095,1101.902,718.1,1103.692,721.534,1103.692z"/>
<path style="fill:#100F13;" d="M757.554,1140.815c3.318-1.126,4.543-13.41,4.995-28.158c9.133-5.48,34.349-20.247,34.349-20.247
	l-4.024-34.01c0,0-1.025-0.347-2.641-0.859c-4.162-7.414-12.243-21.105-16.671-23.885c-6.129-3.85-12.567-7.384-15.908-0.229
	c-3.342,7.156-2.289,96.234-1.552,100.344c0.737,4.109-41.66-4.019-41.673-4.02l-0.002-0.001l0.002,0.001
	C714.442,1129.754,748.908,1143.749,757.554,1140.815z"/>
<path style="fill:#0C1115;" d="M809.795,2201.01l-3.045-22.894c0,0-20.859-40.506-33.403-49.311
	c-12.544-8.806-42.082,22.894-42.082,22.894s-0.375,0.691-1.079,1.938c0.002-0.003,0.006-0.01,0.008-0.013
	c5.014,7.245,7.559,16.601,7.559,16.601s34.049-5.611,44.615,0c10.567,5.61,2.349,27.264-5.607,37.831
	c-7.957,10.567-17.874,54.008-29.614,64.574c-11.741,10.567-26.637,11.741-26.637,11.741s11.373-14.089,19.592-22.307
	c8.219-8.218,22.308-46.885,22.308-46.885s-30.527,48.06-65.362,52.756c-34.835,4.697-55.568-9.393-55.568-9.393
	c0.006-0.004,0.012-0.009,0.017-0.013c-0.006,0.004-0.012,0.008-0.017,0.013c0,0-8.219,4.697-9.393,15.263
	c-1.174,10.567-14.089,27.004,0,30.526c14.088,3.522,55.956,10.567,64.961,11.741c9.006,1.174,55.969-4.697,55.969-4.697
	l23.745-23.481l11.479-16.437v17.611l20.549-4.697c0,0,2.181-47.067,2.337-84.431c0,0,0,0,0-0.001
	C810.289,2200.622,809.795,2201.01,809.795,2201.01z"/>
<path style="fill:#141C2A;" d="M697.047,2267.933c34.835-4.696,65.362-52.756,65.362-52.756s-14.089,38.667-22.308,46.885
	c-8.219,8.219-19.592,22.307-19.592,22.307s14.895-1.174,26.637-11.741c11.741-10.567,21.658-54.008,29.614-64.574
	c7.956-10.567,16.174-32.22,5.607-37.831c-10.567-5.611-44.615,0-44.615,0s-2.545-9.357-7.559-16.601
	c-0.002,0.004-0.006,0.01-0.008,0.013c-0.388,0.686-0.891,1.564-1.48,2.581c-0.032,0.055-0.054,0.095-0.087,0.151
	c-0.559,0.963-1.231,2.101-1.957,3.322c-0.122,0.205-0.23,0.386-0.357,0.598c-0.735,1.228-1.559,2.586-2.446,4.029
	c-0.166,0.269-0.327,0.53-0.497,0.807c-0.914,1.479-1.904,3.058-2.963,4.724c-0.192,0.3-0.386,0.603-0.581,0.909
	c-1.112,1.739-2.287,3.553-3.544,5.459c-0.144,0.217-0.295,0.44-0.439,0.658c-1.275,1.922-2.615,3.916-4.028,5.976
	c-0.109,0.157-0.206,0.305-0.316,0.463c-1.431,2.082-2.95,4.239-4.515,6.432c-0.256,0.36-0.505,0.71-0.764,1.072
	c-1.537,2.139-3.145,4.328-4.801,6.542c-0.319,0.426-0.635,0.847-0.958,1.276c-1.672,2.218-3.401,4.464-5.183,6.73
	c-0.333,0.422-0.671,0.844-1.007,1.268c-1.844,2.323-3.736,4.659-5.69,7.003c-0.243,0.292-0.494,0.582-0.738,0.874
	c-2.023,2.411-4.095,4.823-6.228,7.225c-0.086,0.097-0.169,0.194-0.255,0.291c-2.151,2.418-4.371,4.818-6.625,7.198
	c-0.316,0.332-0.623,0.665-0.939,0.996c-2.18,2.277-4.412,4.523-6.68,6.736c-0.406,0.397-0.811,0.792-1.22,1.186
	c-2.266,2.184-4.575,4.326-6.923,6.418c-0.408,0.363-0.817,0.719-1.226,1.078c-2.408,2.115-4.85,4.183-7.336,6.172
	c-0.305,0.244-0.615,0.478-0.921,0.72c-2.625,2.076-5.281,4.092-7.984,5.997c-0.006,0.004-0.012,0.009-0.017,0.013
	C641.479,2258.541,662.212,2272.63,697.047,2267.933z"/>
<path style="fill:#2A384C;" d="M661.437,2252.67c0,0,17.372,16.13,35.61,5.87c18.239-10.26,70.059-65.749,70.059-65.749
	l-9.393-9.393c0,0-49.311,56.356-60.666,63.4C685.694,2253.845,661.437,2252.67,661.437,2252.67z"/>
<path style="fill:#100F13;" d="M773.347,1187.484c9.436-3.853,18.336-11.75,20.414-13.664c0.296-0.274,0.454-0.425,0.454-0.425
	l4.98-25.536c0,0,1.665-39.625-2.297-41.647c-3.964-2.023-3.522,26.238-4.024,30.2c-0.502,3.962-16.229,30.82-23.274,31.402
	c-7.044,0.582-40.065-3.664-44.469-4.544c-4.402-0.881-3.962-11.007-6.605-18.052c-1.604-4.279-2.768-4.829-3.438-4.606
	c-0.001,0.001-0.003,0.001-0.004,0.001c0.02,0.299,0.042,0.574,0.064,0.871c0.103,1.506,0.21,2.975,0.32,4.413
	c0.035,0.478,0.07,0.964,0.109,1.434c0.146,1.844,0.295,3.635,0.451,5.339c0.016,0.18,0.034,0.341,0.05,0.52
	c0.138,1.486,0.282,2.903,0.429,4.262c0.051,0.466,0.102,0.91,0.152,1.358c0.125,1.096,0.254,2.138,0.383,3.133
	c0.051,0.379,0.1,0.772,0.151,1.136c0.179,1.287,0.362,2.5,0.554,3.579c0.017,0.092,0.034,0.161,0.05,0.251
	c0.175,0.964,0.354,1.819,0.538,2.593c0.062,0.26,0.126,0.489,0.189,0.727c0.151,0.565,0.303,1.06,0.461,1.491
	c0.063,0.176,0.127,0.366,0.192,0.518c0.218,0.509,0.441,0.929,0.671,1.158c2.503,2.502,10.034,6.011,18.795,9.013
	C751.463,1186.802,766.941,1190.1,773.347,1187.484z"/>
<path style="fill:#405060;" d="M808.788,1535.306c10.564-38.745-27.472-167.306-47.2-181.395c0,0-15.509,61.435-18.498,92.357
	c-2.989,30.922,32.481,136.822,34.999,147.272C780.607,1603.99,798.223,1574.051,808.788,1535.306z"/>
<path style="fill:#405060;" d="M1003.912,1442.232c-11.969,20.868-54.908,231.904-54.908,231.904l99.74-283.242
	C1048.743,1390.894,1015.883,1421.365,1003.912,1442.232z"/>
<path style="fill:#405060;" d="M922.25,1269.376l9.84-50.978l-26.115-10.6c0,0-3.195,24.594,0,29.878
	C909.17,1242.96,922.25,1269.376,922.25,1269.376z"/>
<path style="fill:#0C1115;" d="M1062.298,1734.313c-14.001,36.984-31,96.862-28.664,112.712
	c2.335,15.85,21.78,121.518,16.46,162.024c-5.32,40.506-18.626,65.161-11.093,68.684c4.781,2.235,19.995,9.808,30.482,15.046
	c-0.031-0.91-0.017-1.801-0.071-2.719c-0.273-4.678-0.442-8.367-0.553-11.51c-0.597-16.975,0.53-18.043-3.481-73.023
	c-4.308-59.053,11.198-225.088,14.144-285.871c0.304-6.288,0.475-11.45,0.475-15.25c0-3.618-0.087-7.38-0.241-11.224
	c-0.003-0.077-0.006-0.153-0.009-0.23c-0.155-3.81-0.378-7.702-0.654-11.625c-0.007-0.1-0.013-0.198-0.02-0.298
	c-0.281-3.954-0.613-7.939-0.987-11.901c-0.001-0.029-0.004-0.057-0.007-0.086c-0.378-4.007-0.794-7.99-1.234-11.894
	C1074.23,1682.848,1069.708,1714.742,1062.298,1734.313z"/>
<path style="fill:#0C1115;" d="M840.143,1906.903c-4.941,31.7-21.83,103.906-32.757,125.04
	c-10.928,21.133-30.625,60.033-30.625,60.033s35.22,41.126,47.271,61.461c3.972,6.702,8.928,12.275,13.792,16.767
	c0.007,0.006,0.014,0.014,0.021,0.021c0.13-0.329,0.196-0.637,0.303-0.958c0.135-0.408,0.292-0.823,0.385-1.218
	c0.186-0.784,0.294-1.543,0.289-2.261c-0.061-7.705-1.977-21.601-3.243-37.82c-0.254-3.243-0.479-6.58-0.661-9.978
	c-0.092-1.7-0.171-3.414-0.236-5.141c-0.13-3.453-0.204-6.951-0.203-10.466c0-1.758,0.021-3.519,0.062-5.28
	c0.02-0.819,0.068-1.84,0.132-2.977c0,0,0.002,0,0.002-0.001c0.021-0.358,0.051-0.786,0.076-1.175c0-0.002,0-0.002,0-0.004
	c0.055-0.841,0.114-1.723,0.189-2.701c0,0,0,0,0,0c0.041-0.54,0.089-1.119,0.135-1.7c0.08-1,0.169-2.058,0.268-3.174
	c0.054-0.618,0.107-1.235,0.166-1.887c0.114-1.255,0.24-2.589,0.371-3.964c0.062-0.636,0.118-1.238,0.182-1.899
	c0-0.001,0-0.001,0-0.001c0.403-4.126,0.875-8.728,1.41-13.735c0-0.001,0-0.001,0-0.001c0.087-0.823,0.182-1.691,0.272-2.535
	c0.19-1.763,0.384-3.552,0.586-5.403c0.107-0.974,0.217-1.968,0.328-2.965c0.2-1.808,0.406-3.648,0.616-5.528
	c0.118-1.06,0.238-2.12,0.359-3.201c0.224-1.984,0.456-4.013,0.691-6.065c0.117-1.033,0.232-2.046,0.352-3.095
	c0.705-6.135,1.451-12.536,2.228-19.127c0.13-1.101,0.262-2.223,0.395-3.334c0.266-2.253,0.534-4.515,0.806-6.806
	c0.146-1.22,0.292-2.448,0.439-3.677c0.281-2.352,0.564-4.717,0.85-7.099c0.135-1.126,0.269-2.251,0.406-3.383
	c0.364-3.018,0.729-6.052,1.098-9.101c0.039-0.33,0.08-0.658,0.12-0.988c0.911-7.521,1.836-15.102,2.762-22.665
	c0.01-0.071,0.018-0.143,0.026-0.214c0.459-3.741,0.917-7.468,1.373-11.183c0.01-0.08,0.02-0.16,0.03-0.24
	c4.107-33.351,8.107-65.207,10.842-87.194c0.013-0.099,0.025-0.204,0.038-0.303c0.21-1.688,0.407-3.28,0.602-4.847
	c0.042-0.338,0.089-0.712,0.13-1.044v0.001C854.701,1866.465,843.24,1887.029,840.143,1906.903z"/>
<path style="fill:#843732;" d="M990.445,395.028c-0.404,2.806-0.822,5.532-1.246,8.159c0,0.001,0,0.002,0,0.002l-0.203,1.249
	c0,0.002,0,0.003,0,0.005c-0.139,0.843-0.279,1.668-0.419,2.486c-0.021,0.126-0.043,0.257-0.065,0.382l-0.193,1.119
	c-0.003,0.017-0.006,0.03-0.009,0.046c-0.477,2.707-0.959,5.24-1.443,7.58l-0.109,0.518c-0.007,0.033-0.014,0.063-0.02,0.096
	c-0.148,0.699-0.294,1.387-0.441,2.046c-0.003,0.012-0.006,0.025-0.009,0.038l-0.193,0.841c-0.163,0.71-0.326,1.393-0.488,2.048
	c-0.003,0.012-0.006,0.024-0.008,0.036l-0.245,0.973c-0.003,0.007-0.005,0.013-0.006,0.021c-0.15,0.572-0.296,1.108-0.444,1.629
	c2.04,0.468,5.091,0.711,8.265-0.794c0.006-0.003,0.011-0.003,0.017-0.006c5.502-2.62,17.029-40.87,17.291-45.324
	c0.262-4.454-0.787-13.885-6.55-16.505c-0.008-0.003-0.015-0.003-0.024-0.007c-3.841,12.325-13.413,33.051-13.413,33.051
	L990.445,395.028z"/>
<path style="fill:#843732;" d="M832.214,415.117c2.749,1.309,5.431,1.31,7.429,0.983c-1.301-5.184-2.263-10.631-2.949-16.085
	c-0.21-1.673-0.398-3.343-0.563-5.006c-0.268-2.675-0.47-5.31-0.643-7.903l-0.002,0.007l-6.565-31.316
	c-2.319-2.105-5.021-3.612-7.449-2.509c-5.763,2.62-6.812,12.051-6.549,16.505c0.21,3.57,7.658,28.829,13.439,40.069
	C829.792,412.642,831.123,414.597,832.214,415.117z"/>
<path style="fill:#AB593D;" d="M984.018,398.35c0.925-2.41,3.033-9.804,5.368-18.348c-0.599-9.585-1.073-21.329-0.29-27.086
	c0.794-5.841-1.287-20.181-3.326-31.944c-7.511,5.684-16.304,11.66-23.218,14.354c-15.067,5.872-82.942,1.006-104.549-3.609
	c-6.514-1.391-11.09-3.948-14.343-6.832c-0.431,7.597-0.619,14.645-0.705,19.185c-0.011,0.57-0.051,1.204-0.084,1.824
	c-0.288,7.228-0.893,34.646,5.789,48.821c7.738,16.413,35.101,62.997,38.547,75.734c1.648,6.084,6,11.44,10.102,15.391
	c8.965,1.651,24.7,1.559,33.359,0.409C941.836,465.076,981.883,403.893,984.018,398.35z"/>
<path style="fill:#9E4B33;" d="M848.66,394.715c-6.682-14.175-6.077-41.593-5.789-48.821c-0.776,14.325-7.365,41.137-7.383,41.212
	c0.173,2.593,0.375,5.228,0.643,7.903c0.165,1.662,0.352,3.333,0.563,5.006c1.475,11.704,4.118,23.453,8.996,32.393
	c6.82,12.5,25.514,34.544,38.636,45.891c1.094,0.945,2.149,1.816,3.155,2.602c2.012,1.57,3.828,2.797,5.369,3.585
	c0.77,0.395,1.472,0.679,2.094,0.843c0.715,0.188,1.518,0.355,2.366,0.511l0,0l0,0c-4.102-3.952-8.453-9.307-10.102-15.391
	C883.761,457.712,856.399,411.128,848.66,394.715z"/>
<path style="fill:#843732;" d="M962.552,335.326c6.914-2.694,15.706-8.671,23.218-14.354c-1.512-8.721-2.983-15.943-3.26-17.286
	c-8.452,5.186-16.972,9.901-20.896,10.502c-9.15,1.402-90.426-4.031-100.857-4.459c-3.849-0.158-9.271-4.202-14.58-9.232
	c-1.272,7.116-2.042,16.077-2.515,24.387c3.253,2.884,7.828,5.441,14.343,6.832C879.61,336.332,947.485,341.198,962.552,335.326z"/>
<path style="fill:#9E4B33;" d="M984.1,426.911c0.192-0.557,0.384-1.151,0.576-1.801c0.002-0.004,0.002-0.006,0.003-0.009
	l0.078-0.277l0.136-0.484c0.151-0.532,0.303-1.082,0.456-1.667c0.001-0.008,0.003-0.014,0.006-0.021l0.245-0.973
	c0.002-0.012,0.005-0.024,0.008-0.036c0.144-0.581,0.289-1.183,0.433-1.808l0.055-0.24l0.193-0.841
	c0.003-0.012,0.006-0.025,0.009-0.038c0.147-0.659,0.293-1.347,0.441-2.046c0.006-0.033,0.013-0.063,0.02-0.096l0.109-0.518
	l0.101-0.479c0.451-2.202,0.899-4.583,1.342-7.101c0.003-0.016,0.006-0.03,0.009-0.046l0.193-1.119
	c0.021-0.125,0.044-0.256,0.065-0.382c0.139-0.818,0.28-1.641,0.419-2.486c0-0.001,0-0.003,0-0.005l0.203-1.249
	c0-0.001,0-0.001,0-0.002c0.156-0.974,0.314-1.963,0.468-2.966l0.192-1.237c0.174-1.153,0.348-2.321,0.52-3.502l0.066-0.454
	l0.047-0.313c0,0-0.598-6.583-1.105-14.714c-2.335,8.544-4.443,15.939-5.368,18.348c-2.135,5.544-42.182,66.726-53.35,87.899l0,0
	c0.006-0.001,0.01-0.002,0.016-0.002c0.877-0.117,1.664-0.246,2.387-0.383c0.12-0.022,0.241-0.045,0.355-0.068
	c0.719-0.146,1.361-0.3,1.862-0.467c1.179-0.393,3.408-2.057,6.293-4.619c4.547-4.039,10.73-10.331,16.997-17.371
	c0-0.001,0,0,0-0.001c2.754-3.093,5.51-6.318,8.167-9.584c7.919-9.737,14.839-19.69,17.273-26.586
	C984.045,427.091,984.073,426.99,984.1,426.911z"/>
<path style="fill:#AB593D;" d="M915.647,520.435c3.939-1.572,31.168-20.959,37.084-27.771c5.916-6.811,2.467-12.575,2.467-12.575
	S911.709,522.007,915.647,520.435z"/>
<path style="fill:#E8B136;" d="M1033.635,724.868c5.158,0.008,17.481-12.531,18.196-13.81c0.718-1.279,9.601-31.71,9.315-33.116
	c-0.286-1.407-18.627-12.275-22.067-14.704c-3.439-2.43-5.444-1.918-5.444-1.918s-2.006-0.512-5.446,1.918
	c-3.438,2.429-21.78,13.297-22.067,14.704c-0.286,1.406,8.597,31.837,9.315,33.116
	C1016.153,712.337,1028.477,724.876,1033.635,724.868z"/>
<path style="fill:#EFDDB9;" d="M1038.72,671.493c5.589,3.224,14.616,10.316,14.831,14.185c0.215,3.868-5.804,21.708-2.794,16.98
	c3.009-4.728,7.953-24.717,7.953-24.717l-25.076-15.045c0,0,1.217-1.737-5.015,2.678c-6.234,4.415-20.204,10.648-19.558,13.442
	c0.645,2.794,0.986,13.54,2.213,11.176c1.225-2.364,0.366-8.597,8.103-12.681C1027.115,673.427,1033.133,668.269,1038.72,671.493z"
	/>
<path style="fill:#88A7D7;" d="M887.282,574.241c0,0,0.839-0.258,2.032-0.611l1.563-39.583l-34.226-46.971
	c0.221-0.46,0.461-0.927,0.71-1.379c-0.925,1.674-1.659,3.626-2.21,4.176c-0.989,0.986-18.305,25.248-20.844,28.808
	c0.172,0.234,0.45,0.6,0.773,1.022c6.651,8.672,43.933,55.038,52.179,64.131C887.139,578.404,887.282,574.241,887.282,574.241z"/>
<path style="fill:#ADC5E8;" d="M890.877,534.047l-1.563,39.583c0.787-0.233,1.709-0.5,2.738-0.788
	c1.644-10.321,2.813-24.687,3.429-33.531c0.331-4.754,0.507-7.934,0.507-7.934l-30.442-41.368l-5.055-6.869
	c-0.365-0.1-0.709-0.024-1.041,0.131c-0.109,0.051-0.208,0.138-0.313,0.21c-0.221,0.154-0.438,0.333-0.646,0.567
	c-0.106,0.12-0.208,0.241-0.31,0.378c-0.203,0.273-0.4,0.566-0.588,0.884c-0.079,0.132-0.158,0.251-0.233,0.388
	c-0.249,0.451-0.489,0.919-0.71,1.379L890.877,534.047z"/>
<path style="fill:#88A7D7;" d="M932.526,534.047l1.518,38.468c1.313,1.924,2.46,5.711,3.485,9.751
	c9.701-11.127,40.247-49.069,49.289-60.626c1.105-1.413,1.891-2.433,2.276-2.959c-2.539-3.56-19.856-27.822-20.844-28.808
	c-0.551-0.549-1.283-2.498-2.206-4.171c0.248,0.45,0.487,0.916,0.708,1.374L932.526,534.047z"/>
<path style="fill:#ADC5E8;" d="M938.542,516.255l-11.128,15.122c0,0,0.234,4.235,0.676,10.273c0.613,8.409,1.63,20.358,3.01,29.631
	c0.412-0.021,0.75-0.046,0.979-0.079c0.696-0.1,1.348,0.408,1.965,1.313l-1.518-38.468l34.226-46.971
	c-0.22-0.458-0.46-0.924-0.708-1.374c-0.078-0.14-0.159-0.262-0.238-0.397c-0.188-0.316-0.384-0.609-0.585-0.879
	c-0.103-0.137-0.204-0.258-0.312-0.378c-0.207-0.234-0.424-0.415-0.647-0.569c-0.103-0.072-0.203-0.158-0.31-0.208
	c-0.333-0.155-0.677-0.232-1.042-0.131l-2.364,3.213L938.542,516.255z"/>
<path style="fill:#11192B;" d="M895.554,955.84l4.872,4.605l16.959,16.03l12.268-13.023l4.871-5.172l15.194-16.129
	c0,0-1.196-36.245-2.638-80.263c-1.283-39.161-2.761-84.448-3.767-115.943c-7.42-38.947-14.763-95.373-24.935-107.966
	c-2.795-3.461-7.958-1.492-16.913,3.979c-3.905,2.388-7.433,23.904-10.169,47.402c0.263-25.417,0.512-42.445,0.719-44.915
	c0.56-6.716,3.322-15.949,5.544-23.097c-2.222,7.148-4.986,16.382-5.546,23.097c-0.641,7.695-5.001,129.129-8.02,214.5
	c-1.665,47.084-2.923,83.205-2.923,83.205L895.554,955.84z"/>
<path style="fill:#11192B;" d="M899.501,615.066c0.173-0.583,0.329-1.121,0.461-1.608c0.401-1.462,0.604-2.464,0.51-2.837
	l22.331,1.942l0.739,0.738c0.214,0.798,0.63,2.358,1.163,4.406c2.385-2.521,17.118-18.457,15.288-25.32
	c-0.747-2.8-1.557-6.552-2.462-10.12c-1.025-4.04-2.173-7.827-3.485-9.751c-0.617-0.906-1.269-1.413-1.965-1.313
	c-0.229,0.032-0.567,0.058-0.979,0.079c-5.857,0.294-28.894-0.543-32.146-0.079c-1.686,0.241-4.473,0.961-6.902,1.64
	c-1.029,0.288-1.951,0.555-2.738,0.788c-1.193,0.353-2.032,0.611-2.032,0.611s-0.143,4.163-0.023,9.593
	c0.187,8.422,1.014,19.917,4.038,23.849c2.05,2.664,5.066,5.379,8.113,7.681c-0.329,1.099-0.709,2.329-1.133,3.685
	C898.738,617.577,899.156,616.232,899.501,615.066z"/>
<path style="fill:#0A111C;" d="M891.298,689.361c2.735-23.498,6.263-45.014,10.169-47.402c8.955-5.472,14.118-7.44,16.913-3.979
	c10.172,12.592,17.515,69.018,24.935,107.966c0.2,1.055,0.4,2.149,0.602,3.177c-0.888-18.034-1.503-31.518-1.678-37.521
	c0,0,0-0.001,0-0.002c-0.055-1.863-0.169-3.841-0.325-5.888c-0.011-0.155-0.018-0.301-0.031-0.456
	c-0.154-1.961-0.355-4.007-0.588-6.103c-0.03-0.271-0.057-0.535-0.088-0.807c-0.234-2.046-0.505-4.149-0.8-6.29
	c-0.05-0.348-0.096-0.691-0.146-1.041c-0.302-2.12-0.63-4.277-0.983-6.459c-0.061-0.381-0.122-0.759-0.184-1.141
	c-0.357-2.173-0.735-4.366-1.13-6.571c-0.073-0.413-0.15-0.824-0.224-1.237c-0.402-2.204-0.817-4.415-1.246-6.623
	c-0.075-0.386-0.151-0.768-0.227-1.153c-0.44-2.234-0.888-4.464-1.345-6.67c-0.069-0.329-0.139-0.65-0.206-0.978
	c-0.471-2.257-0.948-4.497-1.428-6.694c-0.05-0.23-0.1-0.452-0.151-0.681c-0.467-2.134-0.936-4.231-1.402-6.28
	c-0.048-0.214-0.098-0.433-0.147-0.647c-0.467-2.047-0.927-4.027-1.382-5.959c-0.087-0.37-0.173-0.743-0.259-1.107
	c-0.429-1.812-0.846-3.55-1.252-5.229c-0.1-0.407-0.198-0.812-0.293-1.211c-0.381-1.562-0.747-3.046-1.1-4.464
	c-0.12-0.482-0.234-0.944-0.351-1.407c-0.311-1.249-0.611-2.43-0.892-3.538c-0.128-0.506-0.248-0.976-0.37-1.451
	c-0.252-0.985-0.492-1.919-0.71-2.757c-0.096-0.374-0.184-0.709-0.274-1.052c-0.533-2.048-0.949-3.608-1.163-4.406l-0.739-0.738
	l-22.331-1.942c0.093,0.372-0.11,1.375-0.51,2.837c-0.132,0.487-0.288,1.026-0.461,1.608c-0.345,1.166-0.763,2.511-1.223,3.983
	c-0.231,0.736-0.471,1.506-0.717,2.3c-2.222,7.148-4.985,16.382-5.544,23.097C891.809,646.916,891.561,663.944,891.298,689.361z"/>
<path style="fill:#1E110E;" d="M982.509,303.686c0.277,1.343,1.748,8.565,3.26,17.286c2.039,11.762,4.12,26.102,3.326,31.944
	c-0.783,5.757-0.309,17.501,0.29,27.086c0.508,8.131,1.105,14.714,1.105,14.714s9.573-20.726,13.413-33.051
	c0.362-1.163,0.693-2.278,0.939-3.267c2.865-11.463,6.183-29.23,5.671-40.693c-0.482-10.779-1.557-18.064-5.014-29.372
	c-0.343,0.411-0.591,0.7-0.591,0.7S993.77,296.778,982.509,303.686z"/>
<path style="fill:#1E110E;" d="M835.488,387.106L835.488,387.106c0.018-0.075,6.607-26.887,7.383-41.212
	c0.034-0.62,0.073-1.254,0.084-1.824c0.086-4.54,0.274-11.588,0.705-19.185c0.474-8.31,1.243-17.271,2.515-24.387
	c-9.074-8.599-17.822-20.095-17.822-20.095l-1.444-3.5c-5.427,22.928-7.714,56.49-6.047,63.155c2.293,9.17,8.06,15.739,8.06,15.739
	l0,0l6.565,31.316L835.488,387.106z"/>
<path style="fill:#2B3344;" d="M845.322,178.949c3.756,6.894,34.349,46.127,66.375,51.673c32.025,5.547,66.276-48.535,66.051-53.793
	c-0.124-2.914-4.25-10.664-7.907-17.001c-20.324-7.571-43.85-16.567-47.729-19.054l-0.478-0.248c-4.273-2.098-8.18-0.601-9.46,0.01
	v-0.01l-0.182,0.094l-0.296,0.154c-4.667,2.991-37.763,15.402-59.512,23.419c0.171-0.063,0.327-0.12,0.5-0.184
	C847.704,169.754,843.626,175.838,845.322,178.949z"/>
<path style="fill:#1D2533;" d="M814.526,202.715c7.304,9.15,30.772,33.814,45.218,48.304c20.177-2.735,53.966-1.798,53.966-1.798
	c33.933-0.203,57.049,4.229,72.358,9.309c10.992-16.337,31.181-47.086,39.303-64.342l-24.599-22.992c0,0-0.416-0.15-1.125-0.408
	c-0.163-0.06-0.331-0.121-0.529-0.192c-0.529-0.192-1.173-0.427-1.927-0.701c-0.137-0.05-0.265-0.096-0.408-0.148
	c-5.402-1.967-15.676-5.723-26.942-9.92v0.001c3.658,6.338,7.783,14.088,7.907,17.001c0.225,5.258-34.026,59.34-66.051,53.793
	c-32.026-5.547-62.618-44.779-66.375-51.673c-1.695-3.111,2.383-9.195,7.362-14.94c-0.172,0.064-0.329,0.121-0.5,0.184
	c-1.126,0.415-2.226,0.82-3.285,1.209c-0.224,0.082-0.441,0.162-0.661,0.243c-1.077,0.396-2.118,0.778-3.111,1.141
	c-0.138,0.051-0.279,0.103-0.416,0.152c-2.263,0.829-4.277,1.565-5.97,2.182c-0.061,0.023-0.123,0.046-0.183,0.067
	c-0.72,0.262-1.35,0.492-1.942,0.708c-0.251,0.091-0.474,0.172-0.701,0.255c-1.809,0.658-2.879,1.045-2.879,1.045l-21.312,19.921
	C811.177,195.239,811.793,199.292,814.526,202.715z"/>
<path style="fill:#161C26;" d="M848.779,253.446c2.618-1.028,6.461-1.816,10.964-2.427c-14.446-14.49-37.914-39.154-45.218-48.304
	c-2.732-3.424-3.349-7.476-2.802-11.599c0,0,0,0,0,0l-14.85,13.882c0,0-12.018,16.149-9.766,23.285
	c1.781,5.638,26.151,30.137,36.33,40.201C823.443,268.481,834.433,259.079,848.779,253.446z"/>
<path style="fill:#161C26;" d="M1012.703,272.87c0.037,0.227-0.025,0.487-0.014,0.722c0.093-0.091,0.153-0.15,0.25-0.245
	c9.052-8.956,33.364-33.382,35.193-39.18c1.548-4.906-4.324-16.853-8.146-23.841c-1.737-3.176-3.051-5.328-3.051-5.328
	l-11.565-10.81l0,0c-8.122,17.256-28.31,48.005-39.303,64.342C1006.02,265.149,1012.703,272.87,1012.703,272.87z"/>
<path style="fill:#0E0F1A;" d="M961.613,314.188c3.924-0.601,12.445-5.316,20.896-10.502c11.26-6.908,22.401-14.654,22.401-14.654
	s-19.477-15.856-31.367-20.548c-11.892-4.693-100.955-6.037-110.206-4.863c-9.251,1.174-34.984,16.781-34.984,16.781
	s8.748,11.496,17.822,20.095c5.309,5.03,10.731,9.074,14.58,9.232C871.187,310.157,952.462,315.59,961.613,314.188z"/>
<path style="fill:#E8B136;" d="M863.337,263.621c9.251-1.174,98.314,0.171,110.206,4.863c11.89,4.693,31.367,20.548,31.367,20.548
	s0.248-0.289,0.591-0.7c1.823-2.188,7.447-9.447,7.188-14.74c-0.011-0.236,0.051-0.495,0.014-0.722c0,0-6.683-7.721-26.635-14.34
	c-15.31-5.08-38.425-9.512-72.358-9.309c0,0-33.789-0.937-53.966,1.798c-4.504,0.611-8.346,1.399-10.964,2.427
	c-14.346,5.633-25.336,15.035-25.341,15.038l0,0l3.472,8.418l1.444,3.5C828.354,280.402,854.086,264.794,863.337,263.621z"/>
<path style="fill:#C3C6DB;" d="M994.99,289.032c-2.444,0.469-36.197,15.219-41.104,16.232c-4.905,1.012-46.789-2.243-53.641-2.243
	c-6.849,0-33.593-0.751-38.75-3.755c-5.156-3.005-17.425-22.192-20.681-21.487c-3.254,0.705-6.833,3.235-4.757,5.713
	c0,0,16.511,20.259,23.028,21.772c6.517,1.514,91.397,4.162,95.903,4.466C959.497,310.033,997.434,288.563,994.99,289.032z"/>
<path style="fill:#C3C6DB;" d="M888.342,277.779c1.297,8.217,4.199,19.138,5.208,14.882c1.01-4.256,3.844-26.135,3.844-26.135
	s-17.771-2.444-15.767,0C883.63,268.97,887.046,269.562,888.342,277.779z"/>
<path style="fill:#E8B136;" d="M916.932,211.632c4.508,0.008,15.273-10.948,15.899-12.065c0.626-1.117,8.388-27.705,8.137-28.934
	c-0.25-1.229-16.274-10.725-19.279-12.847c-3.005-2.122-4.757-1.676-4.757-1.676s-1.753-0.446-4.758,1.676
	c-3.003,2.122-19.029,11.618-19.279,12.847c-0.251,1.229,7.511,27.817,8.137,28.934C901.658,200.684,912.425,211.64,916.932,211.632
	z"/>
<path style="fill:#EFDDB9;" d="M864.715,260.751c5.771-0.169,103.044,4.338,105.673,3.023c2.629-1.314,8.826-5.258,6.009-6.572
	c-2.817-1.315-67.227-10.704-119.808-4.507C855.657,252.805,858.942,260.92,864.715,260.751z"/>
<path style="fill:#EFDDB9;" d="M921.376,164.999c4.883,2.817,12.769,9.014,12.956,12.394c0.189,3.38-5.069,18.967-2.441,14.836
	c2.63-4.132,6.948-21.596,6.948-21.596l-21.908-13.145c0,0,1.064-1.517-4.382,2.34c-5.446,3.857-17.652,9.303-17.088,11.744
	c0.563,2.441,0.862,11.831,1.934,9.765c1.071-2.066,0.32-7.511,7.081-11.079C911.235,166.689,916.493,162.182,921.376,164.999z"/>
<polygon style="fill:#141C2A;" points="778.066,2286.023 788.239,2289.067 788.239,2271.456 "/>
<polygon style="fill:#141C2A;" points="986.815,2271.456 986.815,2289.067 996.871,2285.855 "/>
</svg>
