<?xml version="1.0" encoding="UTF-8"?>
<svg xmlns="http://www.w3.org/2000/svg" xmlns:xlink="http://www.w3.org/1999/xlink" width="3204" height="3090" viewBox="0 0 3204 3090">
<path fill-rule="nonzero" fill="rgb(100%, 80.076599%, 0%)" fill-opacity="1" d="M 1615.25 0.640625 C 1431.039062 0.660156 1252.988281 52.328125 1113.558594 146.210938 C 974.132812 240.089844 882.621094 369.941406 855.714844 512.070312 L 238.363281 512.070312 L 238.363281 693.75 L 0.0625 693.75 L 0.0625 2416.441406 L 238.363281 2416.441406 L 238.363281 2598.128906 L 860.382812 2598.128906 C 892.675781 2735.941406 985.886719 2860.5625 1123.808594 2950.316406 C 1261.730469 3040.066406 1435.628906 3089.265625 1615.25 3089.359375 C 1794.859375 3089.265625 1968.761719 3040.066406 2106.679688 2950.316406 C 2244.601562 2860.5625 2337.820312 2735.941406 2370.109375 2598.128906 L 2965.640625 2598.128906 L 2965.640625 2416.441406 L 3203.941406 2416.441406 L 3203.941406 693.75 L 2965.640625 693.75 L 2965.640625 512.070312 L 2374.851562 512.070312 C 2347.941406 369.929688 2256.421875 240.070312 2116.96875 146.191406 C 1977.53125 52.308594 1799.460938 0.648438 1615.25 0.640625 Z M 1615.25 0.640625 "/>
<path fill="none" stroke-width="583.241" stroke-linecap="round" stroke-linejoin="round" stroke="rgb(44.700623%, 26.660156%, 22.75238%)" stroke-opacity="1" stroke-miterlimit="3" d="M 16274.797726 -29333.004161 C 14576.198695 -29332.810439 12934.394242 -28864.196819 11648.717794 -28012.594722 C 10363.00196 -27160.915137 9519.07863 -25983.085121 9270.986361 -24693.903676 L 3578.255399 -24693.903676 L 3578.255399 -23045.794031 L 1380.832969 -23045.794031 L 1380.832969 -7419.244255 L 3578.255399 -7419.244255 L 3578.255399 -5771.173354 L 9313.995848 -5771.173354 C 9611.79322 -4521.123761 10471.392169 -3390.678157 11743.086595 -2576.503159 C 13014.899179 -1762.366905 14618.499234 -1316.070065 16274.797726 -1315.256432 C 17931.096218 -1316.070065 19534.696273 -1762.366905 20806.390699 -2576.503159 C 22078.282056 -3390.678157 22937.802232 -4521.123761 23235.599605 -5771.173354 L 28727.10761 -5771.173354 L 28727.10761 -7419.244255 L 30924.490654 -7419.244255 L 30924.490654 -23045.794031 L 28727.10761 -23045.794031 L 28727.10761 -24693.903676 L 23279.318039 -24693.903676 C 23031.186384 -25983.201354 22187.184282 -27161.108859 20901.389676 -28012.710956 C 19615.516298 -28864.390541 17973.514916 -29332.887928 16274.797726 -29333.004161 Z M 16274.797726 -29333.004161 " transform="matrix(0.0991787, 0, 0, 0.100821, 0, 3090)"/>
</svg>
