<?xml version="1.0" encoding="UTF-8"?>
<svg xmlns="http://www.w3.org/2000/svg" xmlns:xlink="http://www.w3.org/1999/xlink" width="2000" height="2000" viewBox="0 0 2000 2000">
<defs>
<clipPath id="clip-0">
<path clip-rule="nonzero" d="M 461 122 L 836 122 L 836 411 L 461 411 Z M 461 122 "/>
</clipPath>
<clipPath id="clip-1">
<path clip-rule="evenodd" d="M 471.816406 1684.734375 C 478.347656 1604.28125 489.546875 1353.09375 511 1272.601562 C 520.800781 1235.835938 600.53125 1223.605469 600.53125 1201.777344 C 600.53125 1179.953125 517.496094 1177.003906 511 1141.644531 C 496.078125 1060.425781 514.023438 845.371094 511 714.449219 C 508.238281 594.890625 472.238281 441.710938 492.863281 356.128906 C 509.28125 288 586.023438 238.269531 634.746094 200.96875 C 678.515625 167.460938 741.1875 143.761719 785.191406 132.320312 C 821.835938 122.800781 861.035156 129.328125 898.777344 132.320312 C 949.335938 136.328125 1025.949219 148.808594 1088.53125 156.378906 C 1150.398438 163.859375 1211.949219 177.761719 1274.28125 177.761719 C 1340.648438 177.761719 1416.289062 166.46875 1486.75 156.378906 C 1563.410156 145.390625 1734.28125 111.839844 1734.28125 111.839844 C 1734.28125 111.839844 1677.308594 203.390625 1669.820312 255.261719 C 1659.078125 329.71875 1700.328125 496.238281 1669.820312 558.601562 C 1641.058594 617.378906 1489.871094 617.621094 1486.75 629.429688 C 1483.628906 641.230469 1620.601562 586.71875 1651.109375 629.429688 C 1681.621094 672.128906 1662.289062 800.351562 1669.820312 885.648438 C 1677.359375 971.019531 1689.421875 1069.128906 1696.328125 1141.644531 C 1702.019531 1201.285156 1714.890625 1260.949219 1711.300781 1320.75 C 1706.878906 1394.253906 1712.941406 1526.539062 1669.820312 1582.664062 C 1626.699219 1638.789062 1527.890625 1643.488281 1452.589844 1657.496094 C 1361.160156 1674.507812 1231.679688 1675.9375 1121.191406 1684.734375 C 991.972656 1695.023438 785.503906 1707.472656 677.273438 1719.234375 C 608.148438 1726.746094 506.058594 1761.0625 471.816406 1755.3125 C 448.613281 1751.417969 469.910156 1708.183594 471.816406 1684.734375 Z M 471.816406 1684.734375 "/>
</clipPath>
<clipPath id="clip-2">
<path clip-rule="nonzero" d="M 294 1768 L 391 1768 L 391 1856 L 294 1856 Z M 294 1768 "/>
</clipPath>
<clipPath id="clip-3">
<path clip-rule="evenodd" d="M 404.046875 1663.070312 C 404.046875 1663.070312 359.914062 1650.863281 320.109375 1668.324219 C 297.148438 1678.398438 279.226562 1708.046875 271.484375 1734.226562 C 263.382812 1761.625 265.253906 1808.253906 271.484375 1832.722656 C 276.511719 1852.453125 293.117188 1872.382812 308.878906 1881.03125 C 324.640625 1889.679688 349.738281 1890.324219 366.0625 1884.605469 C 392.945312 1875.1875 451.082031 1786.222656 451.082031 1786.222656 L 462.199219 1697.28125 Z M 404.046875 1663.070312 "/>
</clipPath>
<clipPath id="clip-4">
<path clip-rule="nonzero" d="M 266 1658 L 452 1658 L 452 1857 L 266 1857 Z M 266 1658 "/>
</clipPath>
<clipPath id="clip-5">
<path clip-rule="evenodd" d="M 404.046875 1663.070312 C 404.046875 1663.070312 359.914062 1650.863281 320.109375 1668.324219 C 297.148438 1678.398438 279.226562 1708.046875 271.484375 1734.226562 C 263.382812 1761.625 265.253906 1808.253906 271.484375 1832.722656 C 276.511719 1852.453125 293.117188 1872.382812 308.878906 1881.03125 C 324.640625 1889.679688 349.738281 1890.324219 366.0625 1884.605469 C 392.945312 1875.1875 451.082031 1786.222656 451.082031 1786.222656 L 462.199219 1697.28125 Z M 404.046875 1663.070312 "/>
</clipPath>
</defs>
<path fill-rule="evenodd" fill="rgb(100%, 85.546875%, 64.256287%)" fill-opacity="1" d="M 471.816406 1684.734375 C 478.347656 1604.28125 489.546875 1353.09375 511 1272.601562 C 520.800781 1235.835938 600.53125 1223.605469 600.53125 1201.777344 C 600.53125 1179.953125 517.496094 1177.003906 511 1141.644531 C 496.078125 1060.425781 514.023438 845.371094 511 714.449219 C 508.238281 594.890625 472.238281 441.710938 492.863281 356.128906 C 509.28125 288 586.023438 238.269531 634.746094 200.96875 C 678.515625 167.460938 741.1875 143.761719 785.191406 132.320312 C 821.835938 122.800781 861.035156 129.328125 898.777344 132.320312 C 949.335938 136.328125 1025.949219 148.808594 1088.53125 156.378906 C 1150.398438 163.859375 1211.949219 177.761719 1274.28125 177.761719 C 1340.648438 177.761719 1416.289062 166.46875 1486.75 156.378906 C 1563.410156 145.390625 1734.28125 111.839844 1734.28125 111.839844 C 1734.28125 111.839844 1677.308594 203.390625 1669.820312 255.261719 C 1659.078125 329.71875 1700.328125 496.238281 1669.820312 558.601562 C 1641.058594 617.378906 1489.871094 617.621094 1486.75 629.429688 C 1483.628906 641.230469 1620.601562 586.71875 1651.109375 629.429688 C 1681.621094 672.128906 1662.289062 800.351562 1669.820312 885.648438 C 1677.359375 971.019531 1689.421875 1069.128906 1696.328125 1141.644531 C 1702.019531 1201.285156 1714.890625 1260.949219 1711.300781 1320.75 C 1706.878906 1394.253906 1712.941406 1526.539062 1669.820312 1582.664062 C 1626.699219 1638.789062 1527.890625 1643.488281 1452.589844 1657.496094 C 1361.160156 1674.507812 1231.679688 1675.9375 1121.191406 1684.734375 C 991.972656 1695.023438 785.503906 1707.472656 677.273438 1719.234375 C 608.148438 1726.746094 506.058594 1761.0625 471.816406 1755.3125 C 448.613281 1751.417969 469.910156 1708.183594 471.816406 1684.734375 "/>
<g clip-path="url(#clip-0)">
<g clip-path="url(#clip-1)">
<path fill-rule="evenodd" fill="rgb(99.609375%, 80.859375%, 53.318787%)" fill-opacity="1" d="M 476.660156 406.429688 C 499.394531 385.019531 552.144531 293.988281 593.089844 278 C 675.617188 245.769531 713.261719 289.898438 713.261719 289.898438 C 713.261719 289.898438 738 154.929688 830.855469 127.410156 C 855.796875 120.019531 777.90625 120.539062 752.816406 127.410156 C 714.429688 137.921875 648.699219 164.050781 600.53125 190.480469 C 551.179688 217.558594 480.664062 253.910156 456.691406 289.898438 C 435.160156 322.230469 453.363281 387.011719 456.691406 406.429688 C 457.816406 412.988281 471.816406 410.988281 476.660156 406.429688 "/>
</g>
</g>
<path fill-rule="evenodd" fill="rgb(100%, 79.881287%, 50.78125%)" fill-opacity="1" d="M 404.046875 1663.070312 C 404.046875 1663.070312 359.914062 1650.863281 320.109375 1668.324219 C 297.148438 1678.398438 279.226562 1708.046875 271.484375 1734.226562 C 263.382812 1761.625 265.253906 1808.253906 271.484375 1832.722656 C 276.511719 1852.453125 293.117188 1872.382812 308.878906 1881.03125 C 324.640625 1889.679688 349.738281 1890.324219 366.0625 1884.605469 C 392.945312 1875.1875 451.082031 1786.222656 451.082031 1786.222656 L 462.199219 1697.28125 L 404.046875 1663.070312 "/>
<g clip-path="url(#clip-2)">
<g clip-path="url(#clip-3)">
<path fill-rule="evenodd" fill="rgb(96.875%, 73.242188%, 38.305664%)" fill-opacity="1" d="M 368.691406 1773.933594 C 359.722656 1771.667969 338.988281 1766.15625 327.394531 1769.460938 C 315.804688 1772.761719 304.175781 1783.257812 299.144531 1793.738281 C 294.109375 1804.222656 293.867188 1822.378906 297.199219 1832.34375 C 300.496094 1842.203125 311.808594 1849.996094 319.132812 1853.527344 C 325.808594 1856.742188 334.238281 1856.128906 341.148438 1853.527344 C 352.363281 1849.300781 386.441406 1828.171875 386.441406 1828.171875 L 390.3125 1795.683594 L 381.199219 1783.050781 C 381.199219 1783.050781 373.621094 1775.179688 368.691406 1773.933594 "/>
</g>
</g>
<g clip-path="url(#clip-4)">
<g clip-path="url(#clip-5)">
<path fill-rule="evenodd" fill="rgb(98.826599%, 76.951599%, 44.309998%)" fill-opacity="1" d="M 331.824219 1855.695312 C 331.824219 1855.695312 395.800781 1861.441406 415.636719 1840.828125 C 435.476562 1820.214844 454.144531 1762.308594 450.851562 1732.011719 C 447.554688 1701.710938 421.710938 1671.191406 395.867188 1659.027344 C 370.027344 1646.863281 320.503906 1645.34375 295.792969 1659.027344 C 271.082031 1672.714844 247.609375 1731.304688 247.609375 1741.132812 C 247.609375 1750.960938 276.308594 1724.820312 295.792969 1717.996094 C 312.660156 1712.089844 339.835938 1713.597656 352.628906 1721.585938 C 365.414062 1729.570312 370.496094 1750.105469 372.527344 1765.925781 C 374.5625 1781.742188 371.640625 1801.742188 364.824219 1816.5 C 354.511719 1838.832031 331.824219 1855.695312 331.824219 1855.695312 "/>
</g>
</g>
<path fill-rule="evenodd" fill="rgb(100%, 83.59375%, 59.568787%)" fill-opacity="1" d="M 399.914062 1662.09375 C 399.914062 1662.09375 1454.441406 1579.703125 1669.390625 1582.75 C 1702.621094 1583.222656 1722 1672.894531 1689.621094 1680.378906 C 1471.03125 1730.898438 357.828125 1885.871094 357.828125 1885.871094 C 357.828125 1885.871094 422.632812 1854.675781 434.382812 1764.632812 C 441.917969 1706.859375 399.914062 1662.09375 399.914062 1662.09375 "/>
</svg>
