<?xml version="1.0" encoding="UTF-8"?>
<svg xmlns="http://www.w3.org/2000/svg" xmlns:xlink="http://www.w3.org/1999/xlink" width="3872.99" height="3872.99" viewBox="0 0 3872.99 3872.99">
<defs>
<clipPath id="clip-0">
<path clip-rule="nonzero" d="M 0 0 L 3872.988281 0 L 3872.988281 3872.988281 L 0 3872.988281 Z M 0 0 "/>
</clipPath>
<clipPath id="clip-1">
<path clip-rule="evenodd" d="M 459.511719 196.929688 C 315.09375 196.929688 196.925781 315.089844 196.925781 459.511719 L 196.925781 3413.46875 C 196.925781 3557.898438 315.09375 3676.058594 459.511719 3676.058594 L 3413.46875 3676.058594 C 3557.898438 3676.058594 3676.058594 3557.898438 3676.058594 3413.46875 L 3676.058594 459.511719 C 3676.058594 315.089844 3557.898438 196.929688 3413.46875 196.929688 Z M 459.511719 0 L 3413.46875 0 C 3666.210938 0 3872.988281 206.78125 3872.988281 459.511719 L 3872.988281 3413.46875 C 3872.988281 3666.210938 3666.210938 3872.988281 3413.46875 3872.988281 L 459.511719 3872.988281 C 206.777344 3872.988281 0 3666.210938 0 3413.46875 L 0 459.511719 C 0 206.78125 206.777344 0 459.511719 0 "/>
</clipPath>
<linearGradient id="linear-pattern-0" gradientUnits="userSpaceOnUse" x1="-0.260023" y1="0" x2="1.260168" y2="0" gradientTransform="matrix(-2547.7, -2547.7, 2547.7, -2547.7, 3210.53, 3210.53)">
<stop offset="0" stop-color="rgb(98.431396%, 76.469421%, 26.66626%)" stop-opacity="1"/>
<stop offset="0.125" stop-color="rgb(98.431396%, 76.469421%, 26.66626%)" stop-opacity="1"/>
<stop offset="0.15625" stop-color="rgb(98.431396%, 76.469421%, 26.66626%)" stop-opacity="1"/>
<stop offset="0.171875" stop-color="rgb(98.429871%, 76.49231%, 26.679993%)" stop-opacity="1"/>
<stop offset="0.175781" stop-color="rgb(98.423767%, 76.739502%, 26.831055%)" stop-opacity="1"/>
<stop offset="0.179687" stop-color="rgb(98.419189%, 76.96228%, 26.968384%)" stop-opacity="1"/>
<stop offset="0.183594" stop-color="rgb(98.414612%, 77.185059%, 27.104187%)" stop-opacity="1"/>
<stop offset="0.1875" stop-color="rgb(98.410034%, 77.407837%, 27.241516%)" stop-opacity="1"/>
<stop offset="0.191406" stop-color="rgb(98.403931%, 77.630615%, 27.377319%)" stop-opacity="1"/>
<stop offset="0.195313" stop-color="rgb(98.399353%, 77.853394%, 27.514648%)" stop-opacity="1"/>
<stop offset="0.199219" stop-color="rgb(98.39325%, 78.076172%, 27.650452%)" stop-opacity="1"/>
<stop offset="0.203125" stop-color="rgb(98.388672%, 78.29895%, 27.787781%)" stop-opacity="1"/>
<stop offset="0.207031" stop-color="rgb(98.384094%, 78.521729%, 27.92511%)" stop-opacity="1"/>
<stop offset="0.210937" stop-color="rgb(98.379517%, 78.744507%, 28.062439%)" stop-opacity="1"/>
<stop offset="0.214844" stop-color="rgb(98.373413%, 78.967285%, 28.198242%)" stop-opacity="1"/>
<stop offset="0.21875" stop-color="rgb(98.368835%, 79.190063%, 28.335571%)" stop-opacity="1"/>
<stop offset="0.222656" stop-color="rgb(98.362732%, 79.412842%, 28.471375%)" stop-opacity="1"/>
<stop offset="0.226563" stop-color="rgb(98.358154%, 79.63562%, 28.608704%)" stop-opacity="1"/>
<stop offset="0.230469" stop-color="rgb(98.353577%, 79.858398%, 28.744507%)" stop-opacity="1"/>
<stop offset="0.234375" stop-color="rgb(98.348999%, 80.081177%, 28.881836%)" stop-opacity="1"/>
<stop offset="0.238281" stop-color="rgb(98.342896%, 80.303955%, 29.017639%)" stop-opacity="1"/>
<stop offset="0.242187" stop-color="rgb(98.338318%, 80.526733%, 29.154968%)" stop-opacity="1"/>
<stop offset="0.246094" stop-color="rgb(98.332214%, 80.749512%, 29.290771%)" stop-opacity="1"/>
<stop offset="0.25" stop-color="rgb(98.327637%, 80.97229%, 29.428101%)" stop-opacity="1"/>
<stop offset="0.253906" stop-color="rgb(98.323059%, 81.195068%, 29.56543%)" stop-opacity="1"/>
<stop offset="0.257812" stop-color="rgb(98.318481%, 81.417847%, 29.702759%)" stop-opacity="1"/>
<stop offset="0.261719" stop-color="rgb(98.312378%, 81.640625%, 29.838562%)" stop-opacity="1"/>
<stop offset="0.265625" stop-color="rgb(98.3078%, 81.863403%, 29.975891%)" stop-opacity="1"/>
<stop offset="0.269531" stop-color="rgb(98.303223%, 82.086182%, 30.111694%)" stop-opacity="1"/>
<stop offset="0.273438" stop-color="rgb(98.298645%, 82.30896%, 30.249023%)" stop-opacity="1"/>
<stop offset="0.277344" stop-color="rgb(98.292542%, 82.531738%, 30.384827%)" stop-opacity="1"/>
<stop offset="0.28125" stop-color="rgb(98.287964%, 82.754517%, 30.522156%)" stop-opacity="1"/>
<stop offset="0.285156" stop-color="rgb(98.28186%, 82.977295%, 30.657959%)" stop-opacity="1"/>
<stop offset="0.289062" stop-color="rgb(98.277283%, 83.200073%, 30.795288%)" stop-opacity="1"/>
<stop offset="0.292969" stop-color="rgb(98.272705%, 83.422852%, 30.931091%)" stop-opacity="1"/>
<stop offset="0.296875" stop-color="rgb(98.268127%, 83.64563%, 31.06842%)" stop-opacity="1"/>
<stop offset="0.300781" stop-color="rgb(98.262024%, 83.868408%, 31.204224%)" stop-opacity="1"/>
<stop offset="0.304688" stop-color="rgb(98.257446%, 84.091187%, 31.341553%)" stop-opacity="1"/>
<stop offset="0.308594" stop-color="rgb(98.251343%, 84.313965%, 31.478882%)" stop-opacity="1"/>
<stop offset="0.3125" stop-color="rgb(98.246765%, 84.536743%, 31.616211%)" stop-opacity="1"/>
<stop offset="0.316406" stop-color="rgb(98.242188%, 84.757996%, 31.752014%)" stop-opacity="1"/>
<stop offset="0.320312" stop-color="rgb(98.23761%, 84.980774%, 31.889343%)" stop-opacity="1"/>
<stop offset="0.324219" stop-color="rgb(98.231506%, 85.203552%, 32.025146%)" stop-opacity="1"/>
<stop offset="0.328125" stop-color="rgb(98.226929%, 85.426331%, 32.162476%)" stop-opacity="1"/>
<stop offset="0.332031" stop-color="rgb(98.220825%, 85.649109%, 32.298279%)" stop-opacity="1"/>
<stop offset="0.335938" stop-color="rgb(98.216248%, 85.871887%, 32.435608%)" stop-opacity="1"/>
<stop offset="0.339844" stop-color="rgb(98.21167%, 86.094666%, 32.571411%)" stop-opacity="1"/>
<stop offset="0.34375" stop-color="rgb(98.207092%, 86.317444%, 32.70874%)" stop-opacity="1"/>
<stop offset="0.347656" stop-color="rgb(98.200989%, 86.540222%, 32.844543%)" stop-opacity="1"/>
<stop offset="0.351562" stop-color="rgb(98.196411%, 86.763%, 32.981873%)" stop-opacity="1"/>
<stop offset="0.355469" stop-color="rgb(98.191833%, 86.985779%, 33.119202%)" stop-opacity="1"/>
<stop offset="0.359375" stop-color="rgb(98.187256%, 87.208557%, 33.256531%)" stop-opacity="1"/>
<stop offset="0.363281" stop-color="rgb(98.181152%, 87.431335%, 33.392334%)" stop-opacity="1"/>
<stop offset="0.367188" stop-color="rgb(98.176575%, 87.654114%, 33.529663%)" stop-opacity="1"/>
<stop offset="0.371094" stop-color="rgb(98.170471%, 87.876892%, 33.665466%)" stop-opacity="1"/>
<stop offset="0.375" stop-color="rgb(98.165894%, 88.09967%, 33.802795%)" stop-opacity="1"/>
<stop offset="0.378906" stop-color="rgb(98.161316%, 88.322449%, 33.938599%)" stop-opacity="1"/>
<stop offset="0.382812" stop-color="rgb(98.156738%, 88.545227%, 34.075928%)" stop-opacity="1"/>
<stop offset="0.386719" stop-color="rgb(98.150635%, 88.768005%, 34.211731%)" stop-opacity="1"/>
<stop offset="0.390625" stop-color="rgb(98.146057%, 88.990784%, 34.34906%)" stop-opacity="1"/>
<stop offset="0.394531" stop-color="rgb(98.139954%, 89.213562%, 34.484863%)" stop-opacity="1"/>
<stop offset="0.398438" stop-color="rgb(98.135376%, 89.43634%, 34.622192%)" stop-opacity="1"/>
<stop offset="0.402344" stop-color="rgb(98.130798%, 89.659119%, 34.757996%)" stop-opacity="1"/>
<stop offset="0.40625" stop-color="rgb(98.126221%, 89.881897%, 34.895325%)" stop-opacity="1"/>
<stop offset="0.410156" stop-color="rgb(98.120117%, 90.104675%, 35.032654%)" stop-opacity="1"/>
<stop offset="0.414062" stop-color="rgb(98.11554%, 90.327454%, 35.169983%)" stop-opacity="1"/>
<stop offset="0.417969" stop-color="rgb(98.109436%, 90.550232%, 35.305786%)" stop-opacity="1"/>
<stop offset="0.421875" stop-color="rgb(98.104858%, 90.77301%, 35.443115%)" stop-opacity="1"/>
<stop offset="0.425781" stop-color="rgb(98.100281%, 90.995789%, 35.578918%)" stop-opacity="1"/>
<stop offset="0.429688" stop-color="rgb(98.095703%, 91.218567%, 35.716248%)" stop-opacity="1"/>
<stop offset="0.433594" stop-color="rgb(98.0896%, 91.441345%, 35.852051%)" stop-opacity="1"/>
<stop offset="0.4375" stop-color="rgb(98.085022%, 91.664124%, 35.98938%)" stop-opacity="1"/>
<stop offset="0.441406" stop-color="rgb(98.080444%, 91.886902%, 36.125183%)" stop-opacity="1"/>
<stop offset="0.445312" stop-color="rgb(98.075867%, 92.10968%, 36.262512%)" stop-opacity="1"/>
<stop offset="0.449219" stop-color="rgb(98.069763%, 92.332458%, 36.398315%)" stop-opacity="1"/>
<stop offset="0.453125" stop-color="rgb(98.065186%, 92.555237%, 36.535645%)" stop-opacity="1"/>
<stop offset="0.457031" stop-color="rgb(98.059082%, 92.778015%, 36.672974%)" stop-opacity="1"/>
<stop offset="0.460938" stop-color="rgb(98.054504%, 93.000793%, 36.810303%)" stop-opacity="1"/>
<stop offset="0.464844" stop-color="rgb(98.049927%, 93.223572%, 36.946106%)" stop-opacity="1"/>
<stop offset="0.46875" stop-color="rgb(98.045349%, 93.44635%, 37.083435%)" stop-opacity="1"/>
<stop offset="0.476562" stop-color="rgb(97.85614%, 93.522644%, 37.207031%)" stop-opacity="1"/>
<stop offset="0.480469" stop-color="rgb(97.171021%, 93.431091%, 37.434387%)" stop-opacity="1"/>
<stop offset="0.484375" stop-color="rgb(96.67511%, 93.263245%, 37.538147%)" stop-opacity="1"/>
<stop offset="0.488281" stop-color="rgb(96.179199%, 93.093872%, 37.641907%)" stop-opacity="1"/>
<stop offset="0.492188" stop-color="rgb(95.683289%, 92.926025%, 37.745667%)" stop-opacity="1"/>
<stop offset="0.496094" stop-color="rgb(95.187378%, 92.758179%, 37.849426%)" stop-opacity="1"/>
<stop offset="0.5" stop-color="rgb(94.691467%, 92.590332%, 37.953186%)" stop-opacity="1"/>
<stop offset="0.503906" stop-color="rgb(94.195557%, 92.420959%, 38.05542%)" stop-opacity="1"/>
<stop offset="0.507812" stop-color="rgb(93.699646%, 92.253113%, 38.15918%)" stop-opacity="1"/>
<stop offset="0.511719" stop-color="rgb(93.203735%, 92.085266%, 38.262939%)" stop-opacity="1"/>
<stop offset="0.515625" stop-color="rgb(92.707825%, 91.917419%, 38.366699%)" stop-opacity="1"/>
<stop offset="0.519531" stop-color="rgb(92.211914%, 91.748047%, 38.470459%)" stop-opacity="1"/>
<stop offset="0.523438" stop-color="rgb(91.716003%, 91.5802%, 38.574219%)" stop-opacity="1"/>
<stop offset="0.527344" stop-color="rgb(91.220093%, 91.412354%, 38.676453%)" stop-opacity="1"/>
<stop offset="0.53125" stop-color="rgb(90.724182%, 91.244507%, 38.780212%)" stop-opacity="1"/>
<stop offset="0.535156" stop-color="rgb(90.228271%, 91.075134%, 38.883972%)" stop-opacity="1"/>
<stop offset="0.539062" stop-color="rgb(89.732361%, 90.907288%, 38.987732%)" stop-opacity="1"/>
<stop offset="0.542969" stop-color="rgb(89.23645%, 90.739441%, 39.091492%)" stop-opacity="1"/>
<stop offset="0.546875" stop-color="rgb(88.74054%, 90.571594%, 39.195251%)" stop-opacity="1"/>
<stop offset="0.550781" stop-color="rgb(88.244629%, 90.403748%, 39.297485%)" stop-opacity="1"/>
<stop offset="0.554688" stop-color="rgb(87.748718%, 90.235901%, 39.401245%)" stop-opacity="1"/>
<stop offset="0.558594" stop-color="rgb(87.252808%, 90.066528%, 39.505005%)" stop-opacity="1"/>
<stop offset="0.5625" stop-color="rgb(86.756897%, 89.898682%, 39.608765%)" stop-opacity="1"/>
<stop offset="0.566406" stop-color="rgb(86.260986%, 89.730835%, 39.712524%)" stop-opacity="1"/>
<stop offset="0.570312" stop-color="rgb(85.765076%, 89.562988%, 39.816284%)" stop-opacity="1"/>
<stop offset="0.574219" stop-color="rgb(85.269165%, 89.393616%, 39.918518%)" stop-opacity="1"/>
<stop offset="0.578125" stop-color="rgb(84.773254%, 89.225769%, 40.022278%)" stop-opacity="1"/>
<stop offset="0.582031" stop-color="rgb(84.277344%, 89.057922%, 40.126038%)" stop-opacity="1"/>
<stop offset="0.585938" stop-color="rgb(83.781433%, 88.890076%, 40.229797%)" stop-opacity="1"/>
<stop offset="0.589844" stop-color="rgb(83.285522%, 88.720703%, 40.333557%)" stop-opacity="1"/>
<stop offset="0.59375" stop-color="rgb(82.789612%, 88.552856%, 40.437317%)" stop-opacity="1"/>
<stop offset="0.597656" stop-color="rgb(82.293701%, 88.38501%, 40.539551%)" stop-opacity="1"/>
<stop offset="0.601562" stop-color="rgb(81.797791%, 88.217163%, 40.643311%)" stop-opacity="1"/>
<stop offset="0.605469" stop-color="rgb(81.30188%, 88.047791%, 40.74707%)" stop-opacity="1"/>
<stop offset="0.609375" stop-color="rgb(80.805969%, 87.879944%, 40.85083%)" stop-opacity="1"/>
<stop offset="0.613281" stop-color="rgb(80.310059%, 87.712097%, 40.953064%)" stop-opacity="1"/>
<stop offset="0.617188" stop-color="rgb(79.814148%, 87.54425%, 41.056824%)" stop-opacity="1"/>
<stop offset="0.621094" stop-color="rgb(79.318237%, 87.376404%, 41.160583%)" stop-opacity="1"/>
<stop offset="0.625" stop-color="rgb(78.822327%, 87.208557%, 41.264343%)" stop-opacity="1"/>
<stop offset="0.628906" stop-color="rgb(78.326416%, 87.039185%, 41.368103%)" stop-opacity="1"/>
<stop offset="0.632812" stop-color="rgb(77.830505%, 86.871338%, 41.471863%)" stop-opacity="1"/>
<stop offset="0.636719" stop-color="rgb(77.334595%, 86.703491%, 41.574097%)" stop-opacity="1"/>
<stop offset="0.640625" stop-color="rgb(76.838684%, 86.535645%, 41.677856%)" stop-opacity="1"/>
<stop offset="0.644531" stop-color="rgb(76.342773%, 86.366272%, 41.781616%)" stop-opacity="1"/>
<stop offset="0.648438" stop-color="rgb(75.846863%, 86.198425%, 41.885376%)" stop-opacity="1"/>
<stop offset="0.652344" stop-color="rgb(75.350952%, 86.030579%, 41.989136%)" stop-opacity="1"/>
<stop offset="0.65625" stop-color="rgb(74.855042%, 85.862732%, 42.092896%)" stop-opacity="1"/>
<stop offset="0.660156" stop-color="rgb(74.359131%, 85.693359%, 42.195129%)" stop-opacity="1"/>
<stop offset="0.664062" stop-color="rgb(73.86322%, 85.525513%, 42.298889%)" stop-opacity="1"/>
<stop offset="0.667969" stop-color="rgb(73.36731%, 85.357666%, 42.402649%)" stop-opacity="1"/>
<stop offset="0.671875" stop-color="rgb(72.871399%, 85.189819%, 42.506409%)" stop-opacity="1"/>
<stop offset="0.675781" stop-color="rgb(72.375488%, 85.020447%, 42.610168%)" stop-opacity="1"/>
<stop offset="0.679687" stop-color="rgb(71.879578%, 84.8526%, 42.713928%)" stop-opacity="1"/>
<stop offset="0.683594" stop-color="rgb(71.383667%, 84.684753%, 42.816162%)" stop-opacity="1"/>
<stop offset="0.6875" stop-color="rgb(70.887756%, 84.516907%, 42.919922%)" stop-opacity="1"/>
<stop offset="0.691406" stop-color="rgb(70.391846%, 84.34906%, 43.023682%)" stop-opacity="1"/>
<stop offset="0.695313" stop-color="rgb(69.895935%, 84.181213%, 43.127441%)" stop-opacity="1"/>
<stop offset="0.699219" stop-color="rgb(69.398499%, 84.011841%, 43.231201%)" stop-opacity="1"/>
<stop offset="0.703125" stop-color="rgb(68.902588%, 83.843994%, 43.334961%)" stop-opacity="1"/>
<stop offset="0.707031" stop-color="rgb(68.406677%, 83.676147%, 43.437195%)" stop-opacity="1"/>
<stop offset="0.710938" stop-color="rgb(67.910767%, 83.508301%, 43.540955%)" stop-opacity="1"/>
<stop offset="0.714844" stop-color="rgb(67.414856%, 83.338928%, 43.644714%)" stop-opacity="1"/>
<stop offset="0.71875" stop-color="rgb(66.918945%, 83.171082%, 43.748474%)" stop-opacity="1"/>
<stop offset="0.722656" stop-color="rgb(66.423035%, 83.003235%, 43.852234%)" stop-opacity="1"/>
<stop offset="0.726562" stop-color="rgb(65.927124%, 82.835388%, 43.955994%)" stop-opacity="1"/>
<stop offset="0.730469" stop-color="rgb(65.431213%, 82.666016%, 44.058228%)" stop-opacity="1"/>
<stop offset="0.734375" stop-color="rgb(64.935303%, 82.498169%, 44.161987%)" stop-opacity="1"/>
<stop offset="0.738281" stop-color="rgb(64.439392%, 82.330322%, 44.265747%)" stop-opacity="1"/>
<stop offset="0.742188" stop-color="rgb(63.943481%, 82.162476%, 44.369507%)" stop-opacity="1"/>
<stop offset="0.746094" stop-color="rgb(63.447571%, 81.993103%, 44.473267%)" stop-opacity="1"/>
<stop offset="0.75" stop-color="rgb(62.95166%, 81.825256%, 44.577026%)" stop-opacity="1"/>
<stop offset="0.753906" stop-color="rgb(62.45575%, 81.65741%, 44.67926%)" stop-opacity="1"/>
<stop offset="0.757812" stop-color="rgb(61.959839%, 81.489563%, 44.78302%)" stop-opacity="1"/>
<stop offset="0.761719" stop-color="rgb(61.463928%, 81.321716%, 44.88678%)" stop-opacity="1"/>
<stop offset="0.765625" stop-color="rgb(60.968018%, 81.15387%, 44.99054%)" stop-opacity="1"/>
<stop offset="0.769531" stop-color="rgb(60.472107%, 80.984497%, 45.094299%)" stop-opacity="1"/>
<stop offset="0.773438" stop-color="rgb(59.976196%, 80.81665%, 45.198059%)" stop-opacity="1"/>
<stop offset="0.777344" stop-color="rgb(59.480286%, 80.648804%, 45.300293%)" stop-opacity="1"/>
<stop offset="0.78125" stop-color="rgb(58.984375%, 80.480957%, 45.404053%)" stop-opacity="1"/>
<stop offset="0.785156" stop-color="rgb(58.488464%, 80.311584%, 45.507812%)" stop-opacity="1"/>
<stop offset="0.789062" stop-color="rgb(57.992554%, 80.143738%, 45.611572%)" stop-opacity="1"/>
<stop offset="0.792969" stop-color="rgb(57.496643%, 79.975891%, 45.715332%)" stop-opacity="1"/>
<stop offset="0.796875" stop-color="rgb(57.000732%, 79.808044%, 45.819092%)" stop-opacity="1"/>
<stop offset="0.800781" stop-color="rgb(56.504822%, 79.638672%, 45.921326%)" stop-opacity="1"/>
<stop offset="0.804687" stop-color="rgb(56.008911%, 79.470825%, 46.025085%)" stop-opacity="1"/>
<stop offset="0.808594" stop-color="rgb(55.513%, 79.302979%, 46.128845%)" stop-opacity="1"/>
<stop offset="0.8125" stop-color="rgb(55.01709%, 79.135132%, 46.232605%)" stop-opacity="1"/>
<stop offset="0.816406" stop-color="rgb(54.521179%, 78.965759%, 46.336365%)" stop-opacity="1"/>
<stop offset="0.820313" stop-color="rgb(54.025269%, 78.797913%, 46.440125%)" stop-opacity="1"/>
<stop offset="0.824219" stop-color="rgb(53.529358%, 78.630066%, 46.542358%)" stop-opacity="1"/>
<stop offset="0.828125" stop-color="rgb(53.033447%, 78.462219%, 46.646118%)" stop-opacity="1"/>
<stop offset="0.84375" stop-color="rgb(52.986145%, 78.445435%, 46.655273%)" stop-opacity="1"/>
<stop offset="0.875" stop-color="rgb(52.940369%, 78.430176%, 46.665955%)" stop-opacity="1"/>
<stop offset="1" stop-color="rgb(52.940369%, 78.430176%, 46.665955%)" stop-opacity="1"/>
</linearGradient>
</defs>
<path fill-rule="evenodd" fill="rgb(89.84375%, 89.84375%, 89.84375%)" fill-opacity="1" d="M 511.644531 258.320312 C 372.316406 258.320312 258.332031 372.308594 258.332031 511.648438 L 258.332031 3361.359375 C 258.332031 3500.691406 372.316406 3614.671875 511.644531 3614.671875 L 3361.359375 3614.671875 C 3500.691406 3614.671875 3614.671875 3500.691406 3614.671875 3361.359375 L 3614.671875 511.648438 C 3614.671875 372.308594 3500.691406 258.320312 3361.359375 258.320312 Z M 511.644531 68.351562 L 3361.359375 68.351562 C 3605.160156 68.351562 3804.628906 267.828125 3804.628906 511.648438 L 3804.628906 3361.359375 C 3804.628906 3605.160156 3605.160156 3804.628906 3361.359375 3804.628906 L 511.644531 3804.628906 C 267.832031 3804.628906 68.347656 3605.160156 68.347656 3361.359375 L 68.347656 511.648438 C 68.347656 267.828125 267.832031 68.351562 511.644531 68.351562 "/>
<g clip-path="url(#clip-0)">
<g clip-path="url(#clip-1)">
<path fill-rule="nonzero" fill="url(#linear-pattern-0)" d="M 1936.496094 5809.484375 L 5809.484375 1936.496094 L 1936.496094 -1936.496094 L -1936.496094 1936.496094 Z M 1936.496094 5809.484375 "/>
</g>
</g>
<path fill-rule="evenodd" fill="rgb(100%, 59.179688%, 0.392151%)" fill-opacity="1" d="M 2872.488281 2241.558594 L 1000.511719 2241.558594 C 982.605469 2241.558594 969.460938 2224.488281 974.09375 2207.171875 L 1133.410156 1610.398438 C 1136.601562 1598.441406 1147.441406 1590.121094 1159.808594 1590.121094 L 2713.191406 1590.121094 C 2725.570312 1590.121094 2736.398438 1598.441406 2739.609375 1610.410156 L 2898.941406 2207.191406 C 2903.558594 2224.519531 2890.398438 2241.558594 2872.488281 2241.558594 "/>
<path fill-rule="evenodd" fill="rgb(30.589294%, 20.384216%, 18.041992%)" fill-opacity="1" d="M 2836.929688 2186.890625 L 2692.199219 1644.800781 L 1180.820312 1644.789062 L 1036.089844 2186.890625 L 2836.929688 2186.890625 "/>
<path fill-rule="evenodd" fill="rgb(72.851562%, 50.584412%, 87.889099%)" fill-opacity="1" d="M 2408.828125 1995.128906 L 1936.488281 1995.128906 C 1921.398438 1995.128906 1909.160156 1982.871094 1909.160156 1967.800781 L 1909.160156 1721.398438 C 1909.160156 1706.308594 1921.398438 1694.058594 1936.488281 1694.058594 L 2408.828125 1694.058594 C 2423.910156 1694.058594 2436.160156 1706.308594 2436.160156 1721.398438 L 2436.160156 1967.800781 C 2436.179688 1982.890625 2423.910156 1995.128906 2408.828125 1995.128906 "/>
<path fill-rule="evenodd" fill="rgb(84.764099%, 60.742188%, 97.264099%)" fill-opacity="1" d="M 1936.488281 1995.128906 L 1464.148438 1995.128906 C 1449.058594 1995.128906 1436.808594 1982.871094 1436.808594 1967.800781 L 1436.808594 1721.398438 C 1436.808594 1706.308594 1449.058594 1694.058594 1464.148438 1694.058594 L 1936.488281 1694.058594 C 1951.589844 1694.058594 1963.828125 1706.308594 1963.828125 1721.398438 L 1963.828125 1967.800781 C 1963.828125 1982.890625 1951.589844 1995.128906 1936.488281 1995.128906 "/>
<path fill-rule="evenodd" fill="rgb(22.363281%, 76.171875%, 69.726562%)" fill-opacity="1" d="M 1700.339844 2241.539062 L 1227.988281 2241.539062 C 1212.898438 2241.539062 1200.648438 2229.289062 1200.648438 2214.21875 L 1200.648438 1967.800781 C 1200.648438 1952.710938 1212.898438 1940.460938 1227.988281 1940.460938 L 1700.339844 1940.460938 C 1715.421875 1940.460938 1727.671875 1952.710938 1727.671875 1967.800781 L 1727.671875 2214.179688 C 1727.671875 2229.269531 1715.429688 2241.539062 1700.339844 2241.539062 "/>
<path fill-rule="evenodd" fill="rgb(35.693359%, 93.75%, 86.326599%)" fill-opacity="1" d="M 2172.648438 2241.539062 L 1700.339844 2241.539062 C 1685.238281 2241.539062 1673 2229.289062 1673 2214.21875 L 1673 1967.800781 C 1673 1952.710938 1685.238281 1940.460938 1700.339844 1940.460938 L 2172.648438 1940.460938 C 2187.738281 1940.460938 2200 1952.710938 2200 1967.800781 L 2200 2214.179688 C 2200 2229.269531 2187.761719 2241.539062 2172.648438 2241.539062 "/>
<path fill-rule="evenodd" fill="rgb(22.363281%, 76.171875%, 69.726562%)" fill-opacity="1" d="M 2645 2241.539062 L 2172.648438 2241.539062 C 2157.578125 2241.539062 2145.320312 2229.289062 2145.320312 2214.21875 L 2145.320312 1967.800781 C 2145.320312 1952.710938 2157.578125 1940.460938 2172.648438 1940.460938 L 2645 1940.460938 C 2660.089844 1940.460938 2672.328125 1952.710938 2672.328125 1967.800781 L 2672.328125 2214.179688 C 2672.328125 2229.269531 2660.089844 2241.539062 2645 2241.539062 "/>
<path fill-rule="evenodd" fill="rgb(100%, 59.179688%, 0.392151%)" fill-opacity="1" d="M 2959.769531 1157.679688 C 2961.171875 1157.578125 2962.539062 1157.589844 2963.929688 1157.699219 C 2973.070312 1158.011719 2981.078125 1162.878906 2985.769531 1170.109375 L 2985.898438 1170.289062 L 2985.898438 1170.300781 C 2990.878906 1177.410156 2992.460938 1186.820312 2987.550781 1196.75 L 2987.488281 1196.871094 L 2987.328125 1197.21875 L 2987.289062 1197.269531 C 2986.921875 1198.019531 2986.511719 1198.761719 2986.058594 1199.46875 L 2745.488281 1616.191406 L 2745.519531 1617.46875 C 2745.519531 1632.558594 2733.289062 1644.808594 2718.179688 1644.808594 L 1157.609375 1644.808594 C 1143.871094 1644.808594 1132.5 1634.671875 1130.570312 1621.46875 L 886.472656 1198.660156 C 873.5625 1176.269531 894.316406 1155.898438 913.699219 1157.699219 L 914.65625 1157.679688 L 2959.769531 1157.679688 "/>
<path fill-rule="evenodd" fill="rgb(30.589294%, 20.384216%, 18.041992%)" fill-opacity="1" d="M 2697.410156 1590.121094 L 2915.5 1212.359375 L 957.492188 1212.359375 L 1175.589844 1590.121094 L 2697.410156 1590.121094 "/>
<path fill-rule="evenodd" fill="rgb(100%, 59.179688%, 0.392151%)" fill-opacity="1" d="M 2872.488281 3102.871094 L 1000.511719 3102.871094 C 985.414062 3102.871094 973.167969 3090.609375 973.167969 3075.539062 L 973.167969 2214.179688 C 973.167969 2199.109375 985.414062 2186.851562 1000.511719 2186.851562 L 2872.488281 2186.851562 C 2887.578125 2186.851562 2899.820312 2199.109375 2899.820312 2214.179688 L 2899.820312 3075.5 C 2899.851562 3090.609375 2887.578125 3102.871094 2872.488281 3102.871094 "/>
<path fill-rule="evenodd" fill="rgb(100%, 48.242188%, 0.392151%)" fill-opacity="1" d="M 2730.339844 2978.941406 L 1142.679688 2978.941406 C 1117.539062 2978.941406 1097.121094 2958.511719 1097.121094 2933.371094 L 1097.121094 2356.359375 C 1097.121094 2331.21875 1117.53125 2310.808594 1142.679688 2310.808594 C 1671.898438 2310.808594 2201.128906 2310.808594 2730.359375 2310.808594 C 2755.5 2310.808594 2775.910156 2331.21875 2775.910156 2356.359375 L 2775.910156 2933.371094 C 2775.910156 2958.53125 2755.480469 2978.941406 2730.339844 2978.941406 "/>
<path fill-rule="evenodd" fill="rgb(30.589294%, 20.384216%, 18.041992%)" fill-opacity="1" d="M 2730.339844 2960.71875 L 1142.679688 2960.71875 C 1127.589844 2960.71875 1115.339844 2948.460938 1115.339844 2933.371094 L 1115.339844 2356.359375 C 1115.339844 2341.269531 1127.589844 2329.019531 1142.679688 2329.019531 C 2056.089844 2329.019531 1817.890625 2329.019531 2730.359375 2329.019531 C 2745.449219 2329.019531 2757.691406 2341.289062 2757.691406 2356.359375 L 2757.691406 2933.371094 C 2757.671875 2948.460938 2745.429688 2960.71875 2730.339844 2960.71875 "/>
<path fill-rule="evenodd" fill="rgb(100%, 59.179688%, 0.392151%)" fill-opacity="1" d="M 2962.851562 1212.359375 L 910.140625 1212.359375 C 895.050781 1212.359375 882.804688 1200.109375 882.804688 1185.03125 L 882.804688 797.460938 C 882.804688 782.371094 895.050781 770.128906 910.140625 770.128906 L 2962.828125 770.128906 C 2977.921875 770.128906 2990.179688 782.371094 2990.179688 797.460938 L 2990.179688 1185.03125 C 2990.199219 1200.121094 2977.941406 1212.359375 2962.851562 1212.359375 "/>
<path fill-rule="evenodd" fill="rgb(99.21875%, 75.389099%, 3.137207%)" fill-opacity="1" d="M 1628.710938 770.128906 L 2244.269531 770.128906 L 2244.269531 991.25 C 2244.289062 1006.328125 2232.03125 1018.558594 2216.941406 1018.558594 L 1656.039062 1018.558594 C 1640.960938 1018.558594 1628.710938 1006.320312 1628.710938 991.230469 L 1628.710938 770.128906 "/>
<path fill-rule="evenodd" fill="rgb(99.21875%, 75.389099%, 3.137207%)" fill-opacity="1" d="M 2038.859375 2723.789062 L 1836.230469 2723.789062 C 1754.699219 2723.789062 1688.339844 2657.460938 1688.339844 2575.921875 L 1688.339844 2186.851562 L 2184.640625 2186.851562 L 2184.640625 2577.96875 C 2184.660156 2658.398438 2119.230469 2723.789062 2038.859375 2723.789062 "/>
<path fill-rule="evenodd" fill="rgb(100%, 53.318787%, 0.392151%)" fill-opacity="1" d="M 1979.328125 2588.929688 C 1851.859375 2588.929688 1868.261719 2605.25 1868.261719 2485.789062 C 1805.078125 2424.589844 1848.300781 2316.839844 1936.480469 2316.839844 C 2024.679688 2316.839844 2067.878906 2424.589844 2004.730469 2485.789062 C 2004.730469 2535.671875 2014.960938 2588.929688 1979.328125 2588.929688 "/>
<path fill-rule="evenodd" fill="rgb(24.705505%, 16.479492%, 14.501953%)" fill-opacity="1" d="M 2692.199219 1644.800781 L 1180.820312 1644.789062 L 1036.089844 2186.890625 L 1093.828125 2186.851562 L 1226.378906 1690.359375 L 2704.359375 1690.359375 L 2692.199219 1644.800781 "/>
</svg>
