<?xml version="1.0" encoding="UTF-8"?>
<svg xmlns="http://www.w3.org/2000/svg" xmlns:xlink="http://www.w3.org/1999/xlink" width="3872.99" height="3872.98" viewBox="0 0 3872.99 3872.98">
<defs>
<clipPath id="clip-0">
<path clip-rule="nonzero" d="M 0 0 L 3872.988281 0 L 3872.988281 3872.980469 L 0 3872.980469 Z M 0 0 "/>
</clipPath>
<clipPath id="clip-1">
<path clip-rule="evenodd" d="M 459.511719 196.921875 C 315.09375 196.921875 196.925781 315.078125 196.925781 459.511719 L 196.925781 3413.480469 C 196.925781 3557.890625 315.09375 3676.070312 459.511719 3676.070312 L 3413.46875 3676.070312 C 3557.898438 3676.070312 3676.058594 3557.890625 3676.058594 3413.480469 L 3676.058594 459.511719 C 3676.058594 315.078125 3557.898438 196.921875 3413.46875 196.921875 Z M 459.511719 0 L 3413.46875 0 C 3666.210938 0 3872.988281 206.78125 3872.988281 459.511719 L 3872.988281 3413.480469 C 3872.988281 3666.199219 3666.210938 3872.980469 3413.46875 3872.980469 L 459.511719 3872.980469 C 206.777344 3872.980469 0 3666.199219 0 3413.480469 L 0 459.511719 C 0 206.78125 206.777344 0 459.511719 0 "/>
</clipPath>
<linearGradient id="linear-pattern-0" gradientUnits="userSpaceOnUse" x1="-0.260023" y1="0" x2="1.260166" y2="0" gradientTransform="matrix(-2547.7, -2547.7, 2547.7, -2547.7, 3210.53, 3210.52)">
<stop offset="0" stop-color="rgb(98.431396%, 76.469421%, 26.66626%)" stop-opacity="1"/>
<stop offset="0.125" stop-color="rgb(98.431396%, 76.469421%, 26.66626%)" stop-opacity="1"/>
<stop offset="0.15625" stop-color="rgb(98.431396%, 76.469421%, 26.66626%)" stop-opacity="1"/>
<stop offset="0.171875" stop-color="rgb(98.429871%, 76.49231%, 26.679993%)" stop-opacity="1"/>
<stop offset="0.175781" stop-color="rgb(98.423767%, 76.739502%, 26.831055%)" stop-opacity="1"/>
<stop offset="0.179688" stop-color="rgb(98.419189%, 76.96228%, 26.968384%)" stop-opacity="1"/>
<stop offset="0.183594" stop-color="rgb(98.414612%, 77.185059%, 27.104187%)" stop-opacity="1"/>
<stop offset="0.1875" stop-color="rgb(98.410034%, 77.407837%, 27.241516%)" stop-opacity="1"/>
<stop offset="0.191406" stop-color="rgb(98.403931%, 77.630615%, 27.377319%)" stop-opacity="1"/>
<stop offset="0.195312" stop-color="rgb(98.399353%, 77.853394%, 27.514648%)" stop-opacity="1"/>
<stop offset="0.199219" stop-color="rgb(98.39325%, 78.076172%, 27.650452%)" stop-opacity="1"/>
<stop offset="0.203125" stop-color="rgb(98.388672%, 78.29895%, 27.787781%)" stop-opacity="1"/>
<stop offset="0.207031" stop-color="rgb(98.384094%, 78.521729%, 27.92511%)" stop-opacity="1"/>
<stop offset="0.210938" stop-color="rgb(98.379517%, 78.744507%, 28.062439%)" stop-opacity="1"/>
<stop offset="0.214844" stop-color="rgb(98.373413%, 78.967285%, 28.198242%)" stop-opacity="1"/>
<stop offset="0.21875" stop-color="rgb(98.368835%, 79.190063%, 28.335571%)" stop-opacity="1"/>
<stop offset="0.222656" stop-color="rgb(98.362732%, 79.412842%, 28.471375%)" stop-opacity="1"/>
<stop offset="0.226563" stop-color="rgb(98.358154%, 79.63562%, 28.608704%)" stop-opacity="1"/>
<stop offset="0.230469" stop-color="rgb(98.353577%, 79.858398%, 28.744507%)" stop-opacity="1"/>
<stop offset="0.234375" stop-color="rgb(98.348999%, 80.081177%, 28.881836%)" stop-opacity="1"/>
<stop offset="0.238281" stop-color="rgb(98.342896%, 80.303955%, 29.017639%)" stop-opacity="1"/>
<stop offset="0.242188" stop-color="rgb(98.338318%, 80.526733%, 29.154968%)" stop-opacity="1"/>
<stop offset="0.246094" stop-color="rgb(98.332214%, 80.749512%, 29.290771%)" stop-opacity="1"/>
<stop offset="0.25" stop-color="rgb(98.327637%, 80.97229%, 29.428101%)" stop-opacity="1"/>
<stop offset="0.253906" stop-color="rgb(98.323059%, 81.195068%, 29.56543%)" stop-opacity="1"/>
<stop offset="0.257812" stop-color="rgb(98.318481%, 81.417847%, 29.702759%)" stop-opacity="1"/>
<stop offset="0.261719" stop-color="rgb(98.312378%, 81.640625%, 29.838562%)" stop-opacity="1"/>
<stop offset="0.265625" stop-color="rgb(98.3078%, 81.863403%, 29.975891%)" stop-opacity="1"/>
<stop offset="0.269531" stop-color="rgb(98.303223%, 82.086182%, 30.111694%)" stop-opacity="1"/>
<stop offset="0.273438" stop-color="rgb(98.298645%, 82.30896%, 30.249023%)" stop-opacity="1"/>
<stop offset="0.277344" stop-color="rgb(98.292542%, 82.531738%, 30.384827%)" stop-opacity="1"/>
<stop offset="0.28125" stop-color="rgb(98.287964%, 82.754517%, 30.522156%)" stop-opacity="1"/>
<stop offset="0.285156" stop-color="rgb(98.28186%, 82.977295%, 30.657959%)" stop-opacity="1"/>
<stop offset="0.289062" stop-color="rgb(98.277283%, 83.200073%, 30.795288%)" stop-opacity="1"/>
<stop offset="0.292969" stop-color="rgb(98.272705%, 83.422852%, 30.931091%)" stop-opacity="1"/>
<stop offset="0.296875" stop-color="rgb(98.268127%, 83.64563%, 31.06842%)" stop-opacity="1"/>
<stop offset="0.300781" stop-color="rgb(98.262024%, 83.868408%, 31.204224%)" stop-opacity="1"/>
<stop offset="0.304688" stop-color="rgb(98.257446%, 84.091187%, 31.341553%)" stop-opacity="1"/>
<stop offset="0.308594" stop-color="rgb(98.251343%, 84.313965%, 31.478882%)" stop-opacity="1"/>
<stop offset="0.3125" stop-color="rgb(98.246765%, 84.536743%, 31.616211%)" stop-opacity="1"/>
<stop offset="0.316406" stop-color="rgb(98.242188%, 84.757996%, 31.752014%)" stop-opacity="1"/>
<stop offset="0.320312" stop-color="rgb(98.23761%, 84.980774%, 31.889343%)" stop-opacity="1"/>
<stop offset="0.324219" stop-color="rgb(98.231506%, 85.203552%, 32.025146%)" stop-opacity="1"/>
<stop offset="0.328125" stop-color="rgb(98.226929%, 85.426331%, 32.162476%)" stop-opacity="1"/>
<stop offset="0.332031" stop-color="rgb(98.220825%, 85.649109%, 32.298279%)" stop-opacity="1"/>
<stop offset="0.335938" stop-color="rgb(98.216248%, 85.871887%, 32.435608%)" stop-opacity="1"/>
<stop offset="0.339844" stop-color="rgb(98.21167%, 86.094666%, 32.571411%)" stop-opacity="1"/>
<stop offset="0.34375" stop-color="rgb(98.207092%, 86.317444%, 32.70874%)" stop-opacity="1"/>
<stop offset="0.347656" stop-color="rgb(98.200989%, 86.540222%, 32.844543%)" stop-opacity="1"/>
<stop offset="0.351562" stop-color="rgb(98.196411%, 86.763%, 32.981873%)" stop-opacity="1"/>
<stop offset="0.355469" stop-color="rgb(98.191833%, 86.985779%, 33.119202%)" stop-opacity="1"/>
<stop offset="0.359375" stop-color="rgb(98.187256%, 87.208557%, 33.256531%)" stop-opacity="1"/>
<stop offset="0.363281" stop-color="rgb(98.181152%, 87.431335%, 33.392334%)" stop-opacity="1"/>
<stop offset="0.367188" stop-color="rgb(98.176575%, 87.654114%, 33.529663%)" stop-opacity="1"/>
<stop offset="0.371094" stop-color="rgb(98.170471%, 87.876892%, 33.665466%)" stop-opacity="1"/>
<stop offset="0.375" stop-color="rgb(98.165894%, 88.09967%, 33.802795%)" stop-opacity="1"/>
<stop offset="0.378906" stop-color="rgb(98.161316%, 88.322449%, 33.938599%)" stop-opacity="1"/>
<stop offset="0.382812" stop-color="rgb(98.156738%, 88.545227%, 34.075928%)" stop-opacity="1"/>
<stop offset="0.386719" stop-color="rgb(98.150635%, 88.768005%, 34.211731%)" stop-opacity="1"/>
<stop offset="0.390625" stop-color="rgb(98.146057%, 88.990784%, 34.34906%)" stop-opacity="1"/>
<stop offset="0.394531" stop-color="rgb(98.139954%, 89.213562%, 34.484863%)" stop-opacity="1"/>
<stop offset="0.398438" stop-color="rgb(98.135376%, 89.43634%, 34.622192%)" stop-opacity="1"/>
<stop offset="0.402344" stop-color="rgb(98.130798%, 89.659119%, 34.757996%)" stop-opacity="1"/>
<stop offset="0.40625" stop-color="rgb(98.126221%, 89.881897%, 34.895325%)" stop-opacity="1"/>
<stop offset="0.410156" stop-color="rgb(98.120117%, 90.104675%, 35.032654%)" stop-opacity="1"/>
<stop offset="0.414063" stop-color="rgb(98.11554%, 90.327454%, 35.169983%)" stop-opacity="1"/>
<stop offset="0.417969" stop-color="rgb(98.109436%, 90.550232%, 35.305786%)" stop-opacity="1"/>
<stop offset="0.421875" stop-color="rgb(98.104858%, 90.77301%, 35.443115%)" stop-opacity="1"/>
<stop offset="0.425781" stop-color="rgb(98.100281%, 90.995789%, 35.578918%)" stop-opacity="1"/>
<stop offset="0.429688" stop-color="rgb(98.095703%, 91.218567%, 35.716248%)" stop-opacity="1"/>
<stop offset="0.433594" stop-color="rgb(98.0896%, 91.441345%, 35.852051%)" stop-opacity="1"/>
<stop offset="0.4375" stop-color="rgb(98.085022%, 91.664124%, 35.98938%)" stop-opacity="1"/>
<stop offset="0.441406" stop-color="rgb(98.080444%, 91.886902%, 36.125183%)" stop-opacity="1"/>
<stop offset="0.445312" stop-color="rgb(98.075867%, 92.10968%, 36.262512%)" stop-opacity="1"/>
<stop offset="0.449219" stop-color="rgb(98.069763%, 92.332458%, 36.398315%)" stop-opacity="1"/>
<stop offset="0.453125" stop-color="rgb(98.065186%, 92.555237%, 36.535645%)" stop-opacity="1"/>
<stop offset="0.457031" stop-color="rgb(98.059082%, 92.778015%, 36.672974%)" stop-opacity="1"/>
<stop offset="0.460938" stop-color="rgb(98.054504%, 93.000793%, 36.810303%)" stop-opacity="1"/>
<stop offset="0.464844" stop-color="rgb(98.049927%, 93.223572%, 36.946106%)" stop-opacity="1"/>
<stop offset="0.46875" stop-color="rgb(98.045349%, 93.44635%, 37.083435%)" stop-opacity="1"/>
<stop offset="0.476562" stop-color="rgb(97.85614%, 93.522644%, 37.207031%)" stop-opacity="1"/>
<stop offset="0.480469" stop-color="rgb(97.171021%, 93.431091%, 37.434387%)" stop-opacity="1"/>
<stop offset="0.484375" stop-color="rgb(96.67511%, 93.263245%, 37.538147%)" stop-opacity="1"/>
<stop offset="0.488281" stop-color="rgb(96.179199%, 93.093872%, 37.641907%)" stop-opacity="1"/>
<stop offset="0.492188" stop-color="rgb(95.683289%, 92.926025%, 37.745667%)" stop-opacity="1"/>
<stop offset="0.496094" stop-color="rgb(95.187378%, 92.758179%, 37.849426%)" stop-opacity="1"/>
<stop offset="0.5" stop-color="rgb(94.691467%, 92.590332%, 37.953186%)" stop-opacity="1"/>
<stop offset="0.503906" stop-color="rgb(94.195557%, 92.420959%, 38.05542%)" stop-opacity="1"/>
<stop offset="0.507812" stop-color="rgb(93.699646%, 92.253113%, 38.15918%)" stop-opacity="1"/>
<stop offset="0.511719" stop-color="rgb(93.203735%, 92.085266%, 38.262939%)" stop-opacity="1"/>
<stop offset="0.515625" stop-color="rgb(92.707825%, 91.917419%, 38.366699%)" stop-opacity="1"/>
<stop offset="0.519531" stop-color="rgb(92.211914%, 91.748047%, 38.470459%)" stop-opacity="1"/>
<stop offset="0.523437" stop-color="rgb(91.716003%, 91.5802%, 38.574219%)" stop-opacity="1"/>
<stop offset="0.527344" stop-color="rgb(91.220093%, 91.412354%, 38.676453%)" stop-opacity="1"/>
<stop offset="0.53125" stop-color="rgb(90.724182%, 91.244507%, 38.780212%)" stop-opacity="1"/>
<stop offset="0.535156" stop-color="rgb(90.228271%, 91.075134%, 38.883972%)" stop-opacity="1"/>
<stop offset="0.539062" stop-color="rgb(89.732361%, 90.907288%, 38.987732%)" stop-opacity="1"/>
<stop offset="0.542969" stop-color="rgb(89.23645%, 90.739441%, 39.091492%)" stop-opacity="1"/>
<stop offset="0.546875" stop-color="rgb(88.74054%, 90.571594%, 39.195251%)" stop-opacity="1"/>
<stop offset="0.550781" stop-color="rgb(88.244629%, 90.403748%, 39.297485%)" stop-opacity="1"/>
<stop offset="0.554688" stop-color="rgb(87.748718%, 90.235901%, 39.401245%)" stop-opacity="1"/>
<stop offset="0.558594" stop-color="rgb(87.252808%, 90.066528%, 39.505005%)" stop-opacity="1"/>
<stop offset="0.5625" stop-color="rgb(86.756897%, 89.898682%, 39.608765%)" stop-opacity="1"/>
<stop offset="0.566406" stop-color="rgb(86.260986%, 89.730835%, 39.712524%)" stop-opacity="1"/>
<stop offset="0.570312" stop-color="rgb(85.765076%, 89.562988%, 39.816284%)" stop-opacity="1"/>
<stop offset="0.574219" stop-color="rgb(85.269165%, 89.393616%, 39.918518%)" stop-opacity="1"/>
<stop offset="0.578125" stop-color="rgb(84.773254%, 89.225769%, 40.022278%)" stop-opacity="1"/>
<stop offset="0.582031" stop-color="rgb(84.277344%, 89.057922%, 40.126038%)" stop-opacity="1"/>
<stop offset="0.585938" stop-color="rgb(83.781433%, 88.890076%, 40.229797%)" stop-opacity="1"/>
<stop offset="0.589844" stop-color="rgb(83.285522%, 88.720703%, 40.332031%)" stop-opacity="1"/>
<stop offset="0.59375" stop-color="rgb(82.789612%, 88.552856%, 40.435791%)" stop-opacity="1"/>
<stop offset="0.597656" stop-color="rgb(82.293701%, 88.38501%, 40.539551%)" stop-opacity="1"/>
<stop offset="0.601562" stop-color="rgb(81.797791%, 88.217163%, 40.643311%)" stop-opacity="1"/>
<stop offset="0.605469" stop-color="rgb(81.30188%, 88.047791%, 40.74707%)" stop-opacity="1"/>
<stop offset="0.609375" stop-color="rgb(80.805969%, 87.879944%, 40.85083%)" stop-opacity="1"/>
<stop offset="0.613281" stop-color="rgb(80.310059%, 87.712097%, 40.953064%)" stop-opacity="1"/>
<stop offset="0.617188" stop-color="rgb(79.814148%, 87.54425%, 41.056824%)" stop-opacity="1"/>
<stop offset="0.621094" stop-color="rgb(79.318237%, 87.376404%, 41.160583%)" stop-opacity="1"/>
<stop offset="0.625" stop-color="rgb(78.822327%, 87.208557%, 41.264343%)" stop-opacity="1"/>
<stop offset="0.628906" stop-color="rgb(78.326416%, 87.039185%, 41.368103%)" stop-opacity="1"/>
<stop offset="0.632812" stop-color="rgb(77.830505%, 86.871338%, 41.471863%)" stop-opacity="1"/>
<stop offset="0.636719" stop-color="rgb(77.334595%, 86.703491%, 41.574097%)" stop-opacity="1"/>
<stop offset="0.640625" stop-color="rgb(76.838684%, 86.535645%, 41.677856%)" stop-opacity="1"/>
<stop offset="0.644531" stop-color="rgb(76.342773%, 86.366272%, 41.781616%)" stop-opacity="1"/>
<stop offset="0.648438" stop-color="rgb(75.846863%, 86.198425%, 41.885376%)" stop-opacity="1"/>
<stop offset="0.652344" stop-color="rgb(75.350952%, 86.030579%, 41.989136%)" stop-opacity="1"/>
<stop offset="0.65625" stop-color="rgb(74.855042%, 85.862732%, 42.092896%)" stop-opacity="1"/>
<stop offset="0.660156" stop-color="rgb(74.359131%, 85.693359%, 42.195129%)" stop-opacity="1"/>
<stop offset="0.664062" stop-color="rgb(73.86322%, 85.525513%, 42.298889%)" stop-opacity="1"/>
<stop offset="0.667969" stop-color="rgb(73.36731%, 85.357666%, 42.402649%)" stop-opacity="1"/>
<stop offset="0.671875" stop-color="rgb(72.871399%, 85.189819%, 42.506409%)" stop-opacity="1"/>
<stop offset="0.675781" stop-color="rgb(72.375488%, 85.020447%, 42.610168%)" stop-opacity="1"/>
<stop offset="0.679688" stop-color="rgb(71.879578%, 84.8526%, 42.713928%)" stop-opacity="1"/>
<stop offset="0.683594" stop-color="rgb(71.383667%, 84.684753%, 42.816162%)" stop-opacity="1"/>
<stop offset="0.6875" stop-color="rgb(70.887756%, 84.516907%, 42.919922%)" stop-opacity="1"/>
<stop offset="0.691406" stop-color="rgb(70.391846%, 84.34906%, 43.023682%)" stop-opacity="1"/>
<stop offset="0.695312" stop-color="rgb(69.895935%, 84.181213%, 43.127441%)" stop-opacity="1"/>
<stop offset="0.699219" stop-color="rgb(69.400024%, 84.011841%, 43.231201%)" stop-opacity="1"/>
<stop offset="0.703125" stop-color="rgb(68.904114%, 83.843994%, 43.334961%)" stop-opacity="1"/>
<stop offset="0.707031" stop-color="rgb(68.408203%, 83.676147%, 43.437195%)" stop-opacity="1"/>
<stop offset="0.710938" stop-color="rgb(67.912292%, 83.508301%, 43.540955%)" stop-opacity="1"/>
<stop offset="0.714844" stop-color="rgb(67.416382%, 83.338928%, 43.644714%)" stop-opacity="1"/>
<stop offset="0.71875" stop-color="rgb(66.920471%, 83.171082%, 43.748474%)" stop-opacity="1"/>
<stop offset="0.722656" stop-color="rgb(66.423035%, 83.003235%, 43.852234%)" stop-opacity="1"/>
<stop offset="0.726562" stop-color="rgb(65.927124%, 82.835388%, 43.955994%)" stop-opacity="1"/>
<stop offset="0.730469" stop-color="rgb(65.431213%, 82.666016%, 44.058228%)" stop-opacity="1"/>
<stop offset="0.734375" stop-color="rgb(64.935303%, 82.498169%, 44.161987%)" stop-opacity="1"/>
<stop offset="0.738281" stop-color="rgb(64.439392%, 82.330322%, 44.265747%)" stop-opacity="1"/>
<stop offset="0.742188" stop-color="rgb(63.943481%, 82.162476%, 44.369507%)" stop-opacity="1"/>
<stop offset="0.746094" stop-color="rgb(63.447571%, 81.993103%, 44.473267%)" stop-opacity="1"/>
<stop offset="0.75" stop-color="rgb(62.95166%, 81.825256%, 44.577026%)" stop-opacity="1"/>
<stop offset="0.753906" stop-color="rgb(62.45575%, 81.65741%, 44.67926%)" stop-opacity="1"/>
<stop offset="0.757812" stop-color="rgb(61.959839%, 81.489563%, 44.78302%)" stop-opacity="1"/>
<stop offset="0.761719" stop-color="rgb(61.463928%, 81.321716%, 44.88678%)" stop-opacity="1"/>
<stop offset="0.765625" stop-color="rgb(60.968018%, 81.15387%, 44.99054%)" stop-opacity="1"/>
<stop offset="0.769531" stop-color="rgb(60.472107%, 80.984497%, 45.094299%)" stop-opacity="1"/>
<stop offset="0.773438" stop-color="rgb(59.976196%, 80.81665%, 45.198059%)" stop-opacity="1"/>
<stop offset="0.777344" stop-color="rgb(59.480286%, 80.648804%, 45.300293%)" stop-opacity="1"/>
<stop offset="0.78125" stop-color="rgb(58.984375%, 80.480957%, 45.404053%)" stop-opacity="1"/>
<stop offset="0.785156" stop-color="rgb(58.488464%, 80.311584%, 45.507812%)" stop-opacity="1"/>
<stop offset="0.789062" stop-color="rgb(57.992554%, 80.143738%, 45.611572%)" stop-opacity="1"/>
<stop offset="0.792969" stop-color="rgb(57.496643%, 79.975891%, 45.715332%)" stop-opacity="1"/>
<stop offset="0.796875" stop-color="rgb(57.000732%, 79.808044%, 45.819092%)" stop-opacity="1"/>
<stop offset="0.800781" stop-color="rgb(56.504822%, 79.638672%, 45.921326%)" stop-opacity="1"/>
<stop offset="0.804688" stop-color="rgb(56.008911%, 79.470825%, 46.025085%)" stop-opacity="1"/>
<stop offset="0.808594" stop-color="rgb(55.513%, 79.302979%, 46.128845%)" stop-opacity="1"/>
<stop offset="0.8125" stop-color="rgb(55.01709%, 79.135132%, 46.232605%)" stop-opacity="1"/>
<stop offset="0.816406" stop-color="rgb(54.521179%, 78.965759%, 46.336365%)" stop-opacity="1"/>
<stop offset="0.820313" stop-color="rgb(54.025269%, 78.797913%, 46.440125%)" stop-opacity="1"/>
<stop offset="0.824219" stop-color="rgb(53.529358%, 78.630066%, 46.542358%)" stop-opacity="1"/>
<stop offset="0.828125" stop-color="rgb(53.033447%, 78.462219%, 46.646118%)" stop-opacity="1"/>
<stop offset="0.84375" stop-color="rgb(52.986145%, 78.445435%, 46.655273%)" stop-opacity="1"/>
<stop offset="0.875" stop-color="rgb(52.940369%, 78.430176%, 46.665955%)" stop-opacity="1"/>
<stop offset="1" stop-color="rgb(52.940369%, 78.430176%, 46.665955%)" stop-opacity="1"/>
</linearGradient>
</defs>
<path fill-rule="evenodd" fill="rgb(89.84375%, 89.84375%, 89.84375%)" fill-opacity="1" d="M 511.644531 258.320312 C 372.316406 258.320312 258.332031 372.308594 258.332031 511.640625 L 258.332031 3361.351562 C 258.332031 3500.679688 372.316406 3614.660156 511.644531 3614.660156 L 3361.359375 3614.660156 C 3500.691406 3614.660156 3614.671875 3500.679688 3614.671875 3361.351562 L 3614.671875 511.640625 C 3614.671875 372.308594 3500.691406 258.320312 3361.359375 258.320312 Z M 511.644531 68.351562 L 3361.359375 68.351562 C 3605.160156 68.351562 3804.628906 267.828125 3804.628906 511.640625 L 3804.628906 3361.351562 C 3804.628906 3605.148438 3605.160156 3804.640625 3361.359375 3804.640625 L 511.644531 3804.640625 C 267.832031 3804.640625 68.347656 3605.148438 68.347656 3361.351562 L 68.347656 511.640625 C 68.347656 267.828125 267.832031 68.351562 511.644531 68.351562 "/>
<g clip-path="url(#clip-0)">
<g clip-path="url(#clip-1)">
<path fill-rule="nonzero" fill="url(#linear-pattern-0)" d="M 1936.496094 5809.476562 L 5809.480469 1936.488281 L 1936.496094 -1936.496094 L -1936.488281 1936.488281 Z M 1936.496094 5809.476562 "/>
</g>
</g>
<path fill-rule="evenodd" fill="rgb(99.21875%, 69.334412%, 25.097656%)" fill-opacity="1" d="M 2562.71875 2706.800781 L 1334.929688 2706.800781 C 1319.828125 2706.800781 1307.589844 2694.53125 1307.589844 2679.449219 L 1307.589844 1740.339844 C 1307.589844 1725.25 1319.828125 1713 1334.929688 1713 C 2059.761719 1713 1858.019531 1713 2562.71875 1713 C 2577.808594 1713 2590.039062 1725.25 2590.039062 1740.339844 L 2590.039062 2679.449219 C 2590.058594 2694.550781 2577.808594 2706.800781 2562.71875 2706.800781 "/>
<path fill-rule="evenodd" fill="rgb(99.21875%, 62.304688%, 22.75238%)" fill-opacity="1" d="M 1307.589844 1804.121094 L 1307.589844 1740.339844 C 1307.589844 1725.25 1319.828125 1713 1334.929688 1713 C 2059.761719 1713 1858.019531 1713 2562.71875 1713 C 2577.808594 1713 2590.039062 1725.25 2590.039062 1740.339844 L 2590.039062 1804.121094 L 1307.589844 1804.121094 "/>
<path fill-rule="evenodd" fill="rgb(70.506287%, 34.104919%, 19.993591%)" fill-opacity="1" d="M 1744.921875 2436.320312 L 1334.929688 2436.320312 C 1319.828125 2436.320312 1307.589844 2424.058594 1307.589844 2408.988281 L 1307.589844 2174.511719 C 1307.589844 2159.421875 1319.828125 2147.160156 1334.929688 2147.160156 L 1744.921875 2147.160156 C 1760.019531 2147.160156 1772.261719 2159.441406 1772.261719 2174.511719 L 1772.261719 2408.988281 C 1772.261719 2424.078125 1760.019531 2436.320312 1744.921875 2436.320312 "/>
<path fill-rule="evenodd" fill="rgb(70.506287%, 34.104919%, 19.993591%)" fill-opacity="1" d="M 1833.300781 2092.289062 L 2097.210938 2092.289062 L 2097.210938 1904.03125 C 2097.210938 1870.570312 2069.96875 1843.351562 2036.53125 1843.351562 L 1893.96875 1843.351562 C 1860.519531 1843.351562 1833.300781 1870.570312 1833.300781 1904.03125 Z M 2124.539062 2147 L 1805.960938 2147 C 1790.871094 2147 1778.621094 2134.71875 1778.621094 2119.648438 L 1778.621094 1904.03125 C 1778.621094 1840.410156 1830.378906 1788.679688 1893.96875 1788.679688 L 2036.511719 1788.679688 C 2100.121094 1788.679688 2151.878906 1840.429688 2151.878906 1904.03125 L 2151.878906 2119.648438 C 2151.898438 2134.71875 2139.628906 2147 2124.539062 2147 "/>
<path fill-rule="evenodd" fill="rgb(70.506287%, 34.104919%, 19.993591%)" fill-opacity="1" d="M 2562.71875 2436.320312 L 2185.589844 2436.320312 C 2170.519531 2436.320312 2158.261719 2424.058594 2158.261719 2408.988281 L 2158.261719 2174.511719 C 2158.261719 2159.421875 2170.519531 2147.160156 2185.589844 2147.160156 L 2562.71875 2147.160156 C 2577.808594 2147.160156 2590.039062 2159.441406 2590.039062 2174.511719 L 2590.039062 2408.988281 C 2590.058594 2424.078125 2577.808594 2436.320312 2562.71875 2436.320312 "/>
<path fill-rule="evenodd" fill="rgb(98.4375%, 86.326599%, 36.083984%)" fill-opacity="1" d="M 2130.710938 2491.21875 L 1799.789062 2491.21875 C 1754.449219 2491.21875 1717.558594 2454.320312 1717.558594 2408.988281 L 1717.558594 2119.671875 C 1717.558594 2104.578125 1729.808594 2092.320312 1744.910156 2092.320312 L 2185.570312 2092.320312 C 2200.660156 2092.320312 2212.921875 2104.578125 2212.921875 2119.648438 L 2212.921875 2408.988281 C 2212.949219 2454.300781 2176.039062 2491.21875 2130.710938 2491.21875 "/>
<path fill-rule="evenodd" fill="rgb(99.21875%, 62.304688%, 22.75238%)" fill-opacity="1" d="M 2792.390625 2706.800781 L 2562.738281 2706.800781 C 2547.640625 2706.800781 2535.390625 2694.53125 2535.390625 2679.449219 L 2535.390625 1740.339844 C 2535.390625 1725.25 2547.660156 1713 2562.738281 1713 L 2792.390625 1713 C 2807.480469 1713 2819.71875 1725.25 2819.71875 1740.339844 L 2819.71875 2679.441406 C 2819.71875 2694.550781 2807.480469 2706.800781 2792.390625 2706.800781 "/>
<path fill-rule="evenodd" fill="rgb(99.21875%, 56.054688%, 20.384216%)" fill-opacity="1" d="M 2535.390625 1804.121094 L 2535.390625 1740.339844 C 2535.390625 1725.25 2547.660156 1713 2562.738281 1713 L 2792.390625 1713 C 2807.480469 1713 2819.71875 1725.25 2819.71875 1740.339844 L 2819.71875 1797.980469 C 2811.429688 1801.921875 2802.160156 1804.121094 2792.390625 1804.121094 L 2535.390625 1804.121094 "/>
<path fill-rule="evenodd" fill="rgb(99.21875%, 62.304688%, 22.75238%)" fill-opacity="1" d="M 1334.929688 2706.800781 L 1105.269531 2706.800781 C 1090.179688 2706.800781 1077.929688 2694.53125 1077.929688 2679.449219 L 1077.929688 1740.339844 C 1077.929688 1725.25 1090.179688 1713 1105.269531 1713 L 1334.929688 1713 C 1350.019531 1713 1362.261719 1725.25 1362.261719 1740.339844 L 1362.261719 2679.441406 C 1362.261719 2694.550781 1350.039062 2706.800781 1334.929688 2706.800781 "/>
<path fill-rule="evenodd" fill="rgb(99.21875%, 56.054688%, 20.384216%)" fill-opacity="1" d="M 1077.929688 1797.96875 L 1077.929688 1740.339844 C 1077.929688 1725.25 1090.179688 1713 1105.269531 1713 L 1334.929688 1713 C 1350.019531 1713 1362.261719 1725.25 1362.261719 1740.339844 L 1362.261719 1804.121094 L 1105.269531 1804.121094 C 1095.488281 1804.121094 1086.21875 1801.910156 1077.929688 1797.96875 "/>
<path fill-rule="evenodd" fill="rgb(99.21875%, 75.389099%, 39.208984%)" fill-opacity="1" d="M 1235.101562 1931.5 L 1205.089844 1931.5 C 1190.011719 1931.5 1177.75 1919.25 1177.75 1904.160156 C 1177.75 1889.070312 1190.011719 1876.820312 1205.089844 1876.820312 L 1235.101562 1876.820312 C 1250.199219 1876.820312 1262.441406 1889.070312 1262.441406 1904.160156 C 1262.441406 1919.25 1250.21875 1931.5 1235.101562 1931.5 "/>
<path fill-rule="evenodd" fill="rgb(99.21875%, 75.389099%, 39.208984%)" fill-opacity="1" d="M 1235.101562 2084.371094 L 1205.089844 2084.371094 C 1190.011719 2084.371094 1177.75 2072.101562 1177.75 2057.019531 C 1177.75 2041.949219 1190.011719 2029.691406 1205.089844 2029.691406 L 1235.101562 2029.691406 C 1250.199219 2029.691406 1262.441406 2041.949219 1262.441406 2057.019531 C 1262.441406 2072.101562 1250.21875 2084.371094 1235.101562 2084.371094 "/>
<path fill-rule="evenodd" fill="rgb(99.21875%, 75.389099%, 39.208984%)" fill-opacity="1" d="M 1235.101562 2237.230469 L 1205.089844 2237.230469 C 1190.011719 2237.230469 1177.75 2224.980469 1177.75 2209.898438 C 1177.75 2194.828125 1190.011719 2182.578125 1205.089844 2182.578125 L 1235.101562 2182.578125 C 1250.199219 2182.578125 1262.441406 2194.828125 1262.441406 2209.898438 C 1262.441406 2224.980469 1250.21875 2237.230469 1235.101562 2237.230469 "/>
<path fill-rule="evenodd" fill="rgb(99.21875%, 75.389099%, 39.208984%)" fill-opacity="1" d="M 1235.101562 2390.121094 L 1205.089844 2390.121094 C 1190.011719 2390.121094 1177.75 2377.859375 1177.75 2362.789062 C 1177.75 2347.699219 1190.011719 2335.441406 1205.089844 2335.441406 L 1235.101562 2335.441406 C 1250.199219 2335.441406 1262.441406 2347.699219 1262.441406 2362.789062 C 1262.441406 2377.859375 1250.21875 2390.121094 1235.101562 2390.121094 "/>
<path fill-rule="evenodd" fill="rgb(99.21875%, 75.389099%, 39.208984%)" fill-opacity="1" d="M 1235.101562 2542.980469 L 1205.089844 2542.980469 C 1190.011719 2542.980469 1177.75 2530.730469 1177.75 2515.628906 C 1177.75 2500.558594 1190.011719 2488.308594 1205.089844 2488.308594 L 1235.101562 2488.308594 C 1250.199219 2488.308594 1262.441406 2500.558594 1262.441406 2515.628906 C 1262.441406 2530.730469 1250.21875 2542.980469 1235.101562 2542.980469 "/>
<path fill-rule="evenodd" fill="rgb(99.21875%, 75.389099%, 39.208984%)" fill-opacity="1" d="M 2692.570312 1931.5 L 2662.558594 1931.5 C 2647.460938 1931.5 2635.210938 1919.25 2635.210938 1904.160156 C 2635.210938 1889.070312 2647.480469 1876.820312 2662.558594 1876.820312 L 2692.570312 1876.820312 C 2707.660156 1876.820312 2719.898438 1889.070312 2719.898438 1904.160156 C 2719.898438 1919.25 2707.660156 1931.5 2692.570312 1931.5 "/>
<path fill-rule="evenodd" fill="rgb(99.21875%, 75.389099%, 39.208984%)" fill-opacity="1" d="M 2692.570312 2084.371094 L 2662.558594 2084.371094 C 2647.460938 2084.371094 2635.210938 2072.101562 2635.210938 2057.019531 C 2635.210938 2041.949219 2647.480469 2029.691406 2662.558594 2029.691406 L 2692.570312 2029.691406 C 2707.660156 2029.691406 2719.898438 2041.949219 2719.898438 2057.019531 C 2719.898438 2072.101562 2707.660156 2084.371094 2692.570312 2084.371094 "/>
<path fill-rule="evenodd" fill="rgb(99.21875%, 75.389099%, 39.208984%)" fill-opacity="1" d="M 2692.570312 2237.230469 L 2662.558594 2237.230469 C 2647.460938 2237.230469 2635.210938 2224.980469 2635.210938 2209.898438 C 2635.210938 2194.828125 2647.480469 2182.578125 2662.558594 2182.578125 L 2692.570312 2182.578125 C 2707.660156 2182.578125 2719.898438 2194.828125 2719.898438 2209.898438 C 2719.898438 2224.980469 2707.660156 2237.230469 2692.570312 2237.230469 "/>
<path fill-rule="evenodd" fill="rgb(99.21875%, 75.389099%, 39.208984%)" fill-opacity="1" d="M 2692.570312 2390.121094 L 2662.558594 2390.121094 C 2647.460938 2390.121094 2635.210938 2377.859375 2635.210938 2362.789062 C 2635.210938 2347.699219 2647.480469 2335.441406 2662.558594 2335.441406 L 2692.570312 2335.441406 C 2707.660156 2335.441406 2719.898438 2347.699219 2719.898438 2362.789062 C 2719.898438 2377.859375 2707.660156 2390.121094 2692.570312 2390.121094 "/>
<path fill-rule="evenodd" fill="rgb(99.21875%, 75.389099%, 39.208984%)" fill-opacity="1" d="M 2692.570312 2542.980469 L 2662.558594 2542.980469 C 2647.460938 2542.980469 2635.210938 2530.730469 2635.210938 2515.628906 C 2635.210938 2500.558594 2647.480469 2488.308594 2662.558594 2488.308594 L 2692.570312 2488.308594 C 2707.660156 2488.308594 2719.898438 2500.558594 2719.898438 2515.628906 C 2719.898438 2530.730469 2707.660156 2542.980469 2692.570312 2542.980469 "/>
<path fill-rule="evenodd" fill="rgb(70.506287%, 34.104919%, 19.993591%)" fill-opacity="1" d="M 1965.261719 2335.128906 C 1920.261719 2335.128906 1883.660156 2298.511719 1883.660156 2253.511719 C 1883.660156 2208.550781 1920.261719 2171.921875 1965.261719 2171.921875 C 2010.238281 2171.921875 2046.851562 2208.550781 2046.851562 2253.511719 C 2046.851562 2298.511719 2010.238281 2335.128906 1965.261719 2335.128906 "/>
<path fill-rule="evenodd" fill="rgb(70.506287%, 34.104919%, 19.993591%)" fill-opacity="1" d="M 1965.261719 2411.550781 C 1950.171875 2411.550781 1937.921875 2399.269531 1937.921875 2384.199219 L 1937.921875 2307.800781 C 1937.921875 2292.710938 1950.171875 2280.46875 1965.261719 2280.46875 C 1980.351562 2280.46875 1992.601562 2292.71875 1992.601562 2307.800781 L 1992.601562 2384.199219 C 1992.601562 2399.289062 1980.351562 2411.550781 1965.261719 2411.550781 "/>
<path fill-rule="evenodd" fill="rgb(99.21875%, 62.304688%, 22.75238%)" fill-opacity="1" d="M 2792.390625 1767.671875 L 1105.269531 1767.671875 C 1090.179688 1767.671875 1077.929688 1755.429688 1077.929688 1740.339844 L 1077.929688 1450.710938 C 1077.929688 1336.230469 1171.058594 1243.109375 1285.53125 1243.109375 L 2612.128906 1243.109375 C 2726.589844 1243.109375 2819.761719 1336.230469 2819.761719 1450.710938 L 2819.761719 1740.351562 C 2819.71875 1755.449219 2807.480469 1767.671875 2792.390625 1767.671875 "/>
<path fill-rule="evenodd" fill="rgb(70.506287%, 34.104919%, 19.993591%)" fill-opacity="1" d="M 2604.210938 1767.671875 L 1293.441406 1767.671875 C 1278.351562 1767.671875 1266.101562 1755.429688 1266.101562 1740.339844 L 1266.101562 1450.710938 C 1266.101562 1336.230469 1341.179688 1243.109375 1433.488281 1243.109375 L 2464.160156 1243.109375 C 2556.449219 1243.109375 2631.558594 1336.230469 2631.558594 1450.710938 L 2631.558594 1740.351562 C 2631.558594 1755.449219 2619.300781 1767.671875 2604.210938 1767.671875 "/>
<path fill-rule="evenodd" fill="rgb(76.171875%, 46.655273%, 34.910583%)" fill-opacity="1" d="M 1266.101562 1453.25 L 1266.101562 1450.710938 C 1266.101562 1432.710938 1267.960938 1415.230469 1271.441406 1398.570312 L 2626.199219 1398.570312 C 2629.679688 1415.230469 2631.558594 1432.710938 2631.558594 1450.710938 L 2631.558594 1453.25 L 1266.101562 1453.25 "/>
<path fill-rule="evenodd" fill="rgb(76.171875%, 46.655273%, 34.910583%)" fill-opacity="1" d="M 1266.101562 1612.191406 L 1266.101562 1557.511719 L 2631.558594 1557.511719 L 2631.558594 1612.191406 L 1266.101562 1612.191406 "/>
<path fill-rule="evenodd" fill="rgb(99.21875%, 69.334412%, 25.097656%)" fill-opacity="1" d="M 2806.351562 1265.820312 C 2801.699219 1265.820312 2797.011719 1264.621094 2792.710938 1262.148438 C 2779.621094 1254.621094 2775.128906 1237.890625 2782.699219 1224.808594 L 2892.398438 1034.769531 C 2899.960938 1021.691406 2916.738281 1017.269531 2929.761719 1024.769531 C 2942.828125 1032.300781 2947.300781 1049.03125 2939.75 1062.109375 L 2830.03125 1252.148438 C 2824.988281 1260.910156 2815.789062 1265.820312 2806.351562 1265.820312 "/>
<path fill-rule="evenodd" fill="rgb(99.21875%, 69.334412%, 25.097656%)" fill-opacity="1" d="M 2885.578125 1311.53125 C 2876.140625 1311.53125 2866.941406 1306.628906 2861.878906 1297.859375 C 2854.339844 1284.769531 2858.800781 1268.050781 2871.878906 1260.519531 L 3061.910156 1150.808594 C 3074.949219 1143.269531 3091.691406 1147.71875 3099.25 1160.808594 C 3106.800781 1173.890625 3102.328125 1190.621094 3089.261719 1198.148438 L 2899.21875 1307.871094 C 2894.921875 1310.328125 2890.230469 1311.53125 2885.578125 1311.53125 "/>
<path fill-rule="evenodd" fill="rgb(99.21875%, 69.334412%, 25.097656%)" fill-opacity="1" d="M 2727.191406 1220.078125 C 2712.109375 1220.078125 2699.859375 1207.828125 2699.859375 1192.738281 L 2699.859375 973.308594 C 2699.859375 958.21875 2712.109375 945.96875 2727.191406 945.96875 C 2742.261719 945.96875 2754.53125 958.21875 2754.53125 973.308594 L 2754.53125 1192.738281 C 2754.550781 1207.851562 2742.300781 1220.078125 2727.191406 1220.078125 "/>
<path fill-rule="evenodd" fill="rgb(99.21875%, 69.334412%, 25.097656%)" fill-opacity="1" d="M 1066.648438 1265.820312 C 1057.191406 1265.820312 1048.019531 1260.910156 1042.941406 1252.148438 L 933.222656 1062.109375 C 925.695312 1049.03125 930.144531 1032.300781 943.226562 1024.769531 C 956.335938 1017.230469 973.039062 1021.691406 980.574219 1034.769531 L 1090.28125 1224.808594 C 1097.808594 1237.890625 1093.359375 1254.621094 1080.28125 1262.148438 C 1075.988281 1264.621094 1071.28125 1265.820312 1066.648438 1265.820312 "/>
<path fill-rule="evenodd" fill="rgb(99.21875%, 69.334412%, 25.097656%)" fill-opacity="1" d="M 987.425781 1311.53125 C 982.789062 1311.53125 978.082031 1310.328125 973.78125 1307.871094 L 783.742188 1198.148438 C 770.679688 1190.621094 766.195312 1173.890625 773.738281 1160.808594 C 781.285156 1147.730469 797.964844 1143.230469 811.078125 1150.808594 L 1001.121094 1260.519531 C 1014.179688 1268.050781 1018.660156 1284.769531 1011.121094 1297.859375 C 1006.070312 1306.609375 996.863281 1311.53125 987.425781 1311.53125 "/>
<path fill-rule="evenodd" fill="rgb(99.21875%, 69.334412%, 25.097656%)" fill-opacity="1" d="M 1145.808594 1220.078125 C 1130.710938 1220.078125 1118.46875 1207.828125 1118.46875 1192.738281 L 1118.46875 973.308594 C 1118.46875 958.21875 1130.710938 945.96875 1145.808594 945.96875 C 1160.890625 945.96875 1173.140625 958.21875 1173.140625 973.308594 L 1173.140625 1192.738281 C 1173.140625 1207.851562 1160.890625 1220.078125 1145.808594 1220.078125 "/>
<path fill-rule="evenodd" fill="rgb(70.506287%, 34.104919%, 19.993591%)" fill-opacity="1" d="M 2825.230469 2927 L 1105.269531 2927 C 1061.769531 2927 1026.410156 2891.609375 1026.410156 2848.128906 L 1026.410156 2730.980469 C 1026.410156 2687.519531 1061.789062 2652.128906 1105.269531 2652.128906 L 2825.210938 2652.128906 C 2868.71875 2652.128906 2904.101562 2687.519531 2904.101562 2730.980469 L 2904.101562 2848.128906 C 2904.121094 2891.609375 2868.71875 2927 2825.230469 2927 "/>
<path fill-rule="evenodd" fill="rgb(99.21875%, 62.304688%, 22.75238%)" fill-opacity="1" d="M 2954.839844 2927 L 975.679688 2927 C 960.589844 2927 948.34375 2914.75 948.34375 2899.679688 C 948.34375 2884.578125 960.589844 2872.328125 975.679688 2872.328125 L 2954.839844 2872.328125 C 2969.929688 2872.328125 2982.171875 2884.578125 2982.171875 2899.679688 C 2982.171875 2914.75 2969.929688 2927 2954.839844 2927 "/>
<path fill-rule="evenodd" fill="rgb(76.171875%, 46.655273%, 34.910583%)" fill-opacity="1" d="M 1976.660156 2816.890625 L 1537.800781 2816.890625 C 1522.710938 2816.890625 1510.460938 2804.621094 1510.460938 2789.550781 C 1510.460938 2774.46875 1522.710938 2762.21875 1537.800781 2762.21875 L 1976.679688 2762.21875 C 1991.769531 2762.21875 2004.011719 2774.46875 2004.011719 2789.550781 C 2004.011719 2804.621094 1991.75 2816.890625 1976.660156 2816.890625 "/>
<path fill-rule="evenodd" fill="rgb(76.171875%, 46.655273%, 34.910583%)" fill-opacity="1" d="M 2276.699219 2816.890625 L 2185.738281 2816.890625 C 2170.648438 2816.890625 2158.390625 2804.621094 2158.390625 2789.550781 C 2158.390625 2774.46875 2170.660156 2762.21875 2185.738281 2762.21875 L 2276.699219 2762.21875 C 2291.789062 2762.21875 2304.019531 2774.46875 2304.019531 2789.550781 C 2304.019531 2804.621094 2291.789062 2816.890625 2276.699219 2816.890625 "/>
<path fill-rule="evenodd" fill="rgb(76.171875%, 46.655273%, 34.910583%)" fill-opacity="1" d="M 2692.78125 2816.890625 L 2485.789062 2816.890625 C 2470.699219 2816.890625 2458.449219 2804.621094 2458.449219 2789.550781 C 2458.449219 2774.46875 2470.71875 2762.21875 2485.789062 2762.21875 L 2692.78125 2762.21875 C 2707.871094 2762.21875 2720.121094 2774.46875 2720.121094 2789.550781 C 2720.121094 2804.621094 2707.871094 2816.890625 2692.78125 2816.890625 "/>
<path fill-rule="evenodd" fill="rgb(76.171875%, 46.655273%, 34.910583%)" fill-opacity="1" d="M 1328.710938 2816.890625 L 1237.730469 2816.890625 C 1222.640625 2816.890625 1210.390625 2804.621094 1210.390625 2789.550781 C 1210.390625 2774.46875 1222.640625 2762.21875 1237.730469 2762.21875 L 1328.710938 2762.21875 C 1343.789062 2762.21875 1356.039062 2774.46875 1356.039062 2789.550781 C 1356.039062 2804.621094 1343.820312 2816.890625 1328.710938 2816.890625 "/>
</svg>
