<svg width="64" height="64" viewBox="0 0 64 64" fill="none" xmlns="http://www.w3.org/2000/svg">
  <!-- Chest Body -->
  <rect x="8" y="24" width="48" height="32" rx="4" fill="#8B4513" stroke="#654321" stroke-width="2"/>
  
  <!-- Chest Lid (Open) -->
  <rect x="6" y="12" width="52" height="8" rx="4" fill="#A0522D" stroke="#654321" stroke-width="2" transform="rotate(-15 32 16)"/>
  
  <!-- Treasure Inside -->
  <circle cx="20" cy="40" r="3" fill="#FFD700"/>
  <circle cx="28" cy="36" r="2" fill="#FFD700"/>
  <circle cx="36" cy="40" r="3" fill="#FFD700"/>
  <circle cx="44" cy="36" r="2" fill="#FFD700"/>
  <rect x="24" y="44" width="16" height="4" rx="2" fill="#FFD700"/>
  
  <!-- Sparkles -->
  <circle cx="16" cy="32" r="1" fill="#FFD700"/>
  <circle cx="48" cy="32" r="1" fill="#FFD700"/>
  <circle cx="32" cy="28" r="1" fill="#FFD700"/>
  
  <!-- Decorative Details -->
  <rect x="12" y="28" width="8" height="4" rx="1" fill="#CD853F"/>
  <rect x="44" y="28" width="8" height="4" rx="1" fill="#CD853F"/>
  <rect x="12" y="36" width="8" height="4" rx="1" fill="#CD853F"/>
  <rect x="44" y="36" width="8" height="4" rx="1" fill="#CD853F"/>
  
  <!-- Hinges -->
  <rect x="10" y="22" width="4" height="4" rx="1" fill="#654321"/>
  <rect x="50" y="22" width="4" height="4" rx="1" fill="#654321"/>
</svg>
