<svg width="64" height="64" viewBox="0 0 64 64" fill="none" xmlns="http://www.w3.org/2000/svg">
  <!-- Scroll Body -->
  <rect x="12" y="16" width="40" height="32" rx="4" fill="#F5F5DC" stroke="#DEB887" stroke-width="2"/>
  
  <!-- Scroll Rollers -->
  <rect x="8" y="20" width="4" height="24" rx="2" fill="#8B4513" stroke="#654321" stroke-width="1"/>
  <rect x="52" y="20" width="4" height="24" rx="2" fill="#8B4513" stroke="#654321" stroke-width="1"/>
  
  <!-- Scroll Content Lines -->
  <rect x="16" y="22" width="32" height="2" rx="1" fill="#8B4513"/>
  <rect x="16" y="26" width="28" height="2" rx="1" fill="#8B4513"/>
  <rect x="16" y="30" width="30" height="2" rx="1" fill="#8B4513"/>
  <rect x="16" y="34" width="26" height="2" rx="1" fill="#8B4513"/>
  <rect x="16" y="38" width="32" height="2" rx="1" fill="#8B4513"/>
  
  <!-- Decorative Seals -->
  <circle cx="20" cy="44" r="3" fill="#DC143C" stroke="#8B0000" stroke-width="1"/>
  <circle cx="44" cy="44" r="3" fill="#4169E1" stroke="#000080" stroke-width="1"/>
  
  <!-- Scroll Ends -->
  <path d="M12 16 Q12 12 16 12 L48 12 Q52 12 52 16" fill="#DEB887" stroke="#8B4513" stroke-width="1"/>
  <path d="M12 48 Q12 52 16 52 L48 52 Q52 52 52 48" fill="#DEB887" stroke="#8B4513" stroke-width="1"/>
</svg>
